<mxfile host="app.diagrams.net" modified="2021-04-14T09:29:16.859Z" agent="5.0 (Windows NT 10.0; Win64; x64) AppleWebKit/537.36 (KHTML, like Gecko) Chrome/89.0.4389.114 Safari/537.36" etag="MrKqjkpB1p0BSd92zpkD" version="14.6.0" type="github">
  <diagram id="WiT3AbHIqXJlHlgMrl3Y" name="Page-1">
    <mxGraphModel dx="1038" dy="548" grid="1" gridSize="10" guides="1" tooltips="1" connect="1" arrows="1" fold="1" page="1" pageScale="1" pageWidth="827" pageHeight="1169" math="0" shadow="0">
      <root>
        <mxCell id="0" />
        <mxCell id="1" parent="0" />
        <mxCell id="oAQIu1QjL0qZHSa8XBpy-16" value="" style="shape=image;verticalLabelPosition=bottom;labelBackgroundColor=#ffffff;verticalAlign=top;aspect=fixed;imageAspect=0;image=data:image/png,iVBORw0KGgoAAAANSUhEUgAAAgAAAAIACAYAAAD0eNT6AAAgAElEQVR4Ae3dB5hsWVnu8XcSOUoQJecgyCDgBSSDikjyAgooMOiggCQRyRi5XlBAL+ECV0AQFCRL0BFBjIBkkahITpKHNMwwM97ngy7o03PO6erqvav22uu3n+c81X26atda//Xu93v32imxIIAAAsMTOGuSqya5Q5LfSvKCJG9O8oEkn0vyzSTfSPKlJJ9K8pvDN8EaEUAAAQQQQGAsAudNcp0kv5DksUleleSDSU5L8t97+HdqkquP1UjrRQABBBBAAIHVCByZ5EpJfi7JHyR5XZJP76HA7xYGnpnkbKs1zacQQAABBBBAYAgCRyf5wSR3S/LEJP+c5GsDFvvtYeDLSe40RKOtAwEEEEAAAQSWJ1B79ldLcvckT0nypiQnjVTstxf++rnOCbj08k31TgQQQAABBBDYD4HLJblXkhcn+cKaiv3O4v/4JGfaTyd8FgEEEEAAAQQOT+D7t47dPyvJxzZU8LcHgCcdvrn+igACCCCAAAKrEDh3klsneUKS90yg4G8v/m+057/KkPoMAggggAACBydw9q2T6V6Z5JSJFf3tAeDyB2++/0UAAQQQQACBZQnUMfRbJXneiGfpby/e+/35k8t2zPsQQAABBBBA4EACddb+jZL80QZP4Fs1CLz6wK74DQEEEEAAAQR2I3DNJHXm/CcmPL2/WzD4apJz7tZRf0cAAQQQQKB3ArW3f/sk72i46O8MBb/c+6DqPwIIIIAAAocicFSSOyd574wK/yIIfD3J9Q/Vcf+PAAIIIIBAjwTqpL66I99/zrDwLwJAvdbtf+uQhgUBBBBAAIGuCZwlyX2SfHTmhX97CKjHAN+461HXeQQQQACBbgmcI8kDB36q3vYiO/Wf634Fx3U7+jqOAAIIINAdgTrG/6tJPtfRHv/hwshvd6cAHUYAAQQQ6I7ANZK8XeHPzkDwXLcI7m5b0GEEEECgCwI13f+HSU5V/M9Q/Bdh4O+TfE8XatBJBBBAAIEuCNy8sxP8FgV9ldf3J7l0F6rQSQQQQACB2RI4Jsnj7PEfco//UAHhM0muPVtV6BgCCCCAwKwJXCzJGxT/PRf/RSg4aesuiLMWic4hgAACCMyLwC2SfF7xX7n4L0LA6UkeNC9p6A0CCCCAwBwJHJHkd5NU4VoUMa/7Z/G0JEfPUTD6hAACCCDQPoEqUM9W+EcLPid4kmD7G4keIIAAAnMjULfyfbniP1rxX8yi/GuSi8xNPPqDAAIIINAmgXMnqevXF0XK67gsPpHk2DalotUIIIAAAnMh8L3u6reR4POVJHVvBQsCCCCAAAJrJ3DJJP9hz38jAaBmWeqOivda+6j7QgQQQACBrgnUNf41FW26f/MMHpvkyK7VqPMIIIAAAmshcNYkb1X8JxV+XpykxsWCAAIIIIDAaATqqXX2/KfH4I1JLjjaqFsxAggggEDXBB6g+E86/HwwyRW7VqjOI4AAAggMTuAmHuU76eK/mJX5YpIbDj76VogAAggg0CWBSyT5nL3/JgJABYGTk9y4S6XqNAIIIIDAYATOluQdin8zxX8xE/ClJFcZTAVWhAACCCDQHYF6uM+iqHhti8XH3Dq4u+1VhxFAAIFBCFw6yTcEgKYD0DuT1O2aLQgggAACCCxNwAN+2trjP9QMzWuTHLP0qHsjAggggEDXBOokskMVFP/fHpv7da1mnUcAAQQQWJrAKwSAWQWgzyQ5x9Kj740IIIAAAl0SqGP/pwkAswoANWvzyC7VrNMIIIAAAksTeLziP7viXwGgLg38nqVV4I0IIIAAAl0ROCrJ5wWAWQaACgG/15WadRYBBBBAYGkC11b8Z1v8KwB8Pck5l1aDNyKAAAIIdEPgtwSAWQeACgG36kbNOooAAgggsDSBfxEAZh8AnrS0GrwRAQQQQKALAnWZmLP/27vGv/bq9/Lv/V2oWScRQAABBJYmcOweC8leio737q1Ij83r4kurwhsRQAABBGZP4PYCwJ72pMcu0mOu/+6zV7MOIoAAAggsTeChAkA3AeBZS6vCGxFAAAEEZk/gGQJANwHghNmrWQcRQAABBJYm8CIBoJsA8NalVeGNCCCAAAKzJ+Dxv9M6UW/McwA+Ons16yACCCCAwNIE/soMQDczACctrQpvRAABBBCYPYHXCgDdBICaXfB44Nlv0jqIAAIILEfgHwWArgLAJZeThXchgAACCMydgNsA93MOQM0AXGHugtY/BBBAAIHlCLzdDEBXMwACwHLbhXchgAACsyfwLgFAAJi9ynUQAQQQQOAMBP5dABAAzqAK/4EAAgggMHsCHxYABIDZq1wHEUAAAQTOQOCTAoAAcAZV+A8EEEAAgdkT+JwAIADMXuU6iAACCCBwBgJfFgAEgDOown8ggAACCMyeQN0edsz7z1v3tPi6DHD2m7QOIoAAAssROE0A6CoACQDLbRfehQACCMyawFGKf1fF350AZ7056xwCCCCwPIGzCgACwPJy8U4EEEAAgbkQOLcAIADMRcz6gQACCCCwPIELCAACwPJy8U4EEEAAgbkQ+D4BQACYi5j1AwEEEEBgeQIXEQAEgOXl4p0IIIAAAnMhcAkBQACYi5j1AwEEEEBgeQKXFgAEgOXl4p0IIIAAAnMhcDkBQACYi5j1AwEEEEBgeQJXEgAEgOXl4p0IIIAAAnMhcBUBQACYi5j1AwEEEEBgeQLHCgACwPJy8U4EEEAAgbkQuIYAIADMRcz6gQACCCCwPIH/IQAIAMvLxTsRQAABBOZC4DoCgAAwFzHrBwIIIIDA8gSuLwAIAMvLxTsRQAABBOZC4EYCgAAwFzHrBwIIIIDA8gRuKgAIAMvLxTsRQAABBOZC4FYCQHcBoG7+ZEEAAQQQ6JzAbwkA3QWA63Wued1HAAEEEEjyNwJAdwHgtpSPAAIIINA3gfMk+YoA0F0AuEffstd7BBBAAIEnKf7dFf//TvLrpI8AAggg0CeBSyV5oeLfZfGvAPDeJMf0KX29RgABBPokUKb/5CSnKP7dFv8KAPXvYX1uAnqNAAII9EngdxX+7gv/IgDU618kuXifm4JeI4AAAv0QuESS0wQAAWCHBr6cpB4IZUEAAQQQmCmBW+8w/u17gn7+9rR4rxw+n+TMM9W9biGAAALdE7ifAGDv/zAauHH3WwgACCCAwEwJ3Pkw5t/rnq9+f3fm42dnqnvdQgABBLon4KE/3y12Cv8ZWZgB6N4iAEAAgbkSuIoZAIcADqOBK8xV+PqFAAII9E7g+w5j/vaIz7hH3BuTc/W+geg/AgggMFcCZxIAzAAcQgNfnavo9QsBBBBA4NsETjxEAehtb1d/D5zx+A8bCAIIIIDAvAm8TwAwC3AQDfz9vGWvdwgggAACf3sQ87c3fODecI88nmfTQAABBBCYN4HnCABmAA6igcfPW/Z6hwACCCBQz4HvcQ9Xnw8/7g+0aSCAAAIIzJvADQQAAeggGrjTvGWvdwgggAAC9cCXkw5SAOwhH34Pee58bmjTQAABBBCYP4HXCQBmAXZo4PLzl70eIoAAAgj8xg7zn/verf7tPrtxTpsFAggggMD8CTgPYPeC2FNo+Mr8Ja+HCCCAAAJFwHkAAsD2gPN+mwUCCCCAQD8EnAcgBCxCwN/1I3s9RQABBBBwHoAAsAgAf2ZzQAABBBDoh4DzAASARQB4bD+y11MEEEAAAecBCACLAPAAmwMCCCCAQF8EPBhICKgQcMe+ZK+3CCCAAAKeCyAAVACow0EWBBBAAIGOCFzfDYHcETDJZTvSvK4igAACCLgfgOKf5JQkZ7U1IIAAAgj0R8B5AH0fBnhhf5LXYwQQQACBIuA8gH4DwNeSXMxmgAACCCDQJwHnAfQbAB7Rp+T1GgEEEECgCLgfQJ8B4ANbY28rQAABBBDomMBrXA3Q3QmBd+hY77qOAAIIILBF4BcEgK4CwAeTHEX9CCCAAAIInDNJnRC2uDWs13mzuA/JI4AAAgggsCDwbAGgiwD0+SRnWwy6VwQQQAABBDwdcN57/YtZnd8jdQQQQAABBLYTOCLJf5oFmP0swNW2D7qfEUAAAQQQKAJ1XfhiT9Hr/Fi8j8wRQAABBBA4GIGLJjlNCJhtCPrNgw26/0MAAQQQQKAIuCfA/Pb8F7M5VyBxBBBAAAEEDkXgLmYAZjkD8PZDDbj/RwABBBBAoAicI8lXhYDZhYAHkzcCCCCAAAK7EahHxC6mjb22z+L0JBffbdD9HQEEEEAAgXsKALMKQK8naQQQQAABBJYhUCeL2fOfDwPT/8uo3nsQQAABBL5F4FNCwGxC0A/QNAIIIIAAAssSeLEAMIsA8KFlB9z7EEAAAQQQKAK/JgDMIgA8kZwRQAABBBDYC4HrCwCzCAA328ugey8CCCCAAAL1yNhThYCmQ0Ddz+HMpIwAAggggMBeCdTd41wN0C6Dl+11wL0fAQQQQACBIvAUAaDpAHQ8GSOAAAIIILAKgeMEgGYDQB2+udAqg+4zCCCAAAIIfK/zAJoNAH9FvggggAACCOyHwF+aBWgyBNxhP4PuswgggAACCFQhcSJgWwy+lOQspIsAAggggMB+CJw1yYlCQFMh6Gn7GXCfRQABBBBAYEHgGQJAUwHgOouB84oAAggggMB+CNxQAGgmAPz7fgbaZxFAAAEEENhO4IgkHxACmggBD98+cH5GAAEEEEBgvwScDDj9EwFPS3LR/Q60zyOAAAIIILCdQM0CvMkswKRnAV66fcD8jAACCCCAwFAEbiAATDYAnJTkB4YaaOtBAAEEEEBgJ4FXCAGTDAH33TlQfkcAAQQQQGBIAldye+DJBYC67W8dorEggAACCCAwKgFPCZzOCYGf9dCfUbVu5QgggAAC2wicPcm7HQqYxEzAnbeNix8RQAABBBAYncAVk3xFCNhoCPhIkqNHH2lfgAACCCCAwA4CdxQANhoAHrBjPPyKAAIIIIDA2gg8WQjYSAioJ/6dc22j7IsQQAABBBDYQeBMbhC0kQDw2B3j4FcEEEAAAQTWTuASSb5qJmCtQeB6ax9lX4gAAggggMBBCDxEAFhbAPhykmMOMgb+CwEEEEAAgbUTqEMBHxIC1hICXr720fWFCCCAAAIIHIbAcwSAtQSA+xxmDPwJAQQQQACBtRN4sACwlgBwzbWPrC9EAAEEEEDgMATuJgCsJQBc8DBj4E8IIIAAAgisncBDBYDRA8DX1z6qvhABBBBAAIFdCDxRABg9ALx3lzHwZwQQQAABBNZO4MUCwOgB4K/XPqq+EAEEEEAAgV0IvEEAGD0AvGSXMfBnBBBAAAEE1k6gnk733/6NyuCFax9VX4gAAggggMBhCByR5BTFf9TiX+Hqzw8zBv6EAAIIIIDA2gnUpWn2/sdn8GdrH1lfiAACCCCAwGEIHCsArCUA1d0WLQgggAACCEyGwM0FgLUEgGdPZsQ1BAEEEEAAgSTHCwBrCQDPpDYEEEAAAQSmRODXBYC1BICnT2nQtQUBBBBAAIGnCgBrCQBPIzUEEEAAAQSmRKCeUe8qgPEZCABTUr22IIAAAgjkLQLAWgKQcwBsbAgggAACkyLwSQFgLQHAZYCTkr3GIIAAAn0TOCrJaQLAWgLA8/uWmt4jgAACCEyJwIUV/7UU/zrHop64aEEAAQQQQGASBK4pAKwtANTJlhYEEEAAAQQmQeDWAsDaAsAJkxhxjUAAAQQQQCDJPQWAtQWA11IcAggggAACUyHwOwLA2gLAP0xl0LUDAQQQQACBPxUA1hYA3kRuCCCAAAIITIHABZJ8XQBYWwA4KclZpjDw2oAAAggg0DeBRyn+ayv+i1st/2jfktN7BBBAAIFNE6iT/04WANYeAD6QpGZeLAgggAACCKyVwJWSPE/hX3vhX8wA1Ovbklx+raPuyxBAAAEEuiVwsyR1Gdr2QuTnzfH4RpJHJKlbMVsQQAABBBAYhcCdkpyu+E8y/DxulBG3UgQQQACB7gn8eJJTFP9JFv/FDMztulcpAAgggAACgxI4Isl7FP9JF/8KAXViYI2VBQEEEEAAgUEI/JjiP/niv5gFuMEgI24lCCCAAAIIJHmpANBMAHg2xSKAAAIIIDAEgbO5y18zxb9mAb6W5FxDDLx1IIAAAgj0TcBjfjd3id9iWn+vr8f3LVm9RwABBBAYgkBNKe+1AHn/Zpn99RADbx0IIIAAAv0SOHOSEwWA5gJQXa557n5lq+cIIIAAAvsl8FOKf3PFfzH7csf9Dr7PI4AAAgj0S+DPBYBmA0CNnQUBBBBAAIE9Ezj71hnliz1Kr5s9rr9X/l9OcqY9j7oPIIAAAgh0T6CmkPdadLx/Wsx+onsVA4AAAgggsGcCfyEANB+AnrbnUfcBBBBAAIGuCZwnyckCQPMB4FNJjuxayTqPAAIIILAnAndT/Jsv/ovDMfUcBwsCCCCAAAJLEXi1ADCbAOBqgKUk700IIIAAAhdMcqoAMJsA8I0k30PWCCCAAAII7EbgXor/bIr/4jDAfXcbdH9HAAEEEEDgHwSA2QWAd5A1AggggAAChyNwkSSnCwCzCwA1E3D1ww28vyGAAAII9E3gAYr/LIt/BYD/27e09R4BBBBA4FAEjknybgFgtgHgi0nq/g4WBBBAAAEEDiDw24r/bIv/4mTAv0tSj3i2IIAAAggg8C0CN07yTQFg9gGggsALkhxB9wgggAACfRM4Ksmvu+6/i8K/mAWo15cnuVzf0td7BBBAoE8CdWOYut7/7TPc639kkuNG+lfr3l5IW/65ZnyenKRu/GRBAAEEEJgxgaOT3CLJC5PU3eFaLl6Havv71zC9/b6ZsTspyYuS3DbJWWasf11DAAEEuiNwlSSPS/LpmRWug4WAuoxx7OX+M+Z4YpJnJfnxJBUYLQgggAACjRE4f5K6/evbZlysdgaA2pNdxz3vz5vk6x1w/UySJyX5kTXMqjS2eWkuAgggMC0CdR3/bZK8LMkpHRSonQHg2Wscjmd2xvcjSR6T5Ng1MvZVCCCAAAK7EPihJP8nyWc7K0o7A8C1d+E05J+v2THr9ySpkyEvMyRQ60IAAQQQWI7A9yb51STv7LgQbQ8Am3jYzVuxz5uT/EqS719Ott6FAAIIILAKgbqD2+2SvNJNe85wBcM9VgG6z88cLwB8ZxxOS/K6JL+4pvMw9jl0Po4AAgi0QeCHt67X/oKC852Cs33v/8tJzrmBoTxbki8ZkzOMSZ1/8ookd0py9g2Mi69EAAEEmiZw4SQPTlLHW7cXOz+fkcdTNjjSTzA+h9Xn15I8f2vmShjYoFB9NQIITJvAWZPcMckJSWpKVbFfjsFVNzisVzROS+u0Lp18ydbMwLk2OGa+GgEEEJgMgesk+X+mk5cuJNuD0esnMIr1hL3tbfLz7jxO3jqX5W7OGZiAgjUBAQTWSuBiSR6e5N8Vj30Vz7usddQO/mU/Ywz3NYb1TIJXJ/klzyU4uMD8LwIItE+gjoHeOclrk5yuaOyraCz2susEyU0vP2gsBxnLGtM69FUzKvdJUufBWBBAAIFmCdRz12+QpO4c9xWFYrBCsQgAdfOjTZ4DcKVOnrGw4L3O1wrJb9i638Ulm3UADUcAge4IlGH9ZpIPKvqDF/2dRehzG7pF7Q8k+S/jO/r4Lsa7brz0sCSX785NdBgBBCZPoK5Fr5Oa/t4U/9qKwqI4fD5J3RJ5XUs9YbEelrP4fq/rZfFvWwG7xsGCAAIIbITAkUlukuRPktQ1zwrB5hjUjZKuvgYV1DH/3p+7MCWdvz/J765p7NcgL1+BAAJTJ3DZJI9K8lFFf1Kh54tJ6kE9Yy31NLw65DClAqgt3x2POuRWYeDKYwnAehFAoE8C505y9yT/rABMugDW7XnHuDrgaknqUIOC2waDOkzw0CROIOzTr/UagX0TqCn+H0vyZ0nqTmbMvw0GJya51r5H/7srqEMLnsXQxtgfbButqwnq0sJ6iqYFAQQQOCyBOtP4fyf5uKLfbOipEFB3Wdzvco0kdWjhYIXF/7XF5dStmw7Vybo1o2dBAAEEvkXgPFt3I6u9BcY+Dwb1pMAf2Ye+61CCJ/7NQws7t+lvbD2boB6xXc/hsCCAQGcEjkpys60nlp2k8M8y+NQNmK63gq7rEILiP8/ivzMMVFCsK3nKC45eQSs+ggACDRGop7g9JsknFP1ZFv2dBv/VrTsyLivRayepQwg71+P3+TOp+zs8Ocl1k9SdPC0IIDADAudNcq8k/8LYuyxsdZ+GGy6h4zpkUHuEij0GH9naUajLPy0IINAYgZri/8kkL0hSx/yYet8MaiagNHG4xQl/fWvkUB7xniSPTHKZw4nH3xBAYPME6j7tv5/kU4q+0LNNA7VHt9viEc0CwKFCwOL/35Tkl11JsNum5O8IrI/A+ZLcO8lbthn+YoP1ytRLA/Xc+d2Wl9OP0LikBuqw0jNGuvHUbjr1dwS6J1Bn7N4yyYuSnLzkRisM9BsGnrDEFlMzRzSCwV418PYk90xyriU05i0IILAPAvUc9sd5HKtCtcdiXSeB7rb8wh7XuddC4f3zDhd1nskfJakbSFkQQGAgAmdKcoetx+0y0Xmb6Fjje+MltFiXf431/dbbF9u3bt1crB4VbkEAgRUIXGLrCV//xZgVpn1q4MJL6O/8+/wORb6vIr/MeNfNqOreApdaQn/egkD3BOohPLdI8qokpzFkhX8ADdS1/csunvqniC9T2Pf6nnoWwfOSuK/Aslui93VFoJ7W9bAkHx7A8Pe6cXr/vE3/zXvYkjzyed5amMK2fkKSG+1Bk96KwGwJ3GDrfvynKPz29kfSwHP2sPU8c6Q2TKHwaMO0wk3dU+B/JqlZTwsC3RCox3HeN0ndYYspYTC2Bh6+hy3rQTRpm1yzBt6f5PgkdbKzBYHZErh6kqcnqZtojG361o/xQgP12Ndll1vTpm1zQxr45NYNzcwILLu1el8TBK7qEj6muiFTrRBw5T1sJZffYDsXgcVr3+G17mjqXgJ72Gi9dZoEzpPkiUnqDFimhsEmNFDaO/MeNo9jknyTXm2vG9ZAXQH1JM8c2MOW662TIVDP0r5bknq+9iZM33fivtDAB1bYKt5Ht7bbiWigHmp2xxU07CMIbITADyV5w0Q2nkUR8NpvIHjlClvBX9CvADAxDfxNksuuoGUfQWAtBM6b5Clu3sM4J2ac9dyIvS6PmVgfBNh+A+z2sT8pyU/vVczej8DYBGqv3w18mNR2s5rKz3dfQfw/LwAIshPVwOlJHriCpn0EgVEI3CVJJdOpGL52GIvtGrjeCqq/Dj3bnieugTpB8KgVtO0jCAxCoM6WLhFuN1s/4zE1DVxgBbWfj65t1w1ooM5VOdsK+vYRBPZF4EJJ/qmBDWRqxUh71huQ6sE+qy6fpW8hoAEN1O2EL7iqyH0Ogb0SqOnRumOVYobB1DXw+r2Ke9v7BVz6nrq+F+37oMcNb9ty/TgagXqClYf2MMaF8Uz9tR7ss+pSt6yeev+0zxgtNPDoVYXucwgsS+CpTFFRaEgD9WCfVZdfa6ifiyLgtd9AULcPtiAwKoG6qxqTwaAVDdxqH1vDLWndtt6QBurWwXXyqgWBUQhcsqGNoZUCpZ3jhqnL7WNLqM8aHwxa0sBennq5j03DR3skUDdUaWlj0Na+x6vOVTl6Hxtqfdb5Ln1rqDUPqUO0FgRGIfCCxgLAN5J8KEmdCf6iracSPizJcUlunuRm/s2awQ0H2ApqHXQybwblBXdN8tAkT9jyin9OUmfWt3aDs1UefDXAZmIVcydwZJLPTTwAfDHJn27dK/v8cx8Q/UMAgbUQqOPqt03ynCRfmLgH1ozFJdZCxZd0RaDu9T/F6bCPbu3Z3zRJ3ZnQggACCIxFoA4L3WRrpuAjE/XE48fqvPX2S+DBExJ7TcvVE94qlFgQQACBTREoDyovmtKhgudvCobvnS+Behb1pmcA6jKXP05y0fli1jMEEGiQQHlSeVN51KZ9sm5hfUSDDDV5ogTOMoGE+6okV5koH81CAAEEikB5VHnVpkPAsYYDgaEI1PH1TQm6HnQxxNncQ7GwHgQQQGA3AuVZ5V2b8s0H7tZAf0dgWQJ1j+l1C7muv76nqaxlh8j7EEBgYgRqGv4eG7qXxAkTY6E5DROoe0yvMwDU5YY3aJiXpiOAAAILAtdPsu5HS38tyZkXDfCKwKoE6hrYdZ7Y8m6PtVx1qHwOAQQmSqCuzX/nmnekHDqdqBhaatbt1yjaVyY5V0twtBUBBBBYksA5krx0jX76qCXb5W0IHJLA09Yk2N9PUncbtCCAAAJzJVDnBVRhXsch1TfOFaJ+rY9A3Q97bLHWTYYsCCCAQC8E7rcGXz01yXl6AaqfwxO41BpE+uzhm22NCCCAwOQJ/NEa/PU2k6eggZMl8EsjC/QNzlSd7NhrGAIIjEugnl3yDyN77JPG7YK1z5nAC0cU58eSXGjO8PQNAQQQ2IXABZJ8eESffd8u3+/PCByUQJ2Q9/mRhPl1D/I5KHP/iQAC/RH4wSRfHclr6/wtz07pT1P77vE1RhTkz+y7dVaAAAIIzIfATyU5fSTPPW4+mPRkXQQeMpIYn7KuDvgeBBBAoCECTxjJc5/bEANNnQiB14wgxq8kueCa+1fnGdw9SZ1xW0/peluST6357oZjX0Zp/eNfqorxfBnXnU7LE8obyiPKK8oz1n2O0vmTnDiC7356zZ7r6xoncNYk3xhBiL+xJi7fl6TuLfD6EafVFIT5FgRja2xLAzUlXx5SXlKeso7loSP4bvXlyutovO+YB4EfHUGElULPPjKeuo3w/0pSD8Jg4hjQAA0MpYHylN9Jcs6RPax2vj4+gn/df+R2W/2MCDxmBAHWo33HWuqKhftu4IlbQ5mL9ShUNNCGBj6T5F4jP6b850fw33rOigWBpQjUsbAhDen9SY5e6pv3/qZK5C8fuL1D9t26htUSnnhOQQMvSZJoMLcAABcoSURBVFIP9xljqR2adw3saXX+Vd14yILAYQnUiShDX45y28N+4+p/vOQIG8oUzEUbFDkamL4G6vG+9ZjfMZafHDgAlJ6uO0ZDrXNeBH56YOF9YCQ8VzXlP+gsjYIz/YJjjKY3Rp9NUl40xvLugb34N8dopHXOi8DQD6h47Ah4xr59JqOdntEaE2MyVQ3UrXzLk4Zehn5s8D8N3UDrmx+BDw2cOq83MKI6jvX3A7dxqsaiXYoeDbShgfKkoY+xX3Ngn/vmGq5iGNjurW6dBC4zsODqjNk6oWXI5ckDt5HBtmGwxsk4TV0D5U1DLkeMcEngLYZsoHXNi8A9Bi6uzxgYz9VHOEFx6qaifQofDbShgTp5ujxqyGXoHZ4/HLJx1jUvAi8aOADccmA8rx24fYy1DWM1TsapFQ2URw25DH1Ttrq80ILAGQjUVP0XBiywdeesuqvVUMtPDNi2VsxEOxU+GmhPA+VVQy11XsGXBva+dd3WeCgG1rMGAkOfcPLSgdv8poE3AsbanrEaM2PWggbKq4Zcnjew9/3ckI2zrnkQGPohFHVP/qGWiw+8AbRgItqo2NFAuxoozxpqeeTA/vesoRpmPfMh8LcDi6zulz3UUvf5Z4YY0AANtKKB8qyhluMH9r962JAFge8QGOPxv7f5ztr3/8PQ4aQVE9FOBY8G2tTAkCcD3nzgAFCausL+bdka5kLgx0YQWJ1TMMRSjxCuG1gwQgxogAZa0UB51lCPP7/aCP537yHM2TrmQeD3RxDYhQdCU0m1lY1eO40VDdDAQgND7WVfaAQPfNlA/mw1MyDw9oEFdlqSowbicqOB27bYOL0yahqggTE1UN41xFKXaJ86sA+eOKBHD9FH69gQgXqIxdCP//3kgH2508DCH3ODt24FhQZoYKGB8q6hlk+M4IPXGqpx1tMugTuMIKy3DIjjgSO0b7GBemXWNEADY2mgvGuo5c0j+OAjhmqc9bRL4OkjCOvvBsRRz7AeawO1XmxpgAbG0kB511BLeerQ7RzSp4fqp/WsmUA9y3rKwhIAhh+focfb+owRDZxRA1MPACcPeKXCmsuWrxuCwGVHKP5lBEMmSwHgjMbCbDGhgelrYOoBoDR0syEKiXW0SeCeAsDgsx+MefrGbIyM0To00EIAeGybpUurhyDwEgFAABhJA+swWN+hkE9ZAy0EgHcMUUisoz0CdZ3+F0cyf4cAGPOUjVnb6HMdGmghANQl4Bdsr3xp8X4J/PBIxb82LAGAwa7DYH0HnU1ZAy0EgOJXl4JbOiPwcAHA9P+IGpiyMWub4LAODbQSAOpScEtnBF43ovmbAWCw6zBY30FnU9ZAKwGgLgW3dETgbEnqGtCxNh4BYDy2Y42Z9RozGhhWA60EgBr3y3RU/7rval37OebGLgCMy3fMsbNuY0cDw2igpQBwj+6rYkcA6trPMTdyAWBcvmOOnXUbOxoYRgMtBYAXdVT/uu9qXfs55kYuAIzLd8yxs25jRwPDaKClAPCFJPXYYcvMCdQ1n0M//nenYQgAwxjITq5+x5UG2tFASwGgdHWNmdc+3Utyx5H3/ktIAkA7JqWgGCsaGEcDrQWAh6iQ8yfwTAFg1MMfzHQcM8UV19Y00FoAeM38y58eflQAEADWoIHWzFp7BYyhNdBaADgpyVmUyPkSuNyajN8hAGY6tJlaH021poHWAkDxvel8y5+e/bIAYO9/TRpozay1V8AYWgMtBoBHK5PzJfDSNZm/GQBmOrSZWh9NtaaBFgPAW+Zb/vruWT3+90sCgBmANWmgNbPWXgFjaA20GABOS3K+vkvlPHt/rTUavxkAZjq0mVofTbWmgRYDQDG+3TxLYN+9eoQAYO9/jRpozay1V8AYWgOtBoCn9l0q59n72isfWuCHWp8ZgPWxPtQY+H9jQAOb1UCrAeAD8yyB/fbq7CM//nen0QgAmzWenePhd+NBA+vXQKsBoLRyiX7L5fx6/hNr3Psv8QgA6zcbBo85DUxLAy0HgOPnVwb77dHjBIC1Hf5gwtMyYeNhPDalgZYDwPP7LZfz6/k7BQABYM0a2JTp+l4FfyoaaDkAfDbJEfMrhf316Hs3YPwOATDhqZiwdtDipjTQcgAoZsf2Vy7n1+OfFQDs/W9AA5syXd+r4E9FA60HgAfOrxz216M/3oD5mwFgwlMxYe2gxU1poPUAcEJ/5XJ+Pf6YAGAGYAMa2JTp+l4FfyoaaD0AfC3JmedXEvvp0RU2ZPxmAJjwVExYO2hxUxpoPQAUtxv2Uy7n19N7CwD2/jekgU2Zru9V8KeigTkEgEfNryz206OXbcj8zQAw4amYsHbQ4qY0MIcA8MZ+yuW8elqP/z1RADADsCENbMp0fa+CPxUNzCEAnJrkPPMqjX305tobNH4zAEx4KiasHbS4KQ3MIQAUu9v0UTLn1ctHCgD2/jeogU2Zru9V8KeigbkEgCfNqzT20Zt/2KD5mwFgwlMxYe2gxU1pYC4B4H19lMz59PIcSU4RAMwAbFADmzJd36vgT0UDcwkAxfOi8ymP8+/JzTds/GYAmPBUTFg7aHFTGphTADhu/mVzPj38AwHA3v+GNbAp0/W9Cv5UNDCnAPDc+ZTH+ffk3zZs/mYAmPBUTFg7aHFTGphTAPj0/MvmPHp4oQ0X/9rYBACmuynT9b20NxUNzCkAFNMrz6NEzrsXPycAmP6fgAamYsLaIRBsSgNzCwD3n3fpnEfvnjUB8zcDwHQ3Zbq+l/amooG5BYBXzqNEzrsXHxcAzABMQANTMWHtEAg2pYG5BYCvJDlm3uWz7d5dcSLGbwaA6W7KdH0v7U1FA3MLAMX1um2XyHm3/j4CgL3/iWhgKiasHQLBpjQwxwAwZJ/mXY030LuXT8T8zQAw3U2Zru+lvaloYMhiWZ46hX790wbqmq9cgsDRSb48EZEIANPYWKdgGNpAC71qYI4B4JtJzrlEPfKWNRO4zkSKf23sAgDT79X09Zv2FxqYYwCovt1izbXN1y1B4DcEgElMkS02fq8KAQ30rYG5BoA/XKIeecuaCfyjACAATEgDil/fxc/4J3MNAO9ac23zdbsQqGMym3z8786N3SEA5r9TE36nid40MNcAUOP4fbvUJH9eI4E6JjOljUsAmNZ4TEkb2kIbvWhgzgGgbjlvmQiBOiYzpY1KAJjWeExJG9pCG71oYM4BoG45b5kIgXcLAJMKQL0YnH4q5jRwaA3MOQDULectEyBQx2KmthGaAZjemExNI9pDI3PXwJwDQI3dFSZQ/7pvwp0FgMkFoLkbm/4p3jSwuwbmHgDu3X31nQCAPxEABIAJakCB2L1AYDRvRnMPAC+bQP3rvgmfmKD5OwQwb2NTuIwvDeyugbkHgBOTHNV9Bd4ggCtNsPiXMQgAu5sDA8WIBuatgbkHgNLvtTZY/7r/6vsJAKb/J6oBxW3exc347j6+PQSAR3RfhTcI4BUTNX8zALubAwPFiAbmrYEeAsCQXr/BUtreV0/p8b87jWxIUdRGtHP9fseEBmhg6hroIQCcnOTs7ZXP9lt83QkXRgGAOU/dnLWPRsfWQA8BoBjerP1y2l4PprxnLAAw17HN1fppbOoa6CUAPLa98tl+i//JDIBDAxPWwNTNWfsEiLE10EsAeEf75bStHtTjf785YfM3A8BcxzZX66exqWuglwBwepILtlVC227tLSdc/GujFACY89TNWftodGwN9BIAiuMd2i6pbbX+CQKA6f+Ja2Bsc7V+BXzqGugpADy9rRLadmvfM3HzNwPAnKduztpHo2NroKcA8OG2S2o7rb/wxIt/bVQCAHMd21ytn8amroGeAkCNxWXaKaPttvSuAoDp/wY0MHVz1j4BYmwN9BYA7tFuWW2n5c9pwPzNADDXsc3V+mls6hroLQC8qJ0y2m5LPyUAmAFoQANTN2ftEyDG1kBvAeALSY5st7ROv+VXbsT4zQAw17HN1fppbOoa6C0A1HhcY/pltN0W3l8AsPffiAambs7aJ0CMrYEeA8BD2i2v02/5KxsxfzMAzHVsc7V+Gpu6BnoMAK+Zfhlts4XHJPmKAGAGoBENTN2ctU+AGFsDPQaAk5Kcpc0SO+1WX68h4zcDwFzHNlfrp7Gpa6DHAFBjctNpl9I2W/dbAoC9/4Y0MHVz1j4BYmwN9BoAHt1miZ12q1/fkPmbAWCuY5ur9dPY1DXQawB4y7RLaXutO9fEH/+7c0MUAJjzTk34nSZ600CvAeC0JOdrr8xOt8W3bmjvvzZyAYDZ92b2+kvzOzXQawAoDrebbjltr2VPFAAc/29MAzvN0O8KZG8a6DkAPLW9MjvdFr+3MfM3A8DsezN7/aX5nRroOQB8YLrltK2WXaSx4l8bgQDADHeaod9pojcN9BwAaqwv0VapnWZrjxMATP83qIHezF5/BZydGug9ABw/zZLaVque26D5mwFghjvN0O800ZsGeg8Az2+r1E6ztZ8WAMwANKiB3sxefwWcnRroPQB8NskR0yyrbbTqKo0avxkAZrjTDP1OE71poPcAUON9bBuldpqt/BUBILUR9WYc+mvMaaB9DQgAyQOnWVrbaNVfNlr8zAC0b14KkDGkgf1pQABITmij1E6vlWdK8lUBwAxAoxpQPPZXPPBrn58AkHwtyZmnV16n36LrN2z8ZgDaNy8FyBjSwP40IAB8m98Np19up9fC3xEAvjUotRExIgxogAZa04AA8G3NPmp65XX6LXpDw4XPDACzbs2stZdmh9aAAPBtTb1x+uV2Wi08d5JTBYBvDYoZAMY8tDFbH02tQwMCwLd1VrXsPNMqsdNuzW0aLv61YZkBYLDrMFjfQWdT1oAA8F19Vk2zLEmgrv+vJwB+IsmXk5zeWCB43ZL9XOZtZgC+uxFN2ey0zTjRwIEa6DkAVM2q2lU1rGpZ1TTLigTqdornSnLhJFdM8sNJbprk9ltgH5/khUnqWEsBP23DgcEMwIFGwBjxoIH+NDCnAFA1pWpL1ZiqNVVzqqhXDapaVDWpalPVqKpVbgG8YrEf4mPHJLl4kusmuWOSByV5YpKXJXlrki+NHBAEgP7MToEz5jRwoAZaCgBVE6o2VI2oWlE1o2pH1ZCqJVVTLDMicLEkP5nkIUn+NMm/JTlloGAgABxoBIwRDxroTwNTDADl8eX15fnl/VUDqhZYEPhWyqsHEN0pyaOTvCrJR1cIBQJAf2anwBlzGjhQA5sOAOXd5eHl5eXp5e325BX6PROoSziul+QBSV6+xCEEAeBAI2CMeNBAfxpYZwCoKfzy5vLo8mqX3e25zPnAsgSOTHL1JL+a5BUHeWaBANCf2SlwxpwGDtTAmAGgnhNT3lseXF5cnmxBYCMEzpHkLkles3UFggBwoBEwRjxooD8NDB0A6kz88tjy2vJcCwKTI3CRJD81YKtqI2KeGNAADbSmgSEDQHlqeasFga4ICACMvzXj116aLQ0MGQC6Mn2dRWBBQABgpgoqDbSoAQFg4eJeEViRgADA/Fs0f22mWwFgRdP3MQQWBAQARqqY0kCLGhAAFi7uFYEVCQgAzL9F89dmuhUAVjR9H0NgQUAAYKSKKQ20qAEBYOHiXhFYkYAAwPxbNH9tplsBYEXT9zEEFgQEAEaqmNJAixoQABYu7hWBFQkIAMy/RfPXZroVAFY0fR9DYEFAAGCkiikNtKgBAWDh4l4RWJGAAMD8WzR/baZbAWBF0/cxBBYEBABGqpjSQIsaEAAWLu4VgRUJCADMv0Xz12a6FQBWNH0fQ2BBQABgpIopDbSoAQFg4eJeEViRgADA/Fs0f22mWwFgRdP3MQQWBAQARqqY0kCLGhAAFi7uFYEVCQgAzL9F89dmuhUAVjR9H0NgQUAAYKSKKQ20qAEBYOHiXhFYkYAAwPxbNH9tplsBYEXT9zEEFgQEAEaqmNJAixoQABYu7hWBFQkIAMy/RfPXZroVAFY0fR9DYEFAAGCkiikNtKgBAWDh4l4RWJGAAMD8WzR/baZbAWBF0/cxBBYEBABGqpjSQIsaEAAWLu4VgRUJCADMv0Xz12a6FQBWNH0fQ2BBQABgpIopDbSoAQFg4eJeEViRgADA/Fs0f22mWwFgRdP3MQQWBAQARqqY0kCLGhAAFi7uFYEVCQgAzL9F89dmuhUAVjR9H0NgQUAAYKSKKQ20qAEBYOHiXhFYkYAAwPxbNH9tplsBYEXT9zEEFgQEAEaqmNJAixoQABYu7hWBFQkIAMy/RfPXZroVAFY0fR9DYEFAAGCkiikNtKgBAWDh4l4RWJGAAMD8WzR/baZbAWBF0/cxBBYEBABGqpjSQIsaEAAWLu4VgRUJCADMv0Xz12a6FQBWNH0fQ2BBQABgpIopDbSoAQFg4eJeEViRgADA/Fs0f22mWwFgRdP3MQQWBAQARqqY0kCLGhAAFi7uFYEVCTw8zK9F89Nmuu1dA+VdFgQQ2AeBXxAA0ruR6r8w0aIGyrssCCCwDwI3FwAEABqggQY1UN5lQQCBfRC4WoMbfot7K9psL5sGhtVAeZcFAQT2QeCCAoC9PxqggQY1UN5lQQCBfRJ4X4Mbv72pYfem8MSzJQ2UZ1kQQGAAAo8WAOwB0gANNKSB8iwLAggMQOBaDW34Le2laKu9ahoYRwPlWRYEEBiAwBFJPikE2AOkARpoQAPlVeVZFgQQGIjArzWw4dubGmdvCldcW9LAgwbyPKtBAIEtAmdJ8lEhwB4gDdDAhDXw8SRn5doIIDA8geMmvOG3tIeirfaoaWAcDdx9eNuzRgQQKAJHJnmbEGAPkAZoYIIaeFeSo1k1AgiMR+BSST4/wY3fHtU4e1S44tqCBr6Y5HLj2Z41I4DAgsCNk3xTCLAXSAM0MAENnJrkRxfm5BUBBMYncO8JbPgt7Jlooz1oGhhXA/cZ3+58AwII7CRQj9s8WRCwF0gDNLABDZT3HL/TlPyOAALrI3BtNwli/hswf3vV4+5VT53vfyX5kfXZnG9CAIFDEfj+JK9WBAQBGqCBNWjgb5Nc9FBm5P8RQGAzBH48yb+uwQCmvneifX3vnRr/ccb/nUluvhlr860IILAMgbpXwF2SvCHJ6cKAPUIaoIF9aKA8pLzkrlv3IVnGg7wHAQQmQOBCSX4xyauSfFYgUAj2UQjsVY+zVz01rlXwyyvKM8o7ykMsCCCwAoE6TvayCf37y607CX4qyWmKgUBAAzSw5QXlCXWX0fKIKXmWcw1WKDw+Mg0CF2OwDJYGaIAGVtZAeagFgSYJnNuGv/KGP7WpUe3pYwrcOE9rnMtDLQg0SaBOyHMi3rQMhcEbDxpoQwPlneWhFgSaJXCiWQCzADRAAzSwZw2Ud1oQaJrAR234e97w7aG1sYdmnIzTmBoo77Qg0DSBNwoAAgAN0AAN7FkDdf8BCwJNE3iyDX/PG/6YexXWba+VBtrQwBObdn6NRyDJ3QQAAYAGaIAG9qyB41QQBFoncBUb/p43fHtobeyhGSfjNKYGrty6+Ws/Akcl+boQIATQAA3QwNIa+FqS8k4LAs0TeKENf+kNf8w9Cuu2x0oDbWjg+c27vg4gsEXgJgKAAEADNEADS2vgRqoHAnMhcESS99v4l9747aW1sZdmnIzTGBp431yMXz8QWBC4nwAgANAADdDArhoor7QgMCsCxyR5s41/141/jD0K67SnSgNtaKA8srzSgsDsCFwuSZ3dyowwoAEaoIEDNVDeWB5pQWC2BO7qCYECkBBIAzRwgAbqyX/ljRYEZk/g1km+ygAOMAB7QwfuDeGBRy8aKC8sT7Qg0A2BqyZ5jxAgBNAADXSsgfLA8kILAt0RODLJ7ZK8rWMD6GUvRz/t0dPAdzVQnlfeVx5oQaB7AldI8otJnrMVCD6U5EvOF7B3KBzSQKMaqOP65WHlZVXwy9vK48rrLBMg8P8BRn+E7LRik9IAAAAASUVORK5CYII=;" vertex="1" parent="1">
          <mxGeometry x="30" y="114" width="110" height="110" as="geometry" />
        </mxCell>
        <mxCell id="oAQIu1QjL0qZHSa8XBpy-18" value="" style="shape=flexArrow;endArrow=classic;html=1;fillColor=#d5e8d4;strokeColor=#82b366;" edge="1" parent="1">
          <mxGeometry width="50" height="50" relative="1" as="geometry">
            <mxPoint x="150" y="187" as="sourcePoint" />
            <mxPoint x="290" y="187" as="targetPoint" />
          </mxGeometry>
        </mxCell>
        <mxCell id="oAQIu1QjL0qZHSa8XBpy-20" value="" style="shape=image;verticalLabelPosition=bottom;labelBackgroundColor=#ffffff;verticalAlign=top;aspect=fixed;imageAspect=0;image=data:image/png,iVBORw0KGgoAAAANSUhEUgAAAgAAAAIACAYAAAD0eNT6AAAgAElEQVR4Ae3d2YokWxUG4O38AM7z+A5eiKIoiqKIIvoeXogi4kFEFBFFRM5jnBtFFOUoioqKt+Kt8zzcOrK67ba6KisrImPae60voDnV1VmZsb/1R+8/OhNOaw4CBAgQIECAAAECBAgQIECAAAECBAgQIECAAAECBAgQIECAAAECBAgQIECAAAECBAgQIECAAAECBAgQIECAAAECBAgQIECAAAECBAgQIECAAAECBAgQIECAAAECBAgQIECAAAECBAgQIECAAAECBAgQIECAAAECBAgQIECAAAECBAgQIECAAAECBAgQIECAAAECBAgQIECAAAECBAgQIECAAAECBAgQIECAAAECBAgQIECAAAECBAgQIECAAAECBAgQIECAAAECBAgQIECAAAECBAgQIECAAAECBAgQIECAAAECBAgQIECAAAECBAgQIECAAAECBAgQIECAAAECBAgQIECAAAECBAgQIECAAAECBAgQIECAAAECBAgQIECAAAECBAgQIECAAAECBAgQIECAAAECBAgQIECAAAECBAgQIECAAAECBAgQIECAAAECBAgQIECAAAECBAgQIECAAAECBAgQIECAAAECBAgQIECAAAECBAgQIECAAAECBAgQIECAAAECBAgQIECAAAECBAgQIECAAAECBAgQIECAAAECBAgQIECAAAECBAgQIECAAAECBAgQIECAAAECBAgQIECAAAECBAgQIECAAAECBAgQIECAAAECBAgQIECAAAECBAgQIECAAAECBAgQIECAAAECBAgQIECAAAECBAgQIECAAAECBAgQIECAAAECBAgQIECAAAECBAgQIECAAAECBAgQIECAAAECBAgQIECAAAECBAgQIECAAAECBAgQIECAAAECBAgQIECAAAECBAgQIECAAAECBAgQIECAAAECBAgQIECAAAECBAgQIECAAAECBAgQIECAAAECBAikEPhga+1xvxjIgAzIgAxMyMBjKXY+i7gn8GRr7T9+MZABGZABGZiQgZ/ZO/MIKAAKkAIoAzIgA1MzoADk2f+bAuDCn3rhe5ysyIAMKAAKgH8qm/BPZf6y9JelDMhAtgwoAAqAAqAAyIAMyEDBDCgACoALv+CFn+1OxnrcncvA/AwoAAqAAqAAyIAMyEDBDCgACoALv+CF725p/t0SM2bZMqAAKAAKgAIgAzIgAwUzoAAoAC78ghd+tjsZ63F3LgPzM6AAKAAKgAIgAzIgAwUzoAAoAC78ghe+u6X5d0vMmGXLgAKgACgACoAMyIAMFMyAAqAAuPALXvjZ7mSsx925DMzPgAKgACgACoAMyIAMFMyAAqAAuPALXvjulubfLTFjli0DCoACoAAoADIgAzJQMAMKgALgwi944We7k7Eed+cyMD8DCoACoAAoADIgAzJQMAMKgALgwi944btbmn+3xIxZtgwoAAqAAqAAyIAMyEDBDCgACoALv+CFn+1OxnrcncvA/AwoAAqAAqAAyIAMyEDBDCgACoALv+CF725p/t0SM2bZMqAAKAAKgAIgAzIgAwUzoAAoAC78ghd+tjsZ63F3LgPzM6AAKAAKgAIgAzIgAwUzoAAoAC78ghe+u6X5d0vMmGXLgAKgACgACoAMyIAMFMyAAqAAuPALXvjZ7mSsx925DMzPgAKgACgACoAMyIAMFMyAAqAAuPALXvjulubfLTFjli0DCoACoAAoADIgAzJQMAMKgALgwi944We7k7Eed+cyMD8DCoACoAAoADIgAzJQMAMKgALgwi944btbmn+3xIxZtgwoAAqAAqAAyIAMyEDBDCgACoALv+CFn+1OxnrcncvA/AwoAAqAAqAAyIAMyEDBDCgACsBuF/7PW2tP+MVABmSgSAZig+35XyYUAAVgt4B+OpG1pRAgQOAugccUgLuI/PlaAk92HjYFYK1Jex4CBEYQUABGmFKSc1QAkgzSMggQSCGgAKQY4xiLUADGmJOzJECghoACUGPOXaxSAehiDE6CAAEC9wQUAEHYTUAB2I3aCxEgQOBOAQXgTiIPWEtAAVhL0vMQIEBguYACsNzQM0wUUAAmQnkYAQIEdhBQAHZA9hL3BRQASSBAgEA/AgpAP7NIfyYKQPoRWyABAgMJKAADDWv0U1UARp+g8ydAIJOAApBpmp2vRQHofEBOjwCBUgIKQKlxH7tYBeBYf69OgACBqwIKwFUNX28qoABsyuvJCRAgMEtAAZjF5cFLBBSAJXp+lgABAusKKADrenq2MwIKwBkcf0SAAIGdBRSAncErv5wCUHn61k6AQG8CCkBvE0l8PgpA4uFaGgECwwkoAMONbNwTVgDGnZ0zJ0Agn4ACkG+m3a5IAeh2NE6MAIGCAgpAwaEftWQF4Ch5r0uAAIGbAgrATRPf2UhAAdgI1tMSIEDgAgEF4AI0P3KZgAJwmZufIkCAwBYCCsAWqp7zpIACcJLFNwkQIHCIgAJwCHvNF1UAas7dqgkQ6FNAAehzLinPSgFIOVaLIkBgUAEFYNDBjXjaCsCIU3POBAhkFVAAsk62w3UpAB0OxSkRIFBWQAEoO/r9F64A7G/uFQkQIHCbgAJwm4zvry6gAKxO6gkJECBwsYACcDGdH5wroADMFfN4AgQIbCegAGxn65mvCSgA10D8lgABAgcKKAAH4ld7aQWg2sStlwCBngUUgJ6nk+zcFIBkA7UcAgSGFlAAhh7fWCevAIw1L2dLgEBuAQUg93y7Wp0C0NU4nAwBAsUFFIDiAdhz+QrAntpeiwABAucFFIDzPv50RQEFYEVMT0WAAIGFAgrAQkA/Pl1AAZhu5ZEECBDYWkAB2FrY8z8UUAAeUviCAAEChwsoAIePoM4JKAB1Zm2lBAj0L6AA9D+jNGeoAKQZpYUQIJBAQAFIMMRRlqAAjDIp50mAQAUBBaDClDtZowLQySCcBgECBFprCoAY7CagAOxG7YUIECBwp4ACcCeRB6wloACsJel5CBAgsFxAAVhu6BkmCigAE6E8jAABAjsIKAA7IHuJ+wIKgCQQIECgHwEFoJ9ZpD8TBSD9iC2QAIGBBBSAgYY1+qkqAKNP0PkTIJBJQAHINM3O16IAdD4gp0eAQCkBBaDUuI9drAJwrL9XJ0CAwFUBBeCqhq83FVAANuX15AQIEJgloADM4vLgJQIKwBI9P0uAAIF1BRSAdT092xkBBeAMjj8iQIDAzgIKwM7glV9OAag8fWsnQKA3AQWgt4kkPh8FIPFwLY0AgeEEFIDhRjbuCSsA487OmRMgkE9AAcg3025XpAB0OxonRoBAQQEFoODQj1qyAnCUvNclQIDATQEF4KaJ72wkoABsBOtpCRAgcIGAAnABmh+5TEABuMzNTxEgQGALAQVgC1XPeVJAATjJ4psECBA4REABOIS95osqADXnbtUECPQpoAD0OZeUZ6UApByrRREgMKiAAjDo4EY8bQVgxKk5ZwIEsgooAFkn2+G6FIAOh+KUCBAoK6AAlB39/gtXAPY394oECBC4TUABuE3G91cXUABWJ/WEBAgQuFhAAbiYzg/OFVAA5op5PAECBLYTUAC2s/XM1wQUgGsgfkuAAIEDBRSAA/GrvbQCUG3i1kuAQM8CCkDP00l2bgpAsoFaDgECQwsoAEOPb6yTVwDGmpezJUAgt4ACkHu+Xa1OAehqHE6GAIHiAgpA8QDsuXwFYE9tr0WAAIHzAgrAeR9/uqKAArAipqciQIDAQgEFYCGgH58uoABMt/JIAgQIbC2gAGwt7PkfCigADyl8QYAAgcMFFIDDR1DnBBSAOrO2UgIE+hdQAPqfUZozVADSjNJCCBBIIKAAJBjiKEtQAEaZlPMkQKCCgAJQYcqdrFEB6GQQToMAAQKtNQVADHYTUAB2o/ZCBAgQuFNAAbiTyAPWElAA1pL0PAQIEFguoAAsN/QMEwUUgIlQHkaAAIEdBBSAHZC9xH0BBUASCBAg0I+AAtDPLNKfiQKQfsQWSIDAQAIKwEDDGv1UFYDRJ+j8CRDIJKAAZJpm52tRADofkNMjQKCUgAJQatzHLlYBONbfqxMgQOCqgAJwVcPXmwooAJvyenICBAjMElAAZnF58BIBBWCJnp8lQIDAugIKwLqenu2MgAJwBscfESBAYGcBBWBn8MovpwBUnr61EyDQm4AC0NtEEp+PApB4uJZGgMBwAgrAcCMb94QVgHFn58wJEMgnoADkm2m3K1IAuh2NEyNAoKCAAlBw6EctWQE4St7rEiBA4KaAAnDTxHc2ElAANoL1tAQIELhAQAG4AM2PXCagAFzm5qcIECCwhYACsIWq5zwpoACcZPFNAgQIHCKgABzCXvNFFYCac7dqAgT6FFAA+pxLyrNSAFKO1aIIEBhUQAEYdHAjnrYCMOLUnDMBAlkFFICsk+1wXQpAh0NxSgQIlBVQAMqOfv+FKwD7m3tFAgQI3CagANwm4/urCygAq5N6QgIECFwsoABcTOcH5wooAHPFPJ4AAQLbCSgA29l65msCCsA1EL8lQIDAgQIKwIH41V5aAag2ceslQKBnAQWg5+kkOzcFINlALYcAgaEFFIChxzfWySsAY83L2RIgkFtAAcg9365WpwB0NQ4nQ4BAcQEFoHgA9ly+ArCnttciQIDAeQEF4LyPP11RQAFYEdNTESBAYKGAArAQ0I9PF1AAplt5JAECBLYWUAC2Fvb8DwUUgIcUviBAgMDhAgrA4SOocwIKQJ1ZWykBAv0LKAD9zyjNGSoAaUZpIQQIJBBQABIMcZQlKACjTMp5EiBQQUABqDDlTtaoAHQyCKdBgACB1poCIAa7CSgAu1F7IQIECNwpoADcSeQBawkoAGtJeh4CBAgsF1AAlht6hokCCsBEKA8jQIDADgIKwA7IXuK+gAIgCQQIEOhHQAHoZxbpz0QBSD9iCyRAYCABBWCgYY1+qgrA6BN0/gQIZBJQADJNs/O1KACdD8jpESBQSkABKDXuYxerABzr79UJECBwVUABuKrh600FFIBNeT05AQIEZgkoALO4PHiJgAKwRM/PEiBAYF0BBWBdT892RkABOIPjjwgQILCzgAKwM3jll1MAKk/f2gkQ6E1AAehtIonPRwFIPFxLI0BgOAEFYLiRjXvCCsC4s3PmBAjkE1AA8s202xUpAN2OxokRIFBQQAEoOPSjlqwAHCXvdQkQIHBTQAG4aeI7GwkoABvBeloCBAhcIKAAXIDmRy4TUAAuc/NTBAgQ2EJAAdhC1XOeFFAATrL4JgECBA4RUAAOYa/5ogpAzblbNQECfQooAH3OJeVZKQApx2pRBAgMKqAADDq4EU9bARhxas6ZAIGsAgpA1sl2uC4FoMOhOCUCBMoKKABlR7//whWA/c29IgECBG4TUABuk/H91QUUgNVJPSEBAgQuFlAALqbzg3MFFIC5Yh5PgACB7QQUgO1sPfM1AQXgGojfEiBA4EABBeBA/GovrQBUm7j1EiDQs4AC0PN0kp2bApBsoJZDgMDQAgrA0OMb6+QVgLHm5WwJEMgtoADknm9Xq1MAuhqHkyFAoLiAAlA8AHsuXwHYU9trESBA4LyAAnDex5+uKKAArIjpqQgQILBQQAFYCOjHpwsoANOtPJIAAQJbCygAWwt7/ocCCsBDCl8QIEDgcAEF4PAR1DkBBaDOrK2UAIH+BRSA/meU5gwVgDSjtBACBBIIKAAJhjjKEhSAUSblPAkQqCCgAFSYcidrVAA6GYTTIECAQGtNARCD3QQUgN2ovRABAgTuFFAA7iTygLUEFIC1JD0PAQIElgsoAMsNPcNEAQVgIpSHESBAYAcBBWAHZC9xX0ABkAQCBAj0I6AA9DOL9GeiAKQfsQUSIDCQgAIw0LBGP1UFYPQJOn8CBDIJKACZptn5WhSAzgfk9AgQKCWgAJQa97GLVQCO9ffqBAgQuCqgAFzV8PWmAgrApryenAABArMEFIBZXB68REABWKLnZwkQILCugAKwrqdnOyOgAJzB8UcECBDYWUAB2Bm88sspAJWnb+0ECPQmoAD0NpHE56MAJB6upREgMJyAAjDcyMY9YQVg3Nk5cwIE8gkoAPlm2u2KFIBuR+PECBAoKKAAFBz6UUtWAI6S97oECBC4KaAA3DTxnY0EFICNYD0tAQIELhBQAC5A8yOXCSgAl7n5KQIECGwhoABsoeo5TwooACdZfJMAAQKHCCgAh7DXfFEFoObcrZoAgT4FFIA+55LyrHovAD9vrT3hFwMZkIEiGfhZa+0/Hf+K83MkEei9APR8ITi3vv+iMh/zkYH1M6AAJNn8YxkKwPoXiL90mMqADGTNgAKgAHT9T1RZLzzrsqnIgAwcnQEFQAFQADp+j+7ovyC8vk1KBvJmQAFQABQABUAGZEAGCmZAAVAAXPgFL3x3dXnv6szWbKdmQAFQABQABUAGZEAGCmZAAVAAXPgFL/ypdwge525SBvJmQAFQABQABUAGZEAGCmZAAVAAXPgFL3x3dXnv6szWbKdmQAFQABQABUAGZEAGCmZAAVAAXPgFL/ypdwge525SBvJmQAFQABQABUAGZEAGCmZAAVAAXPgFL3x3dXnv6szWbKdmQAFQABQABUAGZEAGCmZAAVAAXPgFL/ypdwge525SBvJmQAFQABQABUAGZEAGCmZAAVAAXPgFL3x3dXnv6szWbKdmQAFQABQABUAGZEAGCmZAAVAAXPgFL/ypdwge525SBvJmQAFQABQABUAGZEAGCmZAAVAAXPgFL3x3dXnv6szWbKdmQAFQABQABUAGZEAGCmZAAVAAXPgFL/ypdwge525SBvJmQAFQABQABUAGZEAGCmZAAVAAXPgFL3x3dXnv6szWbKdmQAFQABQABUAGZEAGCmZAAVAAXPgFL/ypdwge525SBvJmQAFQABQABUAGZEAGCmZAAVAAXPgFL3x3dXnv6szWbKdmQAFQABQABUAGZEAGCmZAAVAAXPgFL/ypdwge525SBvJmQAFQABQABUAGZEAGCmZAAVAAXPgFL3x3dXnv6szWbKdmQAFQABQABUAGZEAGCmZAAVAAXPgFL/ypdwge525SBvJmQAFQABQABUAGZEAGCmZAAVAAXPgFL3x3dXnv6szWbKdmQAFQABQABUAGZEAGCmZAAUhUAD7YWnvcLwYyIAMyIAMTMvBYov3PUggQIECAAAECBAgQIECAAAECBAgQIECAAAECBAgQIECAAAECBAgQIECAAAECBAgQIECAAAECBAgQIECAAAECBAgQIECAAAECBAgQIECAAAECBAgQIECAAAECBAgQIECAAAECWwq8trX2Rr8YyIAMyIAMTMhA7BmOBAIfKPh/spr6v7z0OP97VBmQARk4nYHYOxwDC7ymtfZ3BcD/zlQGZEAGZGBmBmLviD3EMaDAs1prP505cE34dBPmwkUGZKBiBmIPib3EMZjAl23+Gr8MyIAMyMDCDMRe4hhI4P0LB16x6VqzOzwZkAEZOJ2B2FMcAwi8urX2NwVA65cBGZABGVgpA7GnxN7i6Fgg3qv5yUoD14RPN2EuXGRABipmIPYWnwfouAB8yeav8cuADMiADGyUgdhjHB0KvG+jgVdsutbsDk8GZEAGTmcg9hpHRwKvaq39VQHQ+mVABmRABjbOQOw1sec4OhB4ZmvtxxsPXBM+3YS5cJEBGaiYgdhzYu9xHCzwRZu/xi8DMiADMrBzBmLvcRwo8N6dB16x6VqzOzwZkAEZOJ2B2IMcBwi80vv+Gr8CKAMyIAMHZiA+DxB7kWNHgXjv5UcHDl0bPt2GuXCRARmoloHYi3weYMcC8AWbv9YvAzIgAzLQSQZiT3LsIPCeTgZereVarzs7GZABGbg9A7E3OTYUeEVr7S8KgNYvAzIgAzLQWQZib4o9yrGBwDNaaz/sbODa8O1tmA0bGZCBahmIPSr2KsfKAp+3+Wv8MiADMiADnWcg9irHigLv7nzg1Vqu9bqzkwEZkIHbMxB7lmMFgZe31v6sAGj9MiADMiADg2Qg9qzYuxwLBOK9lB8MMnBt+PY2zIaNDMhAtQzE3uXzAAsKwOds/hq/DMiADMjAoBmIPcxxgcC7Bh14tZZrve7sZEAGZOD2DMRe5pgh8LLW2p8UAK1fBmRABmRg8AzEXhZ7mmOCQLxn8v3BB64N396G2bCRARmoloHY03weYEIB+KzNX+OXARmQARlIloHY2xxnBN7ZWvt3sqFXa7rW6+5OBmRABm5mIPa22OMcJwRe6n1/jV/5kwEZkIHEGYjPA8Re57gi8PTW2vcSD10bvtmGmTCRARmomIHY62LPc/xP4DM2f61fBmRABmSgSAZiz3O01t7hfX8XfZGLvuLdjjW7y5eBmxmIzwPE3lf6eElr7Y/+8lcAZEAGZEAGimUg9r7YA0se8R7Id4sNXBO+2YSZMJEBGaiagdgDS34e4NM2f41fBmRABmSgeAZiLyx1vN37/i764hd91Tse63a3LwOPZiA+DxB7Yonjxa21P/jLXwGQARmQARmQgXsZiD0x9sbUx9Naa98xcBe9DMiADMiADDySgdgbY49Me3zKwB8ZuH8Ke/SfwnjwkAEZqJyB2CNTHm/zvr/NXwGUARmQARm4NQPxeYDYK1MdL2qt/d7Qbx165cZr7e74ZEAGZOD/GYi9MvbMFEe8p/Ftm7/NXwZkQAZkQAYmZSD2zBSfB/ikgU8auAb8/wbMgoUMyED1DMTeOfTxVu/72/wVQBmQARmQgdkZiM8DxB465PHC1trvDH320Ku3Xut35ycDMiAD9zMQe2jspUMd8d7FkzZ/m78MyIAMyIAMLMpA7KVDfR7gEwa+aODarzsgGZABGZCBBxmIPXWI4y2ttX8pAAqADMiADMiADKySgdhTY2/t+nhBa+23Br7KwB80P/91FyADMiADMhB7a+yxXR5Pba19y+Zv85cBGZABGZCBTTIQe2zstd0djxn4JgPX/DV/GZABGZCBBxmIvbar483e97f5K4AyIAMyIAObZyA+DxB7bhfH873vv/nAHzQ//3UXIAMyIAMyEJ8HiL330CPei/imxqcAyIAMyIAMyMCuGYi999DPA3zcwHcduOav+cuADMiADDzIQOzBhxxv8r6/zV8BlAEZkAEZOCwD8XmA2It3PeK9h98Y+mFDf9D+/NedgAzIgAzUzkDsxbt9HiDec/iGzd/mLwMyIAMyIANdZCD25F0+D/AxA+9i4Fp/7dZv/uYvAzJwNQOxN296vLG19k8FQAGQARmQARmQga4yEHtz7NGbHM9rrf3awLsa+NX252t3AzIgAzJQOwOxR8deveoR7y183eZv85cBGZABGZCBrjMQe/Wqnwf4qIF3PXCtv3brN3/zlwEZuJqB2LNXOd7gfX+bvwIoAzIgAzIwTAbi8wCxdy86ntta+5WhDzP0qw3Q1+4IZEAGZKBuBmLvjj38ouMprbWv2fxt/jIgAzIgAzIwZAZiD4+9fPbxEQMfcuAaf93Gb/ZmLwMycD0DsZfPOl7vfX+bvwIoAzIgAzIwfAbi8wCxp086ntNa+6WhDz/06y3Q790ZyIAMyEDNDMSeHnv72SPeK/iqzd/mLwMyIAMyIAOpMhB7+9nPA3zYwFMNXNuv2fbN3dxlQAZOZSD2+JPH61pr/1AAFAAZkAEZkAEZSJmB2ONjr3/keHZr7RcGnnLgp1qg77k7kAEZkIGaGYi9Pvb8e0e8J/AVm7/NXwZkQAZkQAZKZCD2/HufB/iQgZcYuLZfs+2bu7nLgAycykDs/d73V4AUIBmQARmQgWIZiM8DGDoDGZABGZABGSiYAUMvOPRT/xzke8qwDMiADNTKgAKgAMiADMiADMhAwQwYesGha/m1Wr55m7cMyMCpDCgACoAMyIAMyIAMFMyAoRcc+qkm6HvuEGRABmSgVgYUAAVABmRABmRABgpmwNALDl3Lr9Xyzdu8ZUAGTmVAAVAAZEAGZEAGZKBgBgy94NBPNUHfc4cgAzIgA7UyoAAoADIgAzIgAzJQMAOGXnDoWn6tlm/e5i0DMnAqAwqAAiADMiADMiADBTNg6AWHfqoJ+p47BBmQARmolQEFQAGQARmQARmQgYIZMPSCQ9fya7V88zZvGZCBUxlQABQAGZABGZABGSiYgfZ4a34xkAEZkAEZkIFiGWgOAgQIECBAgAABAgQIECBAgAABAgQIECBAgAABAgQIECBAgAABAgQIECBAgAABAgQIECBAgAABAgQIECBAgAABAgQIECBAgAABAgQIECBAgAABAgQIECBAgAABAgQIECBAgAABAgQIECBAgAABAgQIECBAgAABAgQIECBAgAABAgQIECBAgAABAgQIECBAgAABAgQIECBAgAABAgQIECBAgAABAgQIECBAgAABAgQIECBAgAABAgQIECBAgAABAgQIECBAgAABAgQIECBAgAABAgQIECBAgAABAgQIECBAgAABAgQIECBAgAABAgQIECBAgAABAgQIECBAgAABAgQIECBAgAABAgQIECBAgAABAgQIECBAgAABAgQIECBAgAABAgQIECBAgAABAgQIECBAgAABAgQIECBAgAABAgQIECBAgAABAgQIECBAgAABAgQIECBAgAABAgQIECBAgAABAgQIECBAgAABAgQIECBAgAABAgQIECBAgAABAgQIECBAgAABAgQIECBAgAABAgQIECBAgAABAgQIECBAgAABAgQIECBAgAABAgQIECBAgAABAgQIECBAgAABAgQIECBAgAABAgQIECBAgAABAgQIECBAgAABAgQIECBAgAABAgQIECBAgAABAgQIECBAgAABAgQIECBAgAABAgQIECBAgAABAgQIECBAgAABAgQIECBAgAABAgQIECBAgAABAgQIECBAgAABAgQIECBAgAABAgQIECBAgAABAgQIECBAgAABAgQIECBAgAABAgQIECBAgAABAgQIEAtjLBYAAAAqSURBVCBAgAABAgQIECBAgAABAgQIECBAgAABAgQIECBAgAABAgRSC/wXZaykdpZckKIAAAAASUVORK5CYII=;" vertex="1" parent="1">
          <mxGeometry x="311" y="121" width="119" height="119" as="geometry" />
        </mxCell>
        <mxCell id="oAQIu1QjL0qZHSa8XBpy-22" value="" style="ellipse;shape=cloud;whiteSpace=wrap;html=1;rounded=0;sketch=0;fillColor=#dae8fc;strokeColor=#6c8ebf;" vertex="1" parent="1">
          <mxGeometry x="350" y="30" width="166" height="109" as="geometry" />
        </mxCell>
        <mxCell id="oAQIu1QjL0qZHSa8XBpy-24" value="bonjours qui etes vous?" style="text;html=1;strokeColor=none;fillColor=none;align=center;verticalAlign=middle;whiteSpace=wrap;rounded=0;sketch=0;" vertex="1" parent="1">
          <mxGeometry x="385.5" y="54.5" width="95" height="60" as="geometry" />
        </mxCell>
        <mxCell id="oAQIu1QjL0qZHSa8XBpy-28" value="" style="shape=image;verticalLabelPosition=bottom;labelBackgroundColor=#ffffff;verticalAlign=top;aspect=fixed;imageAspect=0;image=https://upload.wikimedia.org/wikipedia/commons/thumb/0/05/Go_Logo_Blue.svg/1200px-Go_Logo_Blue.svg.png;" vertex="1" parent="1">
          <mxGeometry x="299" y="337" width="133.33" height="50" as="geometry" />
        </mxCell>
        <mxCell id="oAQIu1QjL0qZHSa8XBpy-29" value="" style="shape=flexArrow;endArrow=classic;startArrow=classic;html=1;fillColor=#d5e8d4;strokeColor=#82b366;" edge="1" parent="1">
          <mxGeometry width="50" height="50" relative="1" as="geometry">
            <mxPoint x="373" y="320" as="sourcePoint" />
            <mxPoint x="373" y="240" as="targetPoint" />
          </mxGeometry>
        </mxCell>
        <mxCell id="oAQIu1QjL0qZHSa8XBpy-30" value="" style="ellipse;shape=cloud;whiteSpace=wrap;html=1;rounded=0;sketch=0;fillColor=#dae8fc;strokeColor=#6c8ebf;" vertex="1" parent="1">
          <mxGeometry x="430" y="144" width="140" height="96" as="geometry" />
        </mxCell>
        <mxCell id="oAQIu1QjL0qZHSa8XBpy-31" value="Quel est votre code ?" style="text;html=1;strokeColor=none;fillColor=none;align=center;verticalAlign=middle;whiteSpace=wrap;rounded=0;sketch=0;" vertex="1" parent="1">
          <mxGeometry x="450" y="178" width="100" height="32" as="geometry" />
        </mxCell>
        <mxCell id="oAQIu1QjL0qZHSa8XBpy-32" value="" style="shape=image;verticalLabelPosition=bottom;labelBackgroundColor=#ffffff;verticalAlign=top;aspect=fixed;imageAspect=0;image=data:image/png,iVBORw0KGgoAAAANSUhEUgAAAgAAAAIACAYAAAD0eNT6AAAgAElEQVR4Ae29Cbwb1X23f2McXpKQhFCsI5am0DSbQzB4NxhzbbxcX8CAFwxhTwglpPwDJQ1tQykh1OUNKU23hATSFPoHGpclgTbxejdjx8C1jm7AhBA2h9jGwdgYoxnpyPee93Our2z5WstImhnN8vjzkaUrjUYz3/nNeZ45s7W08I8ESCDwCRy3Tr/v2D7ruERKjRF9+RlJmVuUSKlrhMx/XUh1V1Kq+5Lp/MNC5p4QMrdcSNUl0uoXiZTaIKR6Tkj1GyHVJiHVG0KqnUKqjJBqz9DDvDbvmc/MMGbY5wa/m1a/GBzX4DhzT5jfML9lftP8tpkGMy1mmsy0mWk00xr4QJlAEiABEiABEmhmAqM36kMTvdmPiVR+ppDqKiFzfyekekCk1GohVToh868LqSwhlQ7Zwxqa9vTQvDwwNG9XmXk182zmvZnZ89skQAIkQAIk4F0CWo9ISvv4pMy3JtPqymQ6941kWt2fSKmeIUD2hwzsbopIv8nAZGEyGcrmysGspH18i9YjvFswjJkESIAESIAEXErgmF59lOkKF1J9RaTUD4VUz4R0691NyDcyLtPz8cxQll8x2ZqMXVpcjIYESIAESIAEaktgsNs+pcYkUurSpMzdmUzllgmZ2xLjLflGIF/Hd3NbTOYme7MMzLEH7E6orYYZmgRIgARIwEECZn91IqUuE1L9QEj1rJAqD+wDd0yCWSZm2fzALCuzzBwsWgYhARIgARIggaEEOvXIpFQThFTXDx5Vn85tBfaBg72zXoN0buveMyPU9WaZtnTqkdQ5CZAACZAACQwmcOR6/aFEOj8nmc7dJqTqGDo9zhlgwndkftzny5zu2GGWtVnmZtmzGpAACZAACcQlAa1HiA1qsjniXEj1lJAqzkfhx10IzLJ/arAWNqjJnHUQl0aA+SQBEohNAqOe1smkVJeLtHpISPUWXfoh7dL3vsflLVMjplZMzcRmBWFGSYAESCAyCXTqkUen8tOEzC1JSpUSUg0AfaBfYw0M7K2d3BJTSxw/EJnWgRkhARKIWgIf6dUfNltuyVT+ESHVrhob+7h3hTP/1XsXdpnaMjVmai1q6w/zQwIkQAKhSuCoF/QHEzJ3sUjlHxdS5YA+W/k+1UDO1JypPVODoVppmFgSIAESCGsCok9/QKRzi4XMPyrSyvapwWcLufoWcjwzGqxBU4u5xaY2w7peMd0kQAIkEMgEzN3lEqncAiHzSzlNj638AEtfxtSoqVXuiBjIpoSJIgESCEUCWo8YtSHfJqR6UEi1O8CNfjy3fOkRqLbcTc0+aGqY0wtD0eIwkSRAAs1OYO897/O3DN2Xvlojy+eAOAw1sCmRyt9iarvZ6xe/TwIkQALBSmCpPkSksvOEzD0hpNrD1j7d/BGtgT2DNZ7KzmtZqg8J1krI1JAACZCAjwmIPvsEIXO3C5nfHNEGPwxbp0xjU3pRTM3nbjfrgI+rHD9FAiRAAk1MoFe/N5nKLRRSreACPWzpI36DF6laYdaJll793iaumfw0CZAACXiTwDG9+iizH1RItY1GH/BTAyVrYJtZR8y64s1ayFhJgARIwMcERsnsx5Np9T0hlUWjX7LRpwu+KV3wgV4WlllnzLrj46rKT5EACZCAOwmMSuenCpl/jLvtBRo0yEew5aPfrENmXXJnrWQsJEACJOBVAkv1IUP799eztQ/4qQFXa2D94HECnD3gVevFeEmABOpJYPDyvCl1nZDqZRp9Vxt9ttCDvYXejOXzijDrGpcdrqep4jskQAJuJXDkev2hoQP7dgB+wE8N+FoDO8y6Z9ZBt9ZnxkMCJEACVRMwWx/JdP4mIdVbNPq+NvrN2OLkN4PdC/HW4LpIj0DVdosBSIAEGkjg+E59mEirGziVD+gjfoGrgW1m3TTraAOrOF8lARIggQMTGL1RH5qU6lqu2Be4Rp+t82BvnTdh+eQ3m3XVrLMHrsX8RQIkQAK1JNCpRwqpruLGPICfLf7Q1cAms+62dOqRtazyDEsCJBD3BLQekUipS4VUL9Hwh67hb8JWJxkFeD15yazL3JI47o06808CDhJIynyrkCod4AYNwNHtTQ3UXgNps247aAIYhARIIG4JmLuSJVP5RwA/W7PUQHRrYHAd5w6EcWvemV8SKJ3AqI36cCFzS4RUWRr+6Db8LFuWbVENZM06b9b90q0C75IACUQ7Aa3fk5TqCpHObS1qGOharb1rlczILJw1kM5tNW1Ai9bviXZjx9yRAAnsSyAh86cJqZ4B/GwVUgPUgGkLTJuwr4HgBQmQQPQSOKbX/qhIq4do9Gn0qQFq4KAaSKuHTBsRvZaPOSKBOCewVB+SkPmvCqkyB630dN+Gs/uW5cZy86YGMqataOGug3EmBvMelQRGSXVyQqpewM8WHzVADTitAdNmmLYjKu0g80ECsUpg8Lr9qdwdQqq805We4QAENUANFNVAXqRyd3B/gVihg5kNewJDF/N5sWhFprvUm+5SciXXONTAi1xEKOxUYPojn8ARUh8hpLpHSDUA/NmSowaoARdrwLQp95g2JvINKTNIAmFLIJHOzRcyt8XFFT4OWzbMI1vw1EBNNZDbYtqasLWPTC8JRDKBUU/rpJD5RwE/W3vUADXgXw3kHzVtTyQbVWaKBMKQgEhl5wmp3vRvpaeBJWtqgBrYVwNvmjYoDG0l00gCkUngmF79fpFSd9MQ7WuI6MatqRuX3Fh3XKyBlLrbtEmRaWCZERIIagJH96mxCaleoAFzsQEDnggUNdBQDZg2ybRNQW03mS4SCHcCWo9IyvzXhFQK+AN/aoAaCGANKNNGtWg9ItyNLVNPAgFK4Ng+6zghVUcAV/iGthqYHyBGDUSyBjpMmxWgJpRJIYFwJpCUuUVCqh00lJFsKBEout6jWgM7TNsVzlaXqSaBJicwaqM+PCHVjwA/4KcGqIGw1oBpw0xb1uTmlJ8ngfAkcExf9pNCqufDutIz3QCLGqAGimrgedOmhacFZkpJoEkJJGTuPCHVrqKVJ6pdhMwX3d/UQHxqYJdp25rUrPKzJBDwBLQeIWRuCdfxZ8sJ+aMGIloDA6aN4yyBgLOIyfM3gWOf0n8gZG55RFd6tvLis5XHsmZZO6iB3HLT5vnbyvJrJBDABMzFM4RUrwF/tvqoAWogRjXwGhcOCiCQmCT/EkhKdYVIKztGK72DrQMgQD1QA7GogbSyTRvoX4vLL5FAABIYvVEfmpTqu7FYyekSRXqoAWqgQg2YttC0iQFompkEEvA2gcSzWgip1gF/tvKoAWqAGthXA+tM2+ht68vYSaCJCRy9IfdpIdWrrPT7Vnq2jCpsGVEn1EnMauBV00Y2sYnmp0nAmwSS6fx0IdXOmK3QAB7AUwPUQC01sNO0ld60woyVBJqQQCKlLuMufmzNIX/UADXgqAaUaTOb0FTzkyTgbgJJmbuVld7RSl/LVgLDslVJDUS8Bkzb6W5rzNhIwKcEBo/0T6v7gT/wpwaoAWqgvhpIptX9nCHgE7T4GXcSOELqI4RUnaz09a305EZu1AA1UFQDnaZNdad1Ziwk4GECos8+gTv50XgVNV50VUe8q5pl7cv6/rxpWz1suhk1CTSWwNEb1Dgh1TYaBF8aBMAKWKmBeNXANtPGNtZK820S8CCBUen8VG7jC/iRP2qAGvC0BnaZttaDJpxRkkB9CSRkfpaQKsOK7+mKz9ZevLb2WN4s73I1kDFtbn2tNd8iARcTEDJ3rpAqC/yBPzVADVADvtVA1rS9LjbljIoEaktApHIXCanyrPS+rfTltgh4n61FaiB+NZA3bXBtrTZDk4ALCQiprhJS9QN/4E8NUAPUQNNqwLTBV7nQpDMKEnCWgJDqeiHVACt901Z6tvbit7XHMmeZl6sB0xZf76z1ZigSaCABkc7fDPgBPzVADVADAauBdP7mBpp2vkoClRNIyNz/ZaUP2ErPVlG5rSLepzZiVwOmja7civMpCdSRAPAH/MgfNUANBL8GkIA6AMdXyidAt3/wV3oaZpYRNUAN7KsBdgeUBxqfOE9g6IC/2HWl7VuR6EZl2VMD1EA4a4ADA52jjiGHJzB0qh9H+4dz5afRZrlRA/GuAdN2c4rgcLDxd/UEhi7yw3n+8W5AAAjLnxoIdw30c7Gg6rxjiKIEhi7vyxX+wr3i03Cz/KgBasDUQJ7LBhcBjpflExi6sQ/X9qfhAB7UADUQnRrIcgOh8tzjk5aWlqFb+nJXv+is9DTgLEtqgBoo1ECGWwmD+pIJHL1BjRNS7eLod04logaoAWogsjWwy7T1JSHAm/FMQPTZJwiptrHSR3alL2wB8MzWIDVADWwzbX48acdcH5DAEVIfIaR6HvgDf2qAGqAGYlMDz5u2/wAY8Ee8Ehi9UR8qpOpkpY/NSs/WH1t/1AA1UKiBTsOAeFGPud2XQDKt7gf+wJ8aoAaogXjWgGHAPiDwIj4JJGXuVlb6eK70LHeWOzVADRRqwLAgPuRjTlsSKXVZYeHzTENADVAD1EC8a8AwATTGIIFkOj9dSKVY4eO9wrP8Wf7UADVQVAPKsCEGCIzvLB69IfdpIdXOooVeOBiEZw4MogaoAWog3jWw0zAivoSM8JwnntVCSPUq8Mf6qQFqgBqgBsrUwKuGFRFGYfxmbeh0v3VlFjjWH2/rZ/mz/KkBaqC4BtZxemCEPCEp1XeBP8ZPDVAD1AA14KQGDDMihMD4zkpSqiucLHCGoWGgBqgBaoAaKNSAYUd8yRmBOT+6T40VaWUXFijPrNzUADVADVADjmogrWzDkAigMH6zcOxT+g+EVK85WtDs/yre/8Vr6oEaoAaogb018JphSfwIGuY51nqEkLnlwB/TpwaoAWqAGmisBnLLW7QeEWYkxmrahcwtaWyBB3eFGdvxG/32rJbAP/qvOUrzCHYG6vIPB76OwlDrzZrGU9bYbKX71lOTWxIriIZ1ZhMyd56QagABaK4kAP9gw98sHwSguetIo+LQviyjkQDfNtYGDFvCysVYTPcxfdlPCql2RRX+Zr7oAQg+WMMiPwhA+AUACfBNAExvyy7DmFjANGwzOWqjPlxI9XyU4Y8AAH835QIBiIYAIAG+SsDzhjVh42Pkpzch1Y+iDn8EAAFAAMIN7Ua7/Yu/b8Bf/GB3gD8iYFgTeaCGaQaTMrcoDvBHABAABAABKEhAMfwLr5EAfyTAMCdMjIzstB7bZx0npNqBAASrYXQTVIzLG/FhF0Cw1pkC2J0+F6A//BkJ8EUCdhj2RBasoZixwfP9VUdc4E8PgDcgjKtgIADRFAAjBEiALxLQwfUBmmgKSZn/WpzgjwAgAG7KCgIQXQFAAnwRAG0Y1EQExvenB6/zL5VCAILZiLkJKsbljfggAMFcdxrdBVC8S4CeAM9FQHG/AJ895Jhe/f6EVC/EDf70AHgDwrgKBgIQfQGgJ8BzAdCGRYZJPmMwvj8nUuruOMIfAUAA3JQVBCAeAoAEeC8BhknxJbKPcy5S2XlxhT8CgAAgAOGGttPufSfDFXf1O3nN7gCPRSCVnecjCuP3U6Oe1kkh1ZsIQPAbQTdBxbi8ER96AIK/HlUSASfQHz4MEuCpBLxpGBU/Mvs0x0LmH40z/OkB8AaEcRUMBCB+AmCEAAnwUgLyj/qEw3j9TCKdmx93+CMACICbsoIAxFMAkAAvBUBpw6p40dnjuT1C6iOEzG1BALgboJsAjPu4EID4CgAS4KUE5LYYZnmMxfiMXkh1D/DfW7DcDpheALfEBQGItwAgAV5KgLonPoT2cE6TMt8qpBpAABAAt8DHePZKFAKAACABnknAgGGXh2iM/qiP79SHCaleBP77i5QeAHoA3BIYBAABMAKABOxvX11mzYuGYdEntUdzKFK5O1xeIDrs40MAEAAEINzgrnRqXy2fFeDt1jNnB3ggAqncHR7hMdqjHSXVyUKqfNiB7fb0IwAIAAKAABhRcAv8xeNBAlyXgLxhWbRp7fbcLdWHJKTqdRueURgfAoAAIAAIgFcCYGQACXBXAgzLWpbqQ9zGZGTHl5D5r0YB1l7MAwKAACAACICXAoAEuCsAhgOGaZEFtpszdkyv/VEhVcYLeEZhnAgAAoAAIABeCwAS4LoEZAzb3GRlJMcl0uqhKIDaq3lAABAABAAB8EMAkACXJSCtHooktN2aqYTMn+YVOKMyXgQAAUAAEAC/BAAJcFcCDOPc4mW0xqP1e4RUz0QF1F7NBwKAACAA8RKAXWe/T79zxcf17i+N1e/eeIZ+9+azdWbJRfrff5XVy1619WO/yer//wVb3/2crb+dtvXfPmPra9dY+uyhc/wNxBt9cGCgayLwTIvW74kWvF2Ym6RUV3gFzSiNFwFAABCAaArArnkf1O9+tVVb/3SNzj76HZ1/Zpnuf+M1rQcGdKl/dnaPfuPNTNnHtu0ZvWW7rV/cZuu1r2f1Q7+29c1P2XWLARLgjgQY1rmAzOiMYtRGfbhI57ZGCdRezQsCgAAgANEQgF3nfEC/+1dzdPa/7tB7frVe6z35Upwv+141ASgnB9u2W/ql39v656/sFYJaegeQABckIJ3bapgXHYI3OCdC5pZ4BcyojRcBQAAQgPAKwK6FR2nr367Te557Uuu8Kgt3Jx/UKwDDxcAIwa/esPW//dJZ7wAS4IIEyNySBrEZja+LPvsEIVU2aqD2an4QAAQAAQiZAMx9r87cer5Wax9rGPrFYuCWABwgBNstvf53tr5pvVXxuAEkoGEJyBr2RYPiDcxFMpV/xCtYRnG8CAACgACEQwB2LT5aZ//723pg1/Zibrv22hMBKDqm4Hfbbf3AC7Y+e3npgwiRgMYkwLCvAXSG/6tDt/oN/Q16/BQNBAABQACCLQDvXHqCzj3xPa1V1jXYlxqR1wJQ6BnYut0aPNPg3BUHiwAS0KAExPaWwVqPEFKl/YRnFH4LAUAAEIBgCsA7n/+UVivvr/lgvlJwd/KeXwJQEIE3tlv6Z6/Yev7KA0UACWhIAtItWo8I/+Z8jXOQSKlLowBkv+cBAUAAEIBgCcCueYfr7MP/4Bv4C3LguwAM7R4wPQLmmgPFZw8gAfVLgGFhjfgM+eCdeqSQ6iW/4RmF30MAEAAEIDgCkPnmIt3/5u8KTPb1uVkCUOgRMKcS/tna/QcLIgF1S8BLLZ16ZMip7nzyhVRXRQHGzZgHBAABQACaLwDvXP4ngxfq8ZX4w36s2QJgRMBcbKhzU1YXjg9AAuqWgKucEzTEQ47eqA8VUm1qBjyj8JsIAAKAADRXAKxvXaYH7HeH4dj/P4MgAIXeAHPGwHVDvQFIQF0SsMmwMcRodzbpSamujQKImzUPCAACgAA0RwB2nf1+nVv+I/9JX+YXgyQAe3sDLP3D5/ceG4AE1C4Bho3OKBrSoY7v1IcJmd/cLHhG4XcRAAQAAfBfAHZf9Rnd/9rGMihuzttBE4BCb0DvZntwlwASUKsE5DcbRoYU79UnW6TVDVGAcDPnAQFAABAAfwUgc/tiPZDNNIfyFX41qAJgROD17ba+ssvSSECNEpBWN1QnaQiHEH36A0Kqbc2EZxR+GwFAABAA/wTA+tc/K3s3vgps9uWjIAuAkQBzuqA5LgAJqEkCthlWhhDxlSc5mc7fFAUAN3seEAAEAAHwRwCyD3zTF5DX+yNBF4DBXQLbrcFbECMBziXAsLIyTUP26ZHr9YeEVG81G55R+H0EAAFAADwWgNkjdO5/v18vl337XigEYPBUQUvfKW16AqRjCXjLMDNkmC8/uYlU/pYowDcI84AAIAAIgIcCMHuEVh0P+gbxRn4oLAJgegLM9QK+04cEOGWIYWZ5oobok6F9/zuczjjDVbZEBAABQAC8E4DcT/6lESb7+t0wCcBeCbD03z6DBDhk3I5IHAsgUuo6hzPMXQEddBEhAAgAAuCNANg/+rqvAG/0x8ImAIVjAr7CgYHOWJdS14VoW7/EpC7VhwipXkEAKm/V15IPAoAAIADuC4D1D19olMeef3/A2q37X/+1zqc7tVr9gP75ppxe93pWP7fV1q+8aevN221t7tg3CNqhG/cE8bU5O+DznCLoRAJeaVmqDylB1nC8lUzlFtYCN4atLgoIAAKAALgrAO/efJbW/Xs8B3gtP9C/6XmdfWiJfvemmdrcZnjXuR/Sb886cL6L78ZX/Hreioy+do2l70jZ+tHfZLW5aY/ZBx8kGTCysmhVhgMDq/T6GoaGg/YlplJItR6oV4d6LRkhAAgAAnAgCIeDsZa/37nkeD2we2ctbPZm2IEBvWfjOm3f8zX9zpWfOAj2peapGPrVXhvY/vvztt74hpGBYPQSmJ4LM92cIliREetLoDX4b41K56fWAjaGrVgE+7qLEAAEAAFwSQDmHqr3vPC0N0B3ONY9v35GW/94td61OOkI+sUiUA365T4/e3lG/2Pa1nJLtuk9Az9+EQmoxj7D0uATf9gUCpl/rNqM8bkz6BfnhAAgAAiAOwKQe+yfHGLa/cH6N/9GZ26/QL89+z01g78gAeUAX8v716yx9LNb7abtHjC7Jv7qKYuegIq7AvKPDcNrsP8cJbMfF1L1F4OL17XDvlRmCAACgAA0LgCZb8x3n+oOxjiwc5u2/uXL+u25760b/G4KQEEWDITNsQLNOE5gy3Zr8HgAMy3sDijJiX7D1GBTv2jqkmn1vVLw4r2SC3df976TfBAABAABaEwATHe73/v9B+x3dfY/v6F3zTu8YfB7IQAFEfh22h68kY/fIpDekh3sBUACSjPCMLUIscF9eUyvPkpIZTmBGcOUXtiVckEAEAAEoDEB8PtKf+a0vXr28RdAX+65AG0vnpe+6P+ZA3+3Ye/xAEhASS5Yhq3BJf/QlHHZ35ILr6atfAQAyLsF+UrjUZd/2LWt0XKQCtr77/7FDAcd9e4Nkvufu13p7i+VoxfgLx6nAbKf1xUwpwaevSxDT0CZ4wGCf3ngXv1ebvmLAJjGqhJ4+CwYghM7AZh7qO5//QX36F5pTP17tPVv13kqWMWw9uq1OUhw8AJDPl1Y6H9e3t8LYOaJYwIO4Mm2ll793sD2AnDhnwMWlmtb/cU9AuwCCAY8oyAxcRMA+9//uhKyXfvMHF/w7k2zPIW/kWyvoD98vOYaAr/e5s8BguYaBV/o2XtWQGE6kID9XAn0hYGEVCuKYcXr/QvOrSwQAATALfmIkwDsukDogazlGuTLjchcqtfphXxKdevX8l4BkH49d2/K+nKWwC+HLhBUPF9IwD6WrAhkD4Dos08QUg24BTrGs2+BH9CTgAAgAAhA7QcBZpd+qxyzXXu/f+sretfCozzf8i9IQjEg/Xq97FV/egLMpYyHzxMSMMiEAcPawEmAkLnbgXZpaLuZCwKAACAAtQnArvlHanMjHS//DVjv6N1fPNE3+Pu5C2A4iP24cFCq6LTA4t9HAgxjcrcHSwAG7/qX3+wm6BhXaZlAABAABKA2ATDn33v6b6BfZ26Z5yv8mykA567I6N+aOw96eGCguULg8GMBCiKABOQ3B+ougSKVnQewSwPb7VwQAAQAAXAuALvmfVAP7N7hKf/tH/6V7/BvpgAYEJvb+Xp9iuBTvzvwjICCAJjn2EtAKjsvML0AQuaecBt0jK+0UCAACAAC4FwA7B/8hafwV6sfaAr8my0ABsK3POPtxYLMGQGfW73/ugDFAoAE5J4IhAAc22cdJ6TaA7BLA9vtXBAABAABcC4A/b/9lWcCYO4k+PZZh8VWAAyE/+N5b3cF/OSl8r0AMZeAPYa9TZcArvznD/gLIoEAIAAIgDMB2P1nEz2Dv+7fo9/5wqebBv8g9AAUtsiff8M7CTDHGhR+p9xzXHcHNP/KgFqPEFJtKsCJZ+9lAAFwJgD6uRbNo3IGAxtG6v5lH4nsY2DTPZ4JwMDr95XNzcDZj0c5IPr9/nVrLW0O2vPqoMCvrD34lMDh8xhTCdjUovWIpvUCjNqQbwP63kO/OGMEAAFwS2wiLQDLE1qrt7wRgD2W7u/8FAJQdN3+ZzZ71wuw5rf77xQ4HPzFf8dRAgyDmyYAQqoHi+HEa+9lAAFAABCA6r0WA6lLvIG/1nrg5W+Xhb/pUfFj6z9IuwAMhC/rNL0Alie9AFu3V+8BKIhADCXgwaYIwHHr9PuEVLuBvvfQL84YAUAAEAAHArD5v7wRgNybun/VHyIARVv/Bfiues27XoC/ebr6sQCF6YiZBOw2LPZdAhKp3IJiMPHaHxFAABAABKC6AGh7iycCMPD8TRXhH9ceAAPf+Ssznl0bYPmrzgXATEucJMCw2HcBEDK/FOj7A/3inBEABAABqCIAa8Z7An9tbdL9yxMIQImt/8LW96O/8eaGQS//vjYBiJcE5Jf6KgCiT39ASJUpBhOv/ZEBBAABQAAqC8DAxhs9EYCBV/6xKvzj3ANgoLtodcaTMwLM8QVnLy9/UaCCgAx/jklPQMYw2TcJEOncYoDvD/CH54wAIAAIQBUBeOOnnghA/y9mIgAVtv4L8DVb616cErhkQ+29AGaaYiEB6dxi/wRA5h8dDib+9kcIEAAEAAGoJABHap3b7r4AZN/Q/cuORAAcCIC5ep8XAtC5ydnpgAURKX6OvgTkH/VFAI56QX9QpJUN8P0B/vCcEQAEAAGoIABdn3Uf/ubUv9/+yBH8474LwEB38EZBHtwp8MVt9fUAFEQg0hKQVrZhs+cSkJC5i4dDib/9kwEEAAFAAMoLwMAz53sjAL0LEQAHW/8F2L7+pvu9AFscXBa48PvlnqMsAYbNnguASOUfB/j+AX941ggAAoAAVBCA57/mvgDkd+v+FQIBqEEAVntwTQBzueFyYK/l/chKQCr/uKcC8JFe/WEhVW44lPjbPyFAABAABKCCAGz6vusCMLD1McfwZxfAXkj/+Tpvrgp47RrnVwWsJAURlYCcYbRnEpCU6nJg7x/sS4D6RrkAACAASURBVGWNACAACEAFAdje4b4A/OovEYAatv4L4H3Dg0sD/9svGzsOoDBt5jmKEmAY7Z0ApPKPlIIS7/knBQgAAoAAlBcAbf3WfQGQlyMAdQjA5u3uHwfws1fcE4AoSkAylX/EGwHo1COFVLuAvX+wL5U1AoAAIAAVBKA/67oA9K+fgwDUIQCveHAg4LrX6z8VsHjrv/h1xHoCdrV06pGuS8DRqfy0UkDiPX+FAAFAABCAMgKwfJTr8Dcj7O8+CQGoQwCe3ep+D8CGLe72ABREIEoSYFjtugAImVsC7P2Ffam8EQAEAAEoIwCrT/BAAAZqOgOAgwD3H6m/9nX37wvw3BveCEC0dgfklrguAEmpUqWAxHv+SgECgAAgAGUEwIuLAOW217T1jwDsF4DHX3a/B6DRiwEVtvjLPUehJ8Cw2lUBGPW0TgqpBoC9v7AvlTcCgAAgAGUE4Mkp7vcAvPMcAlBH978B7L0b3ReAV9/0rgegIAURkIABw2zXJIDT/5oP/oIMIAAIAAJQRgDWz3JdAAbeXIUA1CkAt/W6LwDmCoMFUHv5HHYJcPV0QJFWDxUAxHNzZQABQAAQgDIC8PTZ7gvA1kcRgDoFwIuLAf3OhcsBOxWHUEtAWj3kTg+A1iOEVG8B/uaCv5A/AoAAIAClBWDg6XMQgDph7RSKtQznhQCYawvUMg2NDhtiCXirResRDUuA2KAmF+DDc/MlAAFAABAABODtWS2+grAekEZBAMx8h1YCNqjJDQtAMp37BuBvPvgLywABQAAQAAQAAdh/tkE9clLrd8IoAYbdDQuAkOqpAnx4br4IIAAIAAKAACAA/gpASHsCnmpIAI5crz8kpOoH/M0Hf2EZIAAIAAKAACAA/gtACCWg3zC8bglIpPNzCuDhORgSgAAgAAgAAoAANEcAwiYBhuF1C0AynbsN8AcD/IXlgAAgAAgAAoAANE8AwiQBhuF1C4CQqqMAHp6DIQIIAAKAACAACEBzBSBEEtBRnwDsvf1vBvAHA/yF5YAAIAAIAAKAADRfAEIiAZm6bg+clGpCATo8B0cCEAAEAAFAABCAYAhAGCTAsLzmXgAh1fWAPzjgLywLBAABQAAQAAQgOAIQAgm4vmYBSKbzDxegw3NwRAABQAAQAAQAAQiWAARZAgzLaxYAkc5tBfzBAX9hWSAACAACgAAgAMETgMBKQDq3tSYBSPRmP1YADs/BkgAEAAFAABAABCCYAhBUCTBMdywBiZS6DPAHC/yF5YEAIAAIAAKAAARXAIIoAYbpjgVASPWDAnB4DpYIIAAIAAKAACAAwRaAAErAD2oRgGcBf7DAX1geCAACgAAgAAhA8AUgYBLwrCMBGL1RHyqkyheAw3OwRAABQAAQAAQAAQiHAARIAvKG7VUlIJFSY4B+sKBfvDwQAAQAAUAAEIDwCEBQJMCw3YkAXFoMHF4HSwYQAAQAAXBfAAYGBvTOnbv0K6/+Vm9I/VKv6lij//uRJ/T3/+Wb+o6vna3/8rqF+sYvX+DoccOiBdqPxzlX3qjPnPe5QD5mzr9ct198rf7T627Sf3nLHfrOf7pH3//Q43pV1zP61y9v1W+8manrsXm7rQ1Qw/g4ZY2tm8nTREpdWlUAkjJ3ZzMnkt+uLBwIAAKAALgjALt3v6u7e36hv/2Pd+tLrrxOL7zo6lA9zllwuT5jzvmhfMw+50L9pa/8tf7xIz/XW7btdiwDYRaAZvcEGLZXF4BUbhkQrgzhZuaDACAACED9ArDt92/q//nZKv233/y2XnzJNaEC/nBBCbMAFIvLjPaF+vIvXq+/d+9D+pVN2yvKQNgFoJkSkEzlllUVACFzW5oJOH67snwgAAgAAlCbAPT39+uVq3v0jTfdFmrgR1UAimWgtW2+vvCyL+kVHU+VFIEoCEDzJCC3paIAHNOrjwLAlQHc7HwQAAQAAXAuAE/3pvVXbrwlUuAviEBUegCKBaD4tekVeDr1wgEiEBUBaJYEGMaXlQDRl5/RbMDx+5UFBAFAABCA6gLw69+8rG++9VuRBH9cBMDIgOkRuO7GW/QLL20ZFIEoCUBTJKAvP6O8AEj1FQBcGcDNzgcBQAAQgPICsGXrtsGD+gqQjPJz1HsAinsDzHECt3zzLv3a1ndCeQaAgX25h89nB3ylvACk1A+bDTh+v7KAIAAIAAJQWgB+fs9ivfiSL0V6q79YaOIkAAUZaDvvc7r9vmfLwrQcZIP+vm8SkFI/LC8AUj0DgCsDuNn5IAAIAAJwoAConx+pf3DrmbEBf0EC4igARgSmz12o5/7Dz5AAWRerniktAFqPEFJZzQYcv195oSIACAACsF8Adv1U6L+94bzYwd9IQFwFYG9vwHzd9rV/RQJqlwCrResRB0lAUtrHA9/K8A1CPggAAoAA7BWA3/74j/SXr/5cLOGPAOy9ANLsK/9Ct/9sV6REwOvdAYb1JQQg3xoEwDENlSUEAUAAEICP6N57R+tLL7sytvBHAPZfAXHmgit1+3//Fglw2BuQlPnWgwUgra4EvpXhG4R8EAAEIO4CIP/9U/qCz30x1vBHAPYLgNklcOa5l+j2x7cjAQ4kIJlWV5YQgNw3ggA4pqGyhCAACECcBeD1H39UX355vLf8DfwRgAMFwEjArIuujZQAmDMXvNgdkEznvlFCANT9wLcyfIOQDwKAAMRVAN55PKGv+9OLYr/ljwAcDP+9Bwaer+dc+00koEovQDKt7j9IABIp1RMEwDENlSUEAUAA4igA+Z8fqW+78VzgX3THwnifBVBeAube+p9IQAUJMKw/WABk/nXgWxm+QcgHAUAA4igA9942A/gXwZ9dAOUFwFw+uP27PUhAGQlIyPzrBwjA6I36UCFVfxAAxzRUlhAEAAGImwAs/+dxwH8Y/BGA8gJgdgdMP+sC3f7QS0hAaQnoN8zfJwGJ3uzHAG9l8AYlHwQAAYiTAGx75Fh90SVfQAAQAF3Yz+/0OYoHBbp1YKBh/j4BEKn8zKAAjumoLCIIAAIQJwH455vnAP8S8KcHoHIPQEES2v+1K3K9AK5IQCo/c78ASHUV4K0M3qDkgwAgAHERgFcePEEv4nz/sgLEQYDVJWDwIkEV7sQX9JsEVZq+Bk8RvKpIAHJ/FxTAMR2VRQQBQADiIgDfvHFeWfgVToWL8zMCUF0ATE/A3DseiWQvQGM9Abm/KxIA9QDgrQzeoOSDACAAcRCA9I8+BfzLdP0XpAcBcCYAZ867WLcv240EHHhA4AP7BSClVgcFcExHZRFBABCAqAvAnmUf0V/98gUIAAJQ84F/hX3/w5/bvn5PZAWgrp6AlFq9XwCkSgPeyuANSj4IAAIQdQHo/u4Y4F8F/hwE6GzrvyACM8xpgf+zEwnY3wuQ3icA5sIAQQEc01FZRBAABCDqAvA315+PACAArm39FyRg7u0/jrQA1NITcMDFgIRUFuCtDN6g5IMAIABRFoC3fyq4058D+NMDUFsPgJGA2ZfdEHkBqEECrMEegOPW6fcFBW5MR3UJQQAQgCgLQMe/ncLWPwLg+ta/EYDp7YsifTCggX/h4eQUQcP+lmP7rOMAb3XwBiUjBAABiLIAfOumsxAABMATATASMPc7K/dBsgDLqD5XkwDD/pZESo0JCtyYjuoiggAgAFEVgOz/HqUvvvTzCAAC4JkAzPnizbERACM2lSTAsL9F9OVnAN7q4A1KRggAAhBVAXjm3tHA3yH8OQag9mMATA/AjHMuipUAVJSAvvyMlqTMLQoK3JiO6iKCADgTgIEnDtU8KmfQ/9P/o/c8cXhgHt+9+UwEwIEALLjwKn3uwiv1mXPn6/GnzdCTp83Rp515lmdbzQacUXrM/eEGJEAqbdhvdgFcA3irgzcoGSEAzgSg/xqGq5aBuvzD+u1ZLYF5XL34cwhACQE4/4LP6zlnL9anz2jXE06drsdNPmPw8dmxk/QJn/jUAY8/+fSJ+jOnTNQTps6MFLTdFJC2P78rdgJQqifAsL9FyPzXgwI3pqO6iCAAgL0a2J1+HiQB2DFrhF500RcRgCIBOOu8i/VprW37gF8Af+G5lAAUC8Eff3L0oAxMPfMcZKCoF2P2F/4qlgJwsATkv94ipLoL8FYHb1AyQgAQAKeArzZckATg1TkfAP5D8J+34HI9dXp7WfA7FYCCDPzxJz+tTxo/RU+bdS4iMOd8PetzX46tAAyTgLtaklLdFxS4MR3VRQQBQACqgd3p50ESgPTcUQjARVfrGXPOrwr+WgWgIAIf+9RnBo8XcLM7PYzjmjn/ilgLQEECDPtbkun8w4C3OniDkhECgAA4BXy14YIkAF1nHR9rAZi/+Cp9+oyzHMPfSEC1XQAF8Bc/m96AcVNaY90TMOPsC2MvAEYCxvVYfS1C5p4ICtyYjuoiggAgANXA7vTzIAnAT86J7ymA5y36vJ4ybXZN8K9XAAoyYHYJhHHr3Y1pbm1bgAAsy+gzVlvbjAAsB7zVwRuUjBAABMAp4KsNFyQB+I9zx8eyB8Cc0lcP/BsVACMCJ088PbYS0P6TbbGXgDNWW9vNQYBdQYEb01FdRBAABKAa2J1+HiQB+Kfzp8VSAGrt9i/s/3dDAIwExPV0wTheC8B0+xc/WlfZb7eItPoF4K0O3qBkhAAgAE4BX224IAnAbQvaYicAZ7bNr7nb320BMKcKnja9PXY9AXP/4WcHwLAYjHF5PX2VtdtcCGhDUODGdFQXEQQAAagGdqefB0kA/nZBe6wE4LxFV+rxU1qbLgCmF+DTJ42NnwB866exF4AZqyzL7AJ4DvBWB29QMkIAEACngK82HAJwddOkY9qZZzcEf7d2ARQOCjSXE3bjALuwjGMuAqDPXGlljQD8JihwYzqqiwgCgABUA7vTzxGA5gjAvAWXNQx/twXgkyeejAAM20ce9V0BM1daygjAJsBbHbxByQgBQACcAr7acAhAcwTgjJnnBE4ATE/A5DPi0wtAD0BGz1ph7TEC8EZQ4MZ0VBcRBAABqAZ2p58jAP4LwIILv3jADX2KD+qr9XU9FwIqdPmXev7suMmx6QVAADJ69opMvxGAnYC3OniDkhECgAA4BXy14RAA/wXgrPMucWXr3+1dAEYIPj76JAQgRrsB5izPDBgByAQFbkxHdRFBABCAamB3+jkC4L8ATJ99XmAFwEjAaTPOioUE0AOQ0W3LM9oIwB7AWx28QckIAUAAnAK+2nAIgP8CUOn2vs3eBWAEYNyp0xGAmPQCzF2GAOiggN3pdCAACEA1sDv9HAHwXwAmTZ0Z6B6AkydORQBiJgDsApD0ALw9q0W7+XAKIYZrntAgAP4LQKMX/ynuJXD7IEDTA/DZsfE4EJBdAPt3AXAQIALgKvyNSAD25oHdafYIgL8CMH/xF1zb+vfiIEAjAKNPHk8PQEx6AAoHAXIaIAKAAFwTfGA7BbvT4RAAfwXg/As+H3wBGDMOAYiJABROA+RCQAgAAoAAuF4DtexSisO9AMw1AIq78Bt97cUugM+cMhEBiIkAzFph5c1ZAFwKGAFwvfF3uhXKcM3reaAHwN8egIUXXe3aRYC82gVw0vgpCEBMBKBwKWBuBoQAIAD0ALheA/QAHCwYU6bNdq0XwIsegLGTz0AAYiIAgzcD4nbA4TkDwJwqyGmAzdtijlpvBT0ABwPabKV7+WiddW6gBWDK9HYEICYCMGOVlWkRafULp+egM1zzZQEBQADcEhEEwFvYlxKJtnMuDKwAfOxTn4kF/M0tizkNMKOnr7J2m2MAugB788HudBkgAAgAAuA/uEvBvJ73zJkAbl0LwO1dAHE5BRAByGhzq+PW1dbOFiFzy53Ch+GaLwoIAAKAAIRXAIw0TJ/tzm4AtwUgLt3/CMBeAThjtbXdCMATgL35YHe6DBAABAABCLcAuNUL4KYAxGnrHwHYKwDTVltvtCTT+Yedwofhmi8KCAACgACEWwD29gI0fldA9wTg0/q0mBz8Z+CPAAwJQIf1u5akVPcB9uaD3ekyQAAQAAQg/AKwtxdgekMHBLolAJ85eUJsDv5DAPbC3xwDMLXDeskcBHiXU/gwXPNFAQFAABCA8AuA6QWYMef8pgvAH3/y0/q0GWchADE59c+Av/A4tSu7oUXI/NcBe/PB7nQZIAAIAAIQDQE467yLmy4AHx/92djBn10AeyVgSpe9siWRUtc4hQ/DNV8UEAAEAAFAANy6FDACsH+LuLBlHJfnST32gy1JmVsE2JsPdqfLAAFAABAABAAB2HswX2Gffq3PXAgooyd2Ze9qEX35GU7hw3DNFwUEAAFAABAABAABaLSnYly3daPZBTAGsDcf7E6XAQKAACAACAACgAA0LABrrEUtx/ZZxzmFD8M1XxQQAAQAAUAAEAAEoFEBOHltZkLLcev0+wB788HudBkgAAgAAoAAIAAIQKMC8Jl1u45sMf+EVJZTADFcc2UBAUAAEAAEAAFAABoRgLblGT0If/NfQuZfB+zNBbvT/BEABAABQAAQAASgEQGYtSKzZ58ACKnSTgHEcM0VBQQAAUAAEAAEAAFoRABmrLKs/QKQUqsBe3PB7jR/BAABQAAQAAQAAWhEAFpXWzv2C4BUDzgFEMM1VxQQAAQAAUAAEAAEoBEBOL3DerVIAHJ/B9ibC3an+SMACAACgAAgAAhAIwIwpcteWyQA6iqnAGK45ooCAoAAIAAIAAKAADQiAJO67fv2C0AqPxOwNxfsTvNHABAABAABQAAQgEYEYHyP9bV9ApDozX7MKYAYrrmigAAgAAgAAoAAIACNCMC4J+3p+wRg9EZ9qJCqH7g3F+5O8kcAEAAEAAFAABCARgRgdKc+fJ8AmBdcDCj48DeCgAAgAAgAAoAAIAD1CsABFwEqWEAipXqcbIEyTHNFAQFAABAABAABQADqFYDWVfbbBe7ve06m1f3Avblwd5I/AoAAIAAIAAKAANQrAFM7rJf3gb/wIpnOfcMJgBimuZKAACAACAACgAAgAPUKwJQuu7vA/X3PybS6Erg3F+5O8kcAEAAEAAFAABCAegVgYrf9w33gL7xIynyrEwAxTHMlAQFAABAABAABQADqFYDxPdb1Be7ve05K+3jg3ly4O8kfAUAAEAAEAAFAAOoVgHFr7Kn7wL/vhdYjhFSWEwgxTPNEAQFAABAABAABQADqEYC25Rnd2qlH7uN+8Qsh1TPAvXlwd5I9AoAAIAAIAAKAANQjANNXWe8WM/+A1yKlfugEQgzTPElAABAABAABQAAQgHoEYGqH9esDoF/8h5DqK8C9eXB3kj0CgAAgAAgAAoAA1CMAk7uyjxYz/4DXoi8/wwmEGKZ5koAAIAAIAAKAACAA9QjAuG7rxgOgX/zHMb36KODePLg7yR4BQAAQAAQAAUAA6hGAMWuynyhm/kGvhcxtcQIihmmOKCAACEAUBeDWBXP1wouiAXan83HWeRdrA/J6H58dO0mf8IlPNfT4+OjP6jPmNAbTMH5/7p2P63oAGubvzFqR6T8I+MPfSKZyy4B7c+DuJHcEAAGIogB8a/4MBKBGGUAA6heX9u/2xE4AzlhtvTmc9wf9nZS5O52AiGGaIwkIAAIQRQH4wXmTEQAEwLfeiPYfvxI7ATi10376IOAPfyORUpcC9+bA3UnuCAACEEUBWDrvJAQAAfBPAJbtjp0ATOy27x7O+4P+TqTUGCcgYpjmSAICgABEUQBWnP0nCAAC4IsATG9fFDv4m2MXxq2xFh0E/OFvjN6oDxVS5QF8cwBfLXcEAAGIogA81X5M7ATgnPmX6dNa59b9GDflDP2Jz4xp6DF6zHhfoBukAwXPPPeS2AnA3GUZPbpTHz6c9yX/FlI9Ww1EfN4cQUAAEIAoCsCv2z4cOwFwerZAueHOWXB57ODthkjMuuDq2AnAjJWWXRL2pd4UUv0AwDcH8NVyRwAQgCgKwBuz34sA1HgaJAJQ31kAsy//89gJwNRO61elWF/yvURKXVYNRHzeHEFAABCAKArA27Na9MUXXokE1CABCEB9AjDn2ttiJwATuu3vl4R9qTcTvdmPAfjmAL5a7ggAAhBVAbh54dkIAALg+W6NuUsejp0AjHvSnl6K9WXfE+nc1mow4nP/JQEBQACiKgAPzzsRAUAAPBWA1rYFuv1/dsZKAGY7uQLgcBNIpvMPA3j/AV8tcwQAAYiqALzU9kEEAAHwVABmXfSlWMHfnP43rcP63XC+V/1bSHV9NRjxuf+CgAAgAFEVAHMcwA2LFiABDiWAYwBqPwag7ev3xk4AJnVlH6sK/OEDJKWaAOD9B3y1zBEABCDKAnDfueMRAATAs16A9od/FzsBGNdtXz6c79X/7tQjhVSZakDic38lAQFAAKIsAH1zj0IAEABPBGDmgitjB/+25Rnd2qkPqw78EkMIqToAvL+Ar5Y3AoAARFkAzG6ALy6+GAlwIAHsAqhtF0DbDf8QOwFoXW3tKIF2Z28l07nbqgGJz/0VBAQAAYi6AHz/vCkIAALgei9A+39ujJ0ATOmye5zRvsRQiXR+DoD3F/DV8kYAEICoC8CmOe/XF1/4eSSgigTQA+C8B2D2ZfG7+p85A2B8j/3XJdDu7K0j1+sPCan6q0GJz/2TBAQAAYi6AJjdABwMeHVVAUIAnAlAa9t83f7gi7Hb+jcCMGaddawz2pcZSkj1FID3D/DVskYAEIA4CMC22e/VVy6+tCoEy90oJw7vIwDOBGDOn94SS/hPX2W9Wwbrzt9OpnPfqAYlPvdPEBAABCAOAmB6AR47ZzQCUGE3AAJQXQCmz12o5z62NZYCMKXL7nZO+jJDig1qMoD3D/DVskYAEIC4CMCOWSP0ly9YjASUkQAEoLoAtN3w7VjC33T/j+uxryqD9Rre1nqEkOqtamDic38kAQFAAOIiAKYXoOOsExAABKCuMwJmnLU4dtf9N+A3jzkrMgOtnXpkDaQvP6hIq4cAvD+Ar5YzAoAAxEkAjATcsvAsJKCEBNADULkHYO5tD8R26//0DmtTeaLX+ElSqsurgYnP/REEBAABiJsAbJ79f/SXLrgQCRgmAQhAeQGYc82tsYW/6QGY2GXfUyPmyw8+6mmdFFINAHl/IF8pZwQAAYibAJhegF+1HaEvvfAKJKBIAhCA0gIw68JrdPuy3bEWgLE9uZPKE72OT5JSpSqBic/8kQMEAAGIowAYCVhz1kf1oou+iAQMSQACcLAAnDnvYt3+k22xhv+MVZZVB+Irf0XI3BIg7w/kK+WMACAAcRUAIwFL552EACAAJQ8KnN6+UMfxcr+FA/8Kz6d22usq07yOT49O5adVAhOf+SMHCAACEGcBMBLwj+e3IgEXXa3pAdjfA2Cu9jf3O8tjveVfEIBxPdnr6kB8la/svT3wLkDvD+jL5YwAIABxF4Dts0bo2xa0xV4CEIC9AmDg33bLfwB/c/rf8sHT/+q7/W8VBWhJpvKPlAMT7/sjBggAAhB3ATC9ADtnvUffc97kWEsAAnC+nt6+SM/9p5XAf+j8/2kd1uZqHK/7c04H9AfylWQKAUAAEIAWbSTAPH529if0hRd+IZYiEHcBOPPcS3T7f/4K+A/B3/XT/4abwkd69YeFVLlKgOIzbyUBAUAAEID9AmAkYMNcoT8fwxsHxVkAZn3uy7r98e3Avwj+c5dn9IRu6w+Hc9vVv0Uq/ziQ9xbylfJFABAABOBAATAS8Mqcw/UNixbEqicgrgIw58u3A/4i8BcO/pu22nrDVdiXGllC5i6uBCg+81YOEAAEAAE4WACMBPx+9kj9/fOm6AsvuioWIhA3AZhx9oV67pKHgX8J+A92//fY3y3FbFffO+oF/UGRVjag9xb05fJFABAABKC0ABgJMI+X2j6o75w/Qy8qumrewgi+josAmAP92v7iX3T7z3YB/zLwb1tu7v6XOdpV2JcbmZD5R8sBive9FQMEAAFAACoLQEEEfjn3KH3LwvbI9gZEXQBa2xboOV/+pm7/6e8Bfxnw7+v+9/Lo/+EiINK5xYDeW9CXyxcBQAAQAGcCUBCBde3H6hsXzY+cCERVAMx5/XM+/zXd/uNXAX8V8BcEYEK39Z3hnPbsb9GnPyCkypSDFO97JwcIAAKAANQmAEYEdpqzBdqFvve8SfrLFyyOhAxESQAM9Gcu/IJu++o/6/aHXgL8DsFvBMB0/5+0dnfCM+CXGrGQ+aWA3jvQl8sWAUAAEIDaBaDQG1B4fr7tI/qBc0/RX110fmiPFQi7AJgu/lkXfUm3/c2/6/ZHtgD9GqBf2PI3z6d3WK+XYrSn7yVSuQXlIMX73okBAoAAIACNC0BBBMzzq3M+oB8/51P6h+dN1HfNb9W3LDxL/38XLNKXXXh5oHsKwiIA5iA+c9GeWRdcrWdf9ud6zpe+oecuWarbn9gB9OuEfrEATOjO3ukp7EuN/Lh1+n1Cqt3A3jvYl8oWAUAAEAB3BaBYBoa/fnP2IYNnFZiLDT3VfkygHmffvU7P/dZPg/e483Hd/q89Q135u4G8C5AvBn7x67blmYHPrNt1ZClGe/6ekOrBUpDiPe+kAAFAABAA/wRguBAE6e9iEPA6E0vROL3Des1z0Jf7gVEb8m3A3jvYl8oWAUAAEAAEwIgI0I8n9IuX+4Ru++ZyfPb+fa1HCKk2lQIV73kjBggAAoAAIAAIAPCftcLKt3bqkd6DvsIvJFL5W4C9N7AvlSsCgAAgAAgAAoAATO6yOyqg2Z+Pju2zjhNS7SkFK95zXwwQAAQAAUAAEIB4C8DcZRl98trMBH8oX+VXhMw9Aezdh32pTBEABAABQAAQgHgLgC93/qvC/X0fi1R2XilY8Z77UoAAIAAIAAKAAMRbAMZ327fvA3DTXyzVhwiZ3wzw3Qf+8EwRAAQAAUAAEID4CsCsFZk9ozfqQ5vO/eIJEDJ3+3BY8bf7QoAAIAAIAAKAAMRXAKZ02k8WszcQadchEwAAF/pJREFUr0WffYKQagDouw/94kwRAAQAAUAAEID4CsAp3fa0QEB/+EQIqVYUw4rX7ssAAoAAIAAIAAIQTwE4Y7W1fTh3A/N3MpVbCPTdh35xpggAAoAAIAAIQDwFYFJ39tuBAf5BE9Kr3yuk2lYMLF67KwQIAAKAACAACED8BGD2ikz/uF79/oO4G6Q3uDKgu8AfLlAIAAKAACAACED8BCAQV/6rJhvH9OqjhFTWcHDxtztigAAgAAgAAoAAxEsA2pZn9Jg12U9U428gPk+m1fcAvjvAH54jAoAAIAAIAAIQLwE4rSuzMRBwdzIRo2T240Kq/uHw4u/GpQABQAAQAAQAAYiXAIx/MjvLCXsDM4yQ+ccAfuPAH54hAoAAIAAIAAIQHwGYtsraEhiwO52QUen81OHw4u/GhQABQAAQAAQAAYiPAExYk73WKXcDNZyQaj3Qbxz6xRkiAAgAAoAAIADxEIDpq6zdgYJ6LRPDhYHchb8RAQQAAUAAEAAEIB4CEOwL/1SzgcG7BKpXirdged2YFCAACAACgAAgANEXgJkrrXzg7vpXjfnDPxcpdR3Qbwz6xfkhAAgAAoAAIADRF4BJXdn/Hs7T0P0t+vQHhFQ7iiHG6/qFAAFAABAABAABiLYAzFmeGThp7e5E6IBfaoK5PHD9wB8uSwgAAoAAIAAIQLQFIBSX/S0F+1LvHblef0hI9dZwmPF37WKAACAACAACgABEVwDmrMgMjFlnHVuKpaF9L5nO3wTwawf+8MwQAAQAAUAAEIDoCsDkLvtnoQV9uQkfOhaAWwXLxiQAAUAAEAAEAAGIpgCYW/5GZt//cBkQaXXD8C1a/q5NCBAABAABQAAQgGgKwJRu6yfDuRmZv4/v1IcJmd8M9GuDfnFeCAACgAAgAAhA9ARg1orMnpM7dx4RGeCXmpGkVNcWA43XtckAAoAAIAAIAAIQPQGY1Gn/VylmRuo9c2UjIdUmwF8b+At5IQAIAAKAACAA0RKAWSus/OhOfXikYF9uZoRUVxWAxnNtIoAAIAAIAAKAAERLACZ12/eV42X03u/UI4VULwH/2uBv8kIAEAAEAAFAAKIjADNXWqq1Ux8WPdBXmKNESl2KACAAbsGM8dQuRuryD2sDEh7hzKB9WXQgGOd5mdht310BlRH9SOsRQqo0ElCbBNADUDvokIPSmSEA4QR/QdjiDM2ozPuMVZbV2qlHRpTylWcrKfOtCAACAKBLA9rrXBAABCAqIA3rfIzvsa6vTMmIf5pM5R9BApxLAD0AzYGl1zBuxvgRAAQgrOCMwnRP67A2Rxzv1WdP9NknCKmySIAzCUAAEAC3ZAEBQACiANIwzsPc5Rl9Src9rTohYzCEkLklCAAC4BbYGI8zSUIAEIAwwjMK03xqp70uBmh3NoujNurDRTq3FQmoLgH0ADiDGxJQPScEAAGIAkzDNg/mhj8nrn9XOKNjTIZKSnUFAoAAAO7q4HYrIwQAAQgbPKMwvRO77XtjgvUaZlPr9wipnkECKksAPQD+AdIt0AZ1PAgAAhAFoIZpHqavst5t0XpEDWSMz6AJmT8NAUAAggrMqE0XAoAAhAmeUZjWcT3Za+JD9DrmVKTVQ0hAeQmgB4AeALdEBAFAAKIA1bDMw+kd1qY6kBivrxzTa39USJVBAkpLAAKAACAA4QZ34Up+jT6HBXxMZ0a3Lc/osU9ak+NF8zrnNiHzX0UAEAC3QMd4SksTPQDhFgnAGp57IUzusp6oE4cx/NpSfUhCql4k4GAJoAegNMyAfO25IAAIABLhvUTMWGVlRm/Uh8aQ5PXP8iipThZS5ZGAAyUAAagddMhB6cwQAAQAAfBWAOYuy+ix3dbi+kkY42+KVO4OBAABAOClAd5oLggAAoAAeCsAp3bav4gxwhub9eM79WFCqheRgP0SQA+ANzBsFKZh/D4CgAAgAN4JwMyVljq5c+cRjVEw5t8eumXwABKwVwIQAATALdlAABAABMA7AYj9rX7dchch1T0IAALgFvgYz16JQgAQAATAGwGY2mG94Bb/Yj+eI6Q+QsjcFiRAaXoA6AFwS2AQAAQAAXBfAGatyPSfstb+o9iD280AEuncfAQAAXALfoznKI0AIAAIgPsCMLEr+y032ce4hhIQMv9o3CWAHgB6ANySFwQAAUAA3BWAaR3WZoDtUQKjntZJIdWbcZYABAABQADCDe5GLwFc+D7wdhfejeY5e0Wmf2xP7iSP8MdoTQIilZ2HAAS/AXQLUozHO+GhByD461EB9qWeGwUW33dXIMZ327dDaR8SECl1d1wlgB4A74AYN9lAABAAJMAdCTitK7PRB/TxEyaBY3r1+xNSvRBHCUAAEAC3RAUBQAAQgMYF4MyVVm5c5ztHQWcfEzi6T40VUqm4SQACgAAgAOEGd6nu/HreA96Nw7vRDM21/sd125/zEX38VCGBpMx/DQEIZmPoFqQYj3fCQw9AMNcdpzLQKLz4fuMCMbnL/t8Cj3j2OwGtRwipOuImAZO6bc3K2/jKS4ZkSA1QA/XWQOtqa0drpx7pN/b4vaIEju2zjhNS7UACWJHrXZH5HrVDDVADtdTAnOWZgZPXZiYUoYiXzUogKXOL4iYAZn7pCaDRqqXRYljqhRpwpwYmdmXvahbv+N0SCSSk+hES4E5x00iQIzVADVADpWvg9A7rNyUQxFvNTGDURn24kOp5JKB00bIykws1QA1QA43VwJkrreyJ698VzWQdv10mgWP6sp8UUu1CAhorchoJ8qMGqAFq4MAaMPv9x67JtpXBD28HIYGEzJ0npBpAAg4sXlZm8qAGqAFqoP4amNBt/30QGMc0VElAyNySOAqAmWcODKx/BadxJDtqgBooVQOndtrrqmCHjwOTwOD1AXLLkQBW5lIrM+9RF9QANeC0Bs5YbW3nfP/A0N3ZhBz7lP4DIdVrSAArutMVneGoFWqAGiiugZkrrPzJ3dmPO6MOQwUqgcH7BaSVjQSwUhev1LymHqgBaqBaDbQt5zr/gQJ6PROTlOqKuAqAmW+OCaChq9bQ8Tk1Qg0cXAMTu+1762EO3wlYAkmpvosEHFzgrPRkQg1QA9TAwTVwWqf9XMAwxuTUm8DojfpQIdU6JODgQmflJxNqgBqgBvbXwPRV1jujO/Xh9fKG7wUwgcSzWgipXkUC9hc6Kz1ZUAPUADWwvwZmrrTy49fmTgwgwpikRhM4ekPu00KqnUjA/oJn5ScLaoAaoAYy2lzpb1xP9qxGOcP3A5xAMp2fLqRSSACNHo0eNUANUAOmBuYuy+jxPdYNAUYXk+ZWAomUuizOAmDmnbMDaPiAHzVADeytgQnd9vfd4gvjCUECSZm7FQmwNQ0AEKAGqIE418CUbrsrBMhiEt1OIJlW9yMBSECcGz/mHfjHuQamdlgvu80VxheSBIZOD+xEApCAODeCzDsSEMcaaF1t7eR0v5DA2qvJPELqI4RUzyMBSEAcG0HmGfjHsQbOXGllT1lr/5FXXGG8IUpA9NknCKm2IQFIQBwbQ+YZCYhTDcxekek/pdueFiJEMaleJ3D0BjVOSLULCUAC4tQYMq/AP041YM71H9tjX+I1Txh/CBMYlc5PFVJlkAAkIE6NIvOKBMShBszd/SasyV4bQjQxyX4lkJD5WUKqLBKABMShUWQegX8camCuubXvGusmvzjC74Q4ASFz5wqp8kgAEhCHxpF5RAKiXAPmKn8TuuwlIUYSk+53AiKVu0hI1Y8EIAFRbhyZN+Af9RqY2G39i9/84PcikICQ6ioh1QASgAREvZFk/hCBKNbApG77vgigiFloVgJCquvjLgBm/rl3AICIIiCYp+jW9aSu7GPN4ga/G6EERDp/MxKABACL6MKCZRutZTul214VIQQxK81OICFz/xcJQAIARbRAwfKM3vKc0mmvbzYv+P0IJoAEKM3ugOg1mECQZRqVGgD+EQRvkGaJ3QFIQFQaS+YD8EepBuj2DxIpIzwtQwcGcnZAN2cHRKkBZV4QgrDWAAf8RRi4QZy1oVMEuU4AEqDD2mgy3QA/CjXAqX5BJGQMpmnoYkFcMRAJQAKWAdMowDRM82Cu8MdFfmIA2iDP4tBlg7l3ABKABCAB1IBPNWCu7c/lfYNMxhhN29ANhLiLIBIAAHwCQJi2VJlWd3uHzF39uLFPjAAbhlkdupXwrrhfK4ArBrrb2AEP8qQG9tfAnOWZAW7pGwYixnAaj96gxgmptiEBnB1Ao72/0SYLsnCjBmavyPSP7bEviSFamOWwJCD67BOEVM8jAUiAG40e4wCe1EBGn7nSyp7SbU8LCweYzhgncITURwipOpEAJIDGG4BTA43VQOtqa+cpa+0/ijFSmPWwJTB6oz40mVb3IwFIAABoDADkF9/8pnZYL4/u1IeHrf1neklgMIGkzN2KBCABQCy+EGPZ17fsp3TbXWCEBEKfQCKlLhNSqTiLAGcH1NcIAg9yi1sNmAv8TOi2vx/6hp8ZIIFCAsl0frqQaicSQIMetwad+aXmndaAOc1vfI91Q6Hd5JkEIpPA0RtynxZSvYoE0CA6bRAZjlqJSw3MXGnlx/Vkz4pMg8+MkMDwBBLPaiGkWocE0LDHpWFnPqn1ajUwfZX1zvi1uROHt5f8TQKRS2DwDAGpvosE0DBWaxj5nBqJeg2c1mk/x5H+kcMcM1QtgaRUV4i0suMqAhwYCNyiDjfmr3yNm2v6T+y2763WTvI5CUQ2gaP71Fgh1WtIQPmGgkaUbKiBaNXAzBVWfly3/bnINuzMGAk4TeDYp/QfCJlbjgREq5EDWixPauDgGjhjtbX95O7sx522jwxHAtFPQOsRQuaWCKkG4igC7A44uKEEHmQStRo4tdNe19qpR0a/QWcOSaCOBBIyd56QKpa3FUYCAF7UgMf87K3pwdv4dtt/X0eTyFdIIF4JHNOX/WRc7yiIBCABQDNaNWDu5Dd2TbYtXq04c0sCDSQwaqM+PCHVj9gdEK3GELixPONUA6d3WL85cf27ooGmkK+SQHwTSMrcIiHVjriJAD0BgDJOoIzavJou/4ld2bvi23Iz5yTgUgLH9lnHCak6kACgGDVQMD/Rq+nW1daOk9dmJrjU/DEaEiCBFq1HJGX+a3G7qyA9AdEDBNCP5jI1d/Gb3GX/L0f5wysS8CgBc+GghFQvxKk3AAmIJjAQgegs1zNXWjku7ONRo89oSaA4gWN69ftFSt2NBESnAQWGLMuw1sBpXZmN4zrfOaq4jeI1CZCAxwmIVHaekOrNuIgAPQFAMqyQjOJ0z16R6R/fbd/ucTPH6EmABMolMOppnRQy/ygSAByjCBnmKZh1Pa3D2jy2J3dSuXaJ90mABHxMIJHOzRcytyUOIkBPQDChAKyjv1xmrcj0T+zKfsvHpo2fIgEScJLAEVIfIaS6Jw73E0ACog8bhCJYy3hqh/XCKWvtP3LSFjEMCZBAkxJIynyrkOrFqPcGIAHBAgTAjubymLnSUuN7rOub1JzxsyRAArUmcHynPkykcncIqfJRFgEkIJrQQSaav1zNef2ndtq/OLlz5xG1tj8MTwIkEIAERkl1ckKqXiSg+Q0qUGMZhKUGZqyyMmO7rcUBaMKYBBIggYYSWKoPScj8V4VUmaiKAD0BwDUscA3ydLYtN1fzs54YvVEf2lCbw5dJgASClcAxvfZHRVo9hAQAyyBDiGlrTn2e3mFtGvukNTlYrRZTQwIk4GoCCZk/TUj1TBRFgJ6A5sADaIc39+mrrHfH9WSvcbWRYWQkQAIBTkDr9ySlukKkc1ujJgJIQHhhhEj4t+zMlfwmdtv3mhuNBbilYtJIgAS8SmDURn24kLklQqpslEQACfAPJEA7XFnPXT54dP+6E9e/K7xqVxgvCZBAiBIQffYJyVT+ESQgXI058GV51VID5hK+p3Tb00LUNDGpJEACfiUwdBGhdFREgJ4AAFkLIKM67IxVlsXFfPxqRfkdEghzAlqPSKTUpUKql6IgAkgAEhBVsFebL3MVv4nd9t2tnXpkmJskpp0ESMDvBDr1SCHVVUKqTWEXASQACagGyyh9PmuFlZ/Ubd/X2qkP87vZ4PdIgAQilIC5KEhSqmuFzG8OswggAUhAlCBfal5mrcjsmdRp/9foTn14hJogZoUESKDZCQzeXyCtbhBSbQurCCABSEApcIb9PXNK35Ru6ydct7/ZrSS/TwIRT0D06Q8k0/mbhFRvhVEEkAAkIOzAL0z/nBWZgcld9s9OWrs7EfFmh9kjARIIUgJHrtcfSqTytwipdoRNBJAAJKAA0TA+z1k+CP6OMeusY4PUJjAtJEACMUvA9AiIlLpOSPVymEQACUACwgb/mSut/KSu7H+zxR+zRpbZJYHAJ7BUH5JM5RYKqdaHRQSQACQgDBIwfZW1e1J39tvcpS/wrSATSAIkMCqdnypk/jEhVX/QZQAJQAKCKgHTVllbJqzJXkuLQgIkQAKhS2CUzH48mVbfE1JZQRYBJAAJCIoEtC3P6NO6MhvHP5mdFboVngkmARIggeEJHNOrjxo6YDCwpxAiAUhAMyXAnMo3ucvuGLMm+4nh6w9/kwAJkED4E+jV7x06TmCFkGogaL0CSAAS4LcEnLHa2m7274/r1e8P/wrOHJAACZCAgwTMHQiFzN0etCsMIgFIgNcSYK7YN6XTfpI78zloKBiEBEggwgks1YeIVHaekLknhFR7gtArgAQgAW5LwNxlGT1ttfXG+G77do7mj3B7xqyRAAnUl8CxfdZxQ8cKNP0GREgAEuCGBJgb85h9+yevzUyob63gWyRAAiQQpwS0HjFqQ75NSPWgkGp3s3oFkAAkoB4JaFueGTi9w3ptQrd9M7fijVPDxbySAAm4msBx6/T7EqncAiHzS4VUGb9lAAlAApxIgDl97/QO6/UJ3dk7P7Nu15GurgSMjARIgATinsDgZYfTucVC5h8VaWX7JQNIABJQSgIM9Kd1WJsndFvf4fK8cW+dmH8SIAHfEjjqBf3BhMxdLFL5x4VUOa9lAAlAAowEzDXQX229MbHH/u64nszRvhU8P0QCJEACJHBwAh/p1R9OSnV5MpV/REi1yysZQALiKQHm7ntmS39il33PhG7rDw+uQN4hARIgARJofgKdeuTRqfw0IXNLklKl3L7gEBIQDwmYscqyTu20143ryV7X2qkPa35hMwUkQAIkQAI1JTDqaZ00vQMirR4SUr3lRu8AEhA9CZizYvDI/U1mK39sT+6kmoqMgUmABEiABAKegNYjxAY1OZnOfUNI9VQjdytEAsIvAdNXWe9O6bK7x/XYV3G6XsDXXSaPBEiABNxM4Mj1+kOJdH5OMp27TUjVUetphkhAeCTAHLHfutraMaXL7hnfY//1mHXWsW7WEuMiARIgARIIcwKdemRSqglCquuT6fzDIp3bWm2XARIQTAkwd9eb1mH9blJX9rFx3fbl7McP84rJtJMACZBAExJI9GY/lkipy4RUPxBSPSukyg+XAiSguRJgrrM/Y6VlT+20fjWh2/7+uCft6U0oFX6SBEiABEggygmYG7kkUmpMIqUuTcrcnclUbpmQuS1IgD8SMGtFpv+M1dabp3baT0/stu8et8ZaNLpTHx7lmmPeSIAESIAEApyA6NOJST32X03qyj4ypct+bmqHtWP6Kqt/znJ/wFjqSnVhfs/sszcH6U3tsH49uSv76Lhu68Yxa7KfCHAJMGkkQAIkQAIkMJSA1iOS0j7+hKez55y41r715LXZpeN7sr1TuuwtUzsse8YqSxvQhRnUjUz7rBWZPa2r7Lendlgvm6PxJ3bbPxzfY10/bo09laPyWYtIgARIgAQim4DZnTBqQ/ZP/uTp3AWffdL++1OetH4yoctKn9plbz5jtbV75korb/ZvNwLZZnzXSI2Bu7mYjjny/vQO69UpXfbaSd32feN7rK+ZffR020e2rJkxEiABEiABNxK49VY9YkLnu8lTnsyMP+XJ7Lwxa7JXj3ky9zdjnsz+88lP2g+cssZeNnaNvX5cj/3LCT32ryd1269O7rI3n9pp/35qh7Xz9A5r9xmrLWv6Kit35korb/ahm0vbGrEwDwNr87c5at7cu37mSkududLKzlhlZaavsna3rrZ2nrHa2m6uf2+Oqp/aYb10ald2w5Que+WkHvvBiV3Zu0z3vNkXb+55z53w3FjqjIMEvE/g/wEmhzvcC5XiDAAAAABJRU5ErkJggg==;" vertex="1" parent="1">
          <mxGeometry x="186" y="485.5" width="75.5" height="75.5" as="geometry" />
        </mxCell>
        <mxCell id="oAQIu1QjL0qZHSa8XBpy-33" value="" style="shape=image;verticalLabelPosition=bottom;labelBackgroundColor=#ffffff;verticalAlign=top;aspect=fixed;imageAspect=0;image=data:image/png,iVBORw0KGgoAAAANSUhEUgAAAgAAAAIACAYAAAD0eNT6AAAgAElEQVR4Ae2dC5BdxXnnT7m24thO1VZ5d52K401sZozRBQlhx7H3EQOaEQRMInZj7FRsICYm2cWPONk45V072fWjjEEgkGQJMJJ5rcHMFYg3SDwUi5eMZiQkmYdGSAg28Tp2jL3rR8yyVm+10FkPQ9+ZM919uvs734+qqTsc3e7znf/59/f7n3MfU1X8hwIogAIogAIogAIogAIogAIogAIogAIogAIogAIogAIogAIogAIogAIogAIogAIogAIogAIogAIogAIogAIogAIogAIogAIogAIogAIogAIogAIogAIogAIogAIogAIogAIogAIogAIogAIogAIogAIogAIogAIogAIogAIogAIogAIogAIogAIogAIogAIogAIogAIogAIogAIogAIogAIogAIogAIogAIogAIogAIogAIogAIogAIogAIogAIogAIogAIogAIogAIogAIogAIogAIogAIogAIogAIogAIogAIogAIogAIogAIogAIogAIogAIogAIogAIogAIogAIogAIogAIogAIogAIogAIogAIogAIogAIogAIokEWBHQuq100cWZ043qs+NnFktWqiV90z0at2TvSqvRO96rmJXvX8RK8yM/2Ye/qGHzTAA3hAogeyNF52igI5FBh/W/Xq7b1qybZetfwQ6A/MBPcm/yZx0VMzsMIDeMB6IEcfZp8okEwBU1WvGO9V/3aiV1020av+VxOoz+U5NFIaKR7AA1I9kKwRsyMUSKnApjdWvzg+rzpnvFftmwvQ5/pcqQufuoEWHsADKXsy+0KB1hWwt/nHe9VfTPSqb80V5j7Pp4nSRPEAHpDqgdYbMjtAgVQKTBxZ/c5Er3raB+S+Y6QufOoGWngAD6TqzewHBVpTYPsR1Rsn5lW3+kI8ZBxNlCaKB/CAVA+01pSZGAVSKDA+rzr10Ef2Zvy4XgjkZxordeFTN9DCA3ggRY9mHygQXYE9w9UrD32cLwv461BAE6WJ4gE8INUD0RszE6JA2wp844jqn030qodrCOd8lLrwqRto4QE80HavZn4UiKrAtrdUrz/0JT5Zr/zr0EETpYniATwg1QNRmzOToUCbCozPr46Y6FXP1vAt4VHqwqduoIUH8ECb/Zq5USCaAo8eXv3qRK/aXwL0p9ZAE6WJ4gE8INUD0Ro0E6FAWwoces3/8angLeV3qQufuoEWHsADbfVs5kWBKArYd/uX8oY/V+igidJE8QAekOqBKE2aSVCgLQUm5lVfcoG3lG1SFz51Ay08gAfa6tvMiwLBCmw7snpPKaAfVAdNlCaKB/CAVA8EN2kmQIE2FDj49b696geDwFvKdqkLn7qBFh7AA230buZEgWAFJnrVLaVAfqY6aKI0UTyAB6R6ILhRMwEKxFbg0Pf7F/FFPzPB3/6b1IVP3UALD+CB2L2b+VAgSIHxt1WvLvHz/oOCAE2UJooH8IBUDwQ1awajQGwFJuZVnxgE2xK3S1341A208AAeiN2/mQ8FvBU49Jn/vysR9INqoonSRPEAHpDqAe9mzUAUiK3A+LzqnEGgLXW71IVP3UALD+CB2D2c+VDASwFTVa8Y71X7SgX9oLpoojRRPIAHpHrAq1kzCAViKzB+ZHX8IMiWvF3qwqduoIUH8EDsPs58KOClwESv+krJoB9UG02UJooH8IBUD3g1awahQEwFHnpD9aoJAd/65woBUhc+dQMtPIAHYvZx5kIBLwW296olLrhK2EYTpYniATwg1QNeDZtBKBBTgW29arkE2LtqlLrwqRto4QE8ELOPMxcKeCkw0at2uuAqYRtNlCaKB/CAVA94NWwGoUAsBXYsqF430asOSIC9q0apC5+6gRYewAOx+jjzoICXAhNHVie6wCplG02UJooH8IBUD3g1bQahQCwFxnvVx6TA3lWn1IVP3UALD+CBWH2ceVDAS4GJI6tVLrBK2UYTpYniATwg1QNeTZtBKBBLgYledbcU2LvqlLrwqRto4QE8EKuPMw8KeCkw0at2ucAqZRtNlCaKB/CAVA94NW0GoUAsBSZ61X4psHfVKXXhUzfQwgN4IFYfZx4U8FJgW6/6ngusUrbRRGmieAAPSPWAV9NmEArEUmCiVz0vBfauOqUufOoGWngAD8Tq48yDAl4KuKAqaRtNlCaKB/CAVA94NW0GoUAsBSTB3lWr1IVP3UALD+CBWH2ceVDASwEXVCVto4nSRPEAHpDqAa+mzSAUiKWAJNi7apW68KkbaOEBPBCrjzMPCngp4IKqpG00UZooHsADUj3g1bQZhAKxFJAEe1etUhc+dQMtPIAHYvVx5kEBLwVcUJW0jSZKE8UDeECqB7yaNoNQIJYCkmDvqlXqwqduoIUH8ECsPs48KOClgAuqkraJb6LfvcwYftAAD/h54B7ZIcKraTMIBWIpIAn2rloJAAQIApRiDxAAYqGAeTQq4IKqpG0EAMXNn6tmv6vmLulGANCILY45lgKSYO+qlQBAAOAOgGIPEABioYB5NCrggqqkbQQAxc2/S1eyHIvf3QwCgEZsccyxFJAEe1etBAACAHcAFHuAABALBcyjUQEXVCVtIwAobv5cNftdNXdJNwKARmxxzLEUkAR7V60EAAIAdwAUe4AAEAsFzKNRARdUJW0jAChu/l26kuVY/O5mEAA0YotjjqWAJNi7aiUAEAC4A6DYAwSAWChgHo0KuKAqaRsBQHHz56rZ76q5S7oRADRii2OOpYAk2LtqJQAQALgDoNgDBIBYKGAejQq4oCppGwFAcfPv0pUsx+J3N4MAoBFbHHMsBSTB3lUrAYAAwB0AxR4gAMRCAfNoVMAFVUnbCACKmz9XzX5XzV3SjQCgEVsccywFJMHeVSsBgADAHQDFHiAAxEIB82hUwAVVSdsIAIqbf5euZDkWv7sZBACN2OKYYykgCfauWgkABADuACj2AAEgFgqYR6MCLqhK2kYAUNz8uWr2u2rukm4EAI3Y4phjKSAJ9q5aCQAEAO4AKPYAASAWCphHowIuqEraRgBQ3Py7dCXLsfjdzSAAaMQWxxxLAUmwd9VKACAAcAdAsQcIALFQwDwaFXBBVdI2AoDi5s9Vs99Vc5d0IwBoxBbHHEsBSbB31UoAIABwB0CxBwgAsVDAPBoVcEFV0jYCgOLm36UrWY7F724GAUAjtjjmWApIgr2rVgIAAYA7AIo9QACIhQLm0aiAC6qSthEAFDd/rpr9rpq7pBsBQCO2OOZYCkiCvatWAgABgDsAij1AAIiFAubRqIALqpK2EQAUN/8uXclyLH53MwgAGrHFMcdSQBLsXbUSAAgA3AFQ7AECQCwUMI9GBVxQlbSNAKC4+XPV7HfV3CXdCAAascUxx1JAEuxdtRIACADcAVDsAQJALBQwj0YFXFCVtI0AoLj5d+lKlmPxu5tBANCILY45lgKSYO+qlQBAAOAOgGIPEABioYB5NCrggqqkbQQAxc2fq2a/q+Yu6UYA0IgtjjmWApJg76qVAEAA4A6AYg8QAGKhgHk0KuCCqqRtBADFzb9LV7Ici9/dDAKARmxxzLEUkAR7V60EAAIAdwAUe4AAEAsFzKNRARdUJW0jAChu/lw1+101d0k3AoBGbHHMsRSQBHtXrQQAAgB3ABR7gAAQCwXMo1EBF1QlbSMAKG7+XbqS5Vj87mYQADRii2OOpYAk2LtqJQAQALgDoNgDBIBYKGAejQq4oCppGwFAcfPnqtnvqrlLuhEANGKLY46lgCTYu2olABAAuAOg2AMEgFgoYB6NCrigKmkbAUBx8+/SlSzH4nc3gwCgEVsccywFJMHeVSsBgADAHQDFHiAAxEIB82hUwAVVSdsIAIqbP1fNflfNXdKNAKARWxxzLAUkwd5VKwGAAMAdAMUeIADEQgHzaFTABVVJ2wgAipt/l65kORa/uxkEAI3Y4phjKSAJ9q5aCQAEAO4AKPYAASAWCphHowIuqEraRgBQ3Py5ava7au6SbgQAjdjimGMpIAn2rloJAAQA7gAo9gABIBYKmEejAi6oStpGAFDc/Lt0Jcux+N3NIABoxBbHHEsBSbB31UoAIABwB0CxBwgAsVDAPBoVcEFV0jYCgOLmz1Wz31Vzl3QjAGjEFsccSwFJsHfVSgAgAHAHQLEHCACxUMA8GhVwQVXSNgKA4ubfpStZjsXvbgYBQCO2OOZYCkiCvatWAgABgDsAij1AAIiFAubRqIALqpK2EQAUN3+umv2umrukGwFAI7Y45lgKSIK9q1YCAAGAOwCKPUAAiIUC5tGogAuqkrYRABQ3/y5dyXIsfnczCAAascUxx1JAEuxdtRIACADcAVDsAQJALBQwj0YFXFCVtI0AoLj5c9Xsd9XcJd0IABqxxTHHUkAS7F21EgAIANwBUOwBAkAsFDCPRgVcUJW0TXwAEN7A0L9v0AANfD2gkTkcc0EKSIK9q1bfhcc4mjYewAO5PVAQCihFowIuqEralnsBs38gggfwgK8HNDKHYy5IAUmwd9Xqu/AYR9PGA3ggtwcKQgGlaFTABVVJ23IvYPYPRPAAHvD1gEbmcMwFKSAJ9q5afRce42jaeAAP5PZAQSigFI0KuKAqaVvuBcz+gQgewAO+HtDIHI65IAUkwd5Vq+/CYxxNGw/ggdweKAgFlKJRARdUJW3LvYDZPxDBA3jA1wMamcMxF6SAJNi7avVdeIyjaeMBPJDbAwWhgFI0KuCCqqRtuRcw+wcieAAP+HpAI3M45oIUkAR7V62+C49xNG08gAdye6AgFFCKRgVcUJW0LfcCZv9ABA/gAV8PaGQOx1yQApJg76rVd+ExjqaNB/BAbg8UhAJK0aiAC6qStuVewOwfiOABPODrAY3M4ZgLUkAS7F21+i48xtG08QAeyO2BglBAKRoVcEFV0rbcC5j9AxE8gAd8PaCRORxzQQpIgr2rVt+FxziaNh7AA7k9UBAKKEWjAi6oStqWewGzfyCCB/CArwc0ModjLkgBSbB31eq78BhH08YDeCC3BwpCAaVoVMAFVUnbci9g9g9E8AAe8PWARuZwzAUpIAn2rlp9Fx7jaNp4AA/k9kBBKKAUjQq4oCppW+4FzP6BCB7AA74e0MgcjrkgBSTB3lWr78JjHE0bD+CB3B4oCAWUolEBF1Qlbcu9gNk/EMEDeMDXAxqZwzEXpIAk2Ltq9V14jKNp4wE8kNsDBaGAUjQq4IKqpG25FzD7ByJ4AA/4ekAjczjmghSQBHtXrb4Lj3E0bTyAB3J7oCAUUIpGBVxQlbQt9wJm/0AED+ABXw9oZA7HXJACkmDvqtV34TGOpo0H8EBuDxSEAkrRqIALqpK25V7A7B+I4AE84OsBjczhmAtSQBLsXbX6LjzG0bTxAB7I7YGCUEApGhVwQVXSttwLmP0DETyAB3w9oJE5HHNBCkiCvatW34XHOJo2HsADuT1QEAooRaMCLqhK2pZ7AbN/IIIH8ICvBzQyh2MuSAFJsHfV6rvwGEfTxgN4ILcHCkIBpWhUwAVVSdtyL2D2D0TwAB7w9YBG5nDMBSkgCfauWn0XHuNo2ngAD+T2QEEooBSNCrigKmlb7gXM/oEIHsADvh7QyByOuSAFJMHeVavvwmMcTRsP4IHcHigIBZSiUQEXVCVty72A2T8QwQN4wNcDGpnDMRekgCTYu2r1XXiMo2njATyQ2wMFoYBSNCrggqqkbbkXMPsHIngAD/h6QCNzOOaCFJAEe1etvguPcTRtPIAHcnugIBRQikYFXFCVtC33Amb/QAQP4AFfD2hkDsdckAKSYO+q1XfhMY6mjQfwQG4PFIQCStGogAuqkrblXsDsH4jgATzg6wGNzOGYC1JAEuxdtfouPMbRtPEAHsjtgYJQQCkaFXBBVdK23AuY/QMRPIAHfD0wf/5CM8vP8/PnL/zO/PkLtyxYcPQlRx119HsXLFjwGo2s4phbUEAS7F21+i48xtG08QAeyO2BWeA/KBz8cP78Y1YuWLDgdS0ggSk1KeCCqqRtuRcw+wcieAAP+HrAMwDUweB/z59/zF/1er1f0MQsjjWiApJg76rVd+ExjqaNB/BAbg8EBoCDQWDBgoUPHHXUUb8cEQtMpUUBF1Qlbcu9gNk/EMEDeMDXAzECwKE5nj7yyGN6WrjFcUZSQBLsXbX6LjzG0bTxAB7I7YGIAcAsWLBwP+8LiARGLdO4oCppW+4FzP6BCB7AA74eiBkA7Fz25YDh4eFXauEXxxmogCTYu2r1XXiMo2njATyQ2wOxA8CL8x3zuUAsMFyLAi6oStqWewGzfyCCB/CArwfaCQALf7pw4cI3amEYxxmggCTYu2r1XXiMo2njATyQ2wMtBQBz1FELVwdggaFaFHBBVdK23AuY/QMRPIAHfD3QVgCYP3/hD3u93i9p4RjH6amAJNi7avVdeIyjaeMBPJDbAy0GALNgwTHv8cQCw7Qo4IKqpG25FzD7ByJ4AA/4eqDNAMDLAFooHnCckmDvqtV34TGOpo0H8EBuD7QZAObPX/hgABoYqkEBF1Qlbcu9gNk/EMEDeMDXAy0HgG9rYBjHGKCAJNi7avVdeIyjaeMBPJDbAy0HgJ8GoIGhGhRwQVXSttwLmP0DETzQN89vGDOPX3+VuXPt5ebqlavNygtWmKXnXWzO+yI/M2nQcgAwGhjGMQYoIAn2rlppvgAYD+TzwPduu87cseZys+z85cDeI+wQAALgxdBwBVxQlbSN5p+v+aO9Xu1f2Dhm7rtyjVl6HuCf6Qp/tn8jAIQzjBkCFJAEe1etQEgvhDj3ec79c7dfZ9YuX8UVv8cV//RAQAAIgBdDwxVwQVXSNiCQBwLorlP3b99y7cHX96eDjP/3e68DASCcYcwQoIAk2LtqBUQ6QcR5T3/e7ZW/fXMfsPeDvUs3AkAAvBgaroALqpK2AYL0IEBzfZq/sLFvrljBbX8XxEO2EQDCGcYMAQpIgr2rVmCkD0ac8/Tn3L7hLwR0jHXfNSAABMCLoeEKuKAqaRswSA8DNNeluf2oH+/2dwM8NNgQAMIZxgwBCkiCvatWYKQLRpzv9Ofbfs4/FHSMdwcIAkAAvBgaroALqpK2AYT0QEBzPZrbb/jjS37c8I4RaggA4QxjhgAFJMHeVSsw0gMjznX6c22/3jcG6JjDHSIIAAHwYmi4Ai6oStoGFNJDAc31aG6/2x94u+EdQxcCQDjDmCFAAUmwd9UKjPTAiHOd/lzbP+wTA3TM4Q4RBIAAeDE0XAEXVCVtAwrpoYDmejRfwRf/tBqACADhDGOGAAUkwd5VKzDSAyPOdfpzfQF/7IcAEMAXhhaugAuqkrYBhfRQQHM9mnPr3n3rvtZl9ao15pqrv2ZuWn+7ufeer5uHH37EbN26zWzbttPs2vW4+eY3nzDbt+804+OPmi1bxs2mTfebW26+01x7bd9cdumVZuHCt5k27wIUjh/Ky62AJNi7agVGemDEuU5/rmvQ8fhiEFi9aq258YZbzf2bHzZPPrnH7N//bNDPE088adavv8l8/vPnmtNO+32zYMExUQNBbr6w/8IVcEFV0jagkB4KaK5Hc8B/sVmx4jKzfv2tZnzr9iDYNwkL4+PbzIoVq8373vcHUYJA4fihvNwKSIK9q1ZgpAdGnOv051pzAFiz5hrz4IPfME8//Uzr4HeFg7vvvs+cc85HzNFHv9U7DOTmC/svXAEXVCVtAwrpoYDmejTXGACuuvK6g6/ju6CcY9uWLY+Yv/zLT3q9X6Bw/FBebgUkwd5VKzDSAyPOdfpzrSkArPrS5Qdf288B+Sb7fPDBh8yZZ541p7sBufnC/gtXwAVVSduAQnoooLkezTUEgAuWrjB33LHR7Nu3P8ut/ibwn/qcr371a+bYY49vFAQKxw/l5VZAEuxdtQIjPTDiXKc/110PAPZd/Y8+ulME+KeGgJ07d5mzzvrQrCEgN1/Yf+EKuKAqaRtQSA8FNNejeZcDwPXX32j27NknDv51ELBvTrSfGHjrW98+MAgUjh/Ky62AJNi7agVGemDEuU5/rrsYAM4/b7m5e+MmseCvA0D9eNttd5h3vvPfOENAbr6w/8IVcEFV0jagkB4KaK5H864FgKXnrzCbNz/UGfjXIWDz5gfM8ccvflkIKBw/lJdbAUmwd9UKjPTAiHOd/lx3KQAsu/BL5htbxjsH/zoEbN06YU466d0vCQG5+cL+C1fABVVJ24BCeiiguR7NuxIA7JX/li1bOwv/OgTs2LHTnHLKkv8fAgrHD+XlVkAS7F21AiM9MOJcpz/XXQgA9jX/zZsf7jz8XSEgN1/Yf+EKuKAqaRtQSA8FNNejeRcCQJfe8FdDfrZH+9HGk08+xRSOH8rLrYAk2LtqBUZ6YMS5Tn+upQeA669fr+bKf3oosC8HPPvss0flZgz7L1gBF1QlbQMK6aGA5no0lxwALlm9Jsnn/Hfvfso89NAj5pab7zRXXnmtuezSK8zKFZeZC5auNPblh4uWrTL2a4bt3xhYf+OtBz+FEONPCU8H/oD//5/79++fVzCCKC2nApJg76oVGOmBEec6/bmWGgDs1/s++uiu1q7+n3pqn9m06X6zdu01xlejyy+/2qxcudrs3PlYa3UeCgWEgJyQLXnfLqhK2gYU0kMBzfVo7gu33OPuvOPuVqA6OfmUWX/jbebCC1Z5g3+qNvPnLzRvf/s7zac+9ddmYmJ7KzUTAkomcObaJMHeVSsw0gMjznX6cz0VVlJ+t7fb9+6N+4d97B8Kuveezebiiy6JAv5aSxsA6p/f+I13mC984TyzZ8/eloLAM3/PewIyA7e03bugKmkbUEgPBTTXo3kNKkmPDz/0SFSAPv74brPm8quigr/Ws4b/1MclS/69eeih1j62yMsBpUE4Zz2SYO+qFRjpgRHnOv25rkEl5fGqq66LCn/75UEXX7S6FfhbTaeCf+rvv/mb/9pcd931UY9lypsECQE5oVvSvl1QlbQNKKSHAprr0VwK+Os6t26N9zr6ffdtPvgu/nruNh6nQn/670cf/VZz6aVfJgSUBMyu1SIJ9q5agZEeGHGu05/rNqDX1pz2XfVTrnKDfr///odbh7/VYTr0Xf+/dOmyoGMZrMkzf//MM88c2TWmcTxzUMAFVUnbgEJ6KKC5Hs3bgnUb8z744DeigNLOY/92QBs1Tp/TBXzXtosvXhHl2Bxh4CUvB5jHTvsFs3v0bDM5usFMjn7XTI4aMzn6nJkc/RuzZ/TjZscJr5kDXnhq6QpIgr2rVmCkB0ac6/TnejqwSv3/FcsvNU8//UwwJO0b/i5a1t5r/tP1c8F+0La27wSYyRPeYSZH9x2CvgW/6+fbZvfik0vnGvU1VMAFVUnbgEJ6KKC5Hs2nA6vU/7/55juC4W8DxBVf+WqSK/9ax0GwH7S9rRDw3X03/MBMLv7pAOhPDwI/M3tGzmmIGJ5WsgKSYO+qFRjpgRHnOv25rkFV+uP27eHf+nfXXfcmhb/VdBDoZ9oe++WA7+xbbw5Mnjgd8rP9/wEzOfrRktlGbQ0UcEFV0jagkB4KaK5H89LBb+tbvWpt8NW//fId+539qY93JtDP9G+xQoAn/OtwQAhowNiinyIJ9q5agZEeGHGu05/r1ED02d+NN9waHABuu21DcvjbY50J8rP9W+jLAYHwJwQUTfaGxbmgKmkbUEgPBTTXo7kPkFOPsR/Zc7y7vfE2e/W/7ML0V/+hAcAGBN87AZHgTwhoyNlinyYJ9q5agZEeGHGu05/r1DD32V/on9a1X/jjs98YY2a7ym/y73O9ExAZ/oSAYuneoDAXVCVtAwrpoYDmejSPAbm5zPGp//JZc8YZHzLvPmmJOf64xeZdv7Uo64+t4d0nLzFnnv4h8+lPfS56UGgC+CbPaXonoCX4EwIasLbIp0iCvatWYKQHRpzr9Od6LvAOee65X1hmPvD+D5pj35UX+DMFDlvbBz5wlrG1hhzr1LFN4N70ObPdCWgZ/oSAIgk/S1EuqEraBhTSQwHN9Wg+FVZt/W6B+u9OfW/WK/2ZwD/930499bRoIaAp3Js+b9CdgETwJwTMwtvi/lkS7F21AiM9MOJcpz/XbUF/6rz2yn86ZEv//9NP/6ModwGagn0uz5seAhLDnxBQHOVnKMgFVUnbgEJ6KKC5Hs2ngrqN3+1r/iXf9h8URI5914j59Kc/GxwC5gL2uTy3DgGZ4E8ImIG5Rf2TJNi7agVGemDEuU5/rtuA/tQ5zzj9Q+Ku/utQcOYZHyo2ANiwcNvX/rPPN/zV8I71yJcFFUX8acW4oCppG1BIDwU016P5VFi38bt9t38NVGmP9tMBoZrM5ap+Ls/9s7PfYV54wvnHfGKBfS7zEAKmcbeY/5UEe1etwEgPjDjX6c91KOBmG3/8cSeIDQCLjj+hyABQGPzroEAIKIb6UwpxQVXSNqCQHgporkfz2QAe+u+SA8BIgQGgUPgTAqYwt6hfJcHeVSsw0gMjznX6cx0K+NnGi34J4KRTi7oDUDj8CQFFkf9QMS6oStoGFNJDAc31aD4bwEP/3X7DnrTX/ut6zzyznDcBCoE/IaC0ECAJ9q5agZEeGHGu05/rUMDPNt5+va7YjwFG+Grgubyxb9BzhcGfEFBSCHBBVdI2oJAeCmiuR/PZAB7j3+3X69ZX1VIezyjki4CEwp8QUEoIkAR7V63ASA+MONfpz3UMwM82h/0qYPv1ulLgb7+2+NwvXBT8+r/VZdBVfZPtwuFPCCghBLigKmkbUEgPBTTXo/ls8I717zYE2K/Xtd+wV2oQsLXZK/9Y8A8JAB2BPyEgdwiQBHtXrcBID4w41+nPdSzAN53Hfr2u/YY9+yU7JXxE0Nbw7pNONX94xtnF/DngjsGfEJAzBLigKmkbUEgPBTTXo3lTcOd63tLzV5inntpr9u9/1vvn3nu/HuV2vo8GTW71T31OR+FPCMgVAiTB3lUrMIOqcDwAAB2eSURBVNIDI851+nPtA7XUY7ZsGfeGvw0Oe/c+bS6+6JIsIWAq3Gf7vePwJwTkCAEuqEraBhTSQwHN9WieGuY++7vt1ruCAoANAbfccmfRAUAJ/AkBqUOAJNi7agVGemDEuU5/rn2AnHrMmjXXBAeAJ5/cY5ZduCp5CJjtqt/+uzL4EwJShgAXVCVtAwrpoYDmejRPDXPf/T322JPBISDHewFmCwBK4U8ISBUCJMHeVSsw0gMjznX6c+0L5NTj7rrznuAA8PTTz5i1a69JehdgpgCgHP6EgBQhwAVVSduAQnoooLkezVOD3Hd/X77siuAAYN8LsGvXY+aiZauThYBBAQD4j9YBwD4eMJMjH0vBQ3X7kAR7V63ASA+MONfpz7UvkHOM27ZtR5QQsHXrNmM/XpjiGFwBAPi/BP51ECAEtJFOXFCVtA0opIcCmuvRPAUEY+3jumv7UQKAvROwadMDWQIA8HfCnxDQBvztnJJg76oVGOmBEec6/bmOBecU85x/3nKza9fj0UJAijcFTr0DAPxnhD8hoI0Q4IKqpG1AIT0U0FyP5inAHXMf6/o3RwsA9k7Axo2bWr0TUAcA4N8I/oSA2CFAEuxdtQIjPTDiXKc/1zHhnGIuexdgx45dUUNAm3cCbAAA/nOCPyEgZghwQVXSNqCQHgporkfzFNCOvY+vrP3vUQOAvRPQVggA/l7wJwTECgGSYO+qFRjpgRHnOv25jg3nVPPdv/nh4kPA+qs/aV54IgiANQhnfPzuI6Nm07WjZt0lI2bNeSNm+WdGzDUXjZg7rhgx228dSVKDmWztOPl0QEgYcEFV0jagkB4KaK5H81TAjr0f+8d97Nf72qv3mD+x7gRY+P9s9wkzgjsEmt96aNR8+Ysj5qz3j5hj37XIvOu3Bv+cdMIi8+k/HTH3XCM2DBACfEOAJNi7agVGemDEuU5/rmODOeV8V115XVT410Fi44awNwa2Cf9/2Dpizv3kiDnu2MHAnykMnHbqInP3NSPmwO7WrtjbCj2EAJ8Q4IKqpG1AIT0U0FyP5imB3ca+Nmy4t50QsPE+r08HtAn/e786ak4+0Q/800PBX5yzyDy3lRDgw1RRYyTB3lUrMNIDI851+nPdBpRTzmm/0e+RRyaKCAFtwd9erX/53JEZb/NPB3yT/3/PkkVm7yZCgCigz7VYF1QlbQMK6aGA5no0TwnrtvZ14YVfMo8+ujNrCGgL/vZ9Am3Avw4Ip/z2IrP/64SAuXJVzPMlwd5VKzDSAyPOdfpz3RaUU8+7Yvml5vHHd2cJAW3C/5bL41/51/CvH3//9xaZH+0gBIiB+lwKdUFV0jagkB4KaK5H89SgbnN/l6xe08onA+ybAzducL8noE34P7N5xIwcH+c1/xr2gx4/94lFbb15r815eWPgbGFAEuxdtQIjPTDiXKc/120COcfcq1etNU88MZnkTkCb8Le3/j9+dvtX/1MDwfZbxN0FsOGCEDBTCHBBVdI2oJAeCmiuR/MckG57nylCQNvw33LDaPQ3/U2Fvev3j/7RSJtX623OTQgYFAIkwd5VKzDSAyPOdfpz3TaMc83fZgh49IFLWv2SH3v1/8mPpr36rwPBnnsJAYNYKnK7C6qStgGF9FBAcz2a5wJ0iv22EQK+s2+9OTB5YptXs8Z+ta/vF/3UIPd9vPRcsQGAlwNcCUUS7F21AiM9MOJcpz/XKUCccx+XrF4b7Y2BKeBvr/7tV/b6Ajx03Nmniw4AhIDpIcAFVUnbgEJ6KKC5Hs1zwjnVvmPcCUgFfxsAVnwmXwCwdx7+z+Mi3ww49a4M7wmog4Ak2LtqBUZ6YMS5Tn+uU0E4935CQkBK+NsA8Od/kuajf4PuFtiPH9o6hP8QAmwIcEFV0jagkB4KaK5H89xgTrl/nxCQGv4WuvY2/CA4p9j+zTvFw78OL4QASbB31QqM9MCIc53+XKcEcAn7mksIyAF/GwA+cFreALDj9s4EABsEdIcAF1QlbQMK6aGA5no0LwHKqWtoEgJywd8GgP/wh3kDQEdeAqjvAugOAZJg76oVGOmBEec6/blODd9S9jdTCMgJfxsA/urj+QKAfROgwL8LMBX2g37XeSfABVVJ24BCeiiguR7NLzhvudffvS8F5CF1uEJAbvjbAHBZC3/6t+l7B+zLD7aGjv7oCwGSYO+qFRjpgRHnOv25XnHBCrUBwIaHqSGgBPhb8E7cku8OwOnvXWR+squzAcAGG10hwAVVSduAQnoooLkeza9euVp1AKhDwN8+2W/9G/6aXlXbz+GfMJLvo4AfPktBCNg9+pH6o/KdfpQEe1etwEgPjDjX6c/1XWsuVx8ArrrsM+aFJ367qNvey/5rvrsA9uWCcz64yPx4Z8fvBOwZeU+n4c/3AKRvqEAMzSV54PGxq1UHgKXnLTPPbVtSFPztnYJvPTRqjj82310AJSHg++axE1/b6RDguqqWtE1SM6VW4C/NA89vGDPLztf7RsBbv/qJ4uBfv1Rw4V/nvQtgQ4B9OaDTdwJ2j3yGANCrTKmhQFpDpV5CgDQP3Lnmy2rvAkz+zQeKDQD/+M1R8/735L0LoOBOwGMEAAKAkda0qZegEcsDz91+nVl63sUqQ0CJt//rOwD28bG7RswJo/lDQKfvBHzrd17d2RBQ6pV907piNTnmAZh4YLAHNl25RmUA+PGuk4u9A1AHgfGbRs3ijJ8KsHcBOn0n4KkT/iUBoNC7ADTtwU0bbdAmlgde2Ng31yj8SOAPd5xSfACwQWD85hHzuyfznoA6FEV9fOy4XyIAEAB4GeAegBoLqBLn+dGd15vVy1aquhOw9/4/EBEALPC++8io+bM/LiAEfHCkS28M3NtZ+NsDa3qrvdTnSWyk1EyQkOqB79x6raoQcHf/T8UEgPqq174kkPtPBnfmewL2LL6QAFDo1b8NJVIbKXUTAqR64Md3XW+uXXWJijsByy640Eh4H0AN//rxwO5Rs/P2UbP68yMH/3yw6zsD7B/2OeN9i4z9et/6dfyYjx+WfyfgJ+bJxa8nABAACBrc/scDUzzwf+8eM/dfvVbFdwRc/5VPmQO7F4u7E1CHAfv4whOj5tn7R82TG0cO/uy5d8T846Hv9Lff7W/fxR8T/vVcokPA7tGzOw1/XgLgKlTqVSh1l+Fd+76AjWsv73wQ2Dj2cWMmZYeAqYFg+u/2OwU+dnY7IUDmywEjX+w8/AkAZTRRYMZ5kO4B+42BT4xdbTasvdxc/aXVZuUFK03X/pTwXV/7c0LAoY/81Vf4TR9tCPjRDiF/O2DPyAUq4E8AADzSwUP9eDipB7Z8lhDQ5RCgCf4EAJpn0uY55TVk9ov3xHqAEOD9foGi7wRogz8BgCYstgkTJnhTYk4PEAK6FQI0wp8AQAAgAOABPODpgY6HAPtX/tr8dMBPv1nIewK0wp8A4Lnwc155sG+ufPFAOR7oeAho69MBSz89Yux3FUz/NELy/9cMfwIAAYCrPzyABwI9QAiY08sBwN+St5D/Sv2K36Z10bwCmxdXk+VcTXIu5J4LQkCjEAD8CwF/XUZT0Jb6PAIAAQAP4IEiPEAImDEEAP+augU9lgr2pnUVsfC5cpN75ca549zF9AAhwBkCgH9B0J9aSlPQlvo8AgBXf3gADxTlAULAS0IA8J9K3MJ+LxXsTesqauHHvJJgLq5M8YBcDxACDoYA4F8Y8KeX0xS0pT6PAMDVHx7AA0V6QHkIAP7TaVvg/5cK9qZ1FbnwuXKTe+XGuePcxfSA0hAA/AuEvaukpqAt9XkEAK7+8AAeKNoDykIA8HeRttBtpYK9aV1FL/yYVxLMxZUpHpDrASUhAPgXCvpBZTUFbanPIwBw9YcH8IAID3Q8BNjv9ufrfQeRttDtpYK9aV0iFj5XbnKv3Dh3nLuYHuh4CEj+Xf6T0/6egPbv9p9rzmgK2lKfRwDg6g8P4AFRHiAEtPNHgID/XPFfVaWCvWldohZ+zCsJ5uLKFA/I9QAhIG4IAP5zh78d0RS0pT6PAMDVHx7AAyI9cDAEjB7Iftt8+m10af8P/P3gTwCgcYpsnFz5yr3y5dy99NztHj3bTBICvEMQ8PeHPwGAAEAAwAN4IJ8HbA82hAC/lwOAfxj8CQD5Fj5NF+3xAB6oOzghYNq7+Wd7GQL419YJeyz1tf2mddFEaaJ4AA9I9cDU7k0IaBgCgP9U24T93hS0pT5P6sKnbqCFB/DA9O5NCJglBAD/6ZYJ+/9Swd60LpooTRQP4AGpHnB1b0LAgBAA/F12CdvWFLSlPk/qwqduoIUH8MCg7k0ImBYCgP8gq4RtLxXsTeuiidJE8QAekOqBmbq32T3yx3xEcNQY4D+TTcL+rSloS32e1IVP3UALD+CB2bq3+hAA/GezSNi/lwr2pnXRRGmieAAPSPVAk+6tNgQA/yb2CHtOU9CW+jypC5+6gRYewANNu7e6EAD8m1oj7Hmlgr1pXTRRmigewANSPTCX7q0mBAD/udgi7LlNQVvq86QufOoGWngAD8y1e3c+BAD/uVoi7Pmlgr1pXTRRmigewANSPeDTvTsbAoC/jx3CxjQFbanPk7rwqRto4QE84Nu9OxcCgL+vFcLGlQr2pnXRRGmieAAPSPVASPfuTAgA/iE2CBvbFLSlPk/qwqduoIUH8EBY97Z/Slj4lwUB/1ALhI0vFexN66KJ0kTxAB6Q6oGw7v3iaLEhAPjHOP1hczQFbanPk7rwqRto4QE8ENa9fz5aXAgA/j8/eTl/KxXsTeuiidJE8QAekOqBmL1fTAgA/jFPe9hcTUFb6vOkLnzqBlp4AA+Ede+Xjy4+BAD/l5+0nFtKBXvTumiiNFE8gAekeqCN3l9sCAD+bZzusDmbgrbU50ld+NQNtPAAHgjr3oNHFxcCgP/gk5XzX0oFe9O6aKI0UTyAB6R6oM3eX0wIAP5tnuawuZuCttTnSV341A208AAeCOves4/OHgKA/+wnKeczSgV707poojRRPIAHpHogRe/PFgKAf4rTG7aPpqAt9XlSFz51Ay08gAfCunfz0clDAPBvfnJyPrNUsDetiyZKE8UDeECqB1L2/mQhAPinPK1h+2oK2lKfJ3XhUzfQwgN4IKx7z3106yEA+M/9pOQcUSrYm9ZFE6WJ4gE8INUDOXp/ayEA+Oc4nWH7bAraUp8ndeFTN9DCA3ggrHv7j44eAoC//8nIObJUsDetiyZKE8UDeECqB3L2/mghAPjnPI1h+24K2lKfJ3XhUzfQwgN4IKx7h48ODgHAP/wk5JyhVLA3rYsmShPFA3hAqgdy9v56394hAPjXEsp9bAraUp8ndeFTN9DCA3igFHKY3aMfMZOjB8zkqGn2M/LFUmqnjgAFSgV707poojRRPIAHpHogoHVHH2r2jC4xk6PfnyUA/MTsHj07+s6ZMI8CTUFb6vOkLnzqBlp4AA/k6fqD92oeO/G1ZvfIZ8zk6GPTgsBes2fxhebJxa8fPJp/EadAqWBvWhdNlCaKB/CAVA+UDAzzP/7Vq8ze0V8zO054Tcl1UluAAk1BW+rzpC586gZaeAAPBLRuhqJAuAKlgr1pXTRRmigewANSPRDewZkBBQIUaAraUp8ndeFTN9DCA3ggoHUzFAXCFSgV7E3roonSRPEAHpDqgfAOzgwoEKBAU9CW+jypC5+6gRYewAMBrZuhKBCuQKlgb1oXTZQmigfwgFQPhHdwZkCBAAWagrbU50ld+NQNtPAAHgho3QxFgXAFSgV707poojRRPIAHpHogvIMzAwoEKNAUtKU+T+rCp26ghQfwQEDrZigKhCtQKtib1kUTpYniATwg1QPhHZwZUCBAgaagLfV5Uhc+dQMtPIAHAlo3Q1EgXIFSwd60LpooTRQP4AGpHgjv4MyAAgEKNAVtqc+TuvCpG2jhATwQ0LoZigLhCpQK9qZ10URpongAD0j1QHgHZwYUCFCgKWhLfZ7UhU/dQAsP4IGA1s1QFAhXoFSwN62LJkoTxQN4QKoHwjs4M6BAgAJNQVvq86QufOoGWngADwS0boaiQLgCpYK9aV00UZooHsADUj0Q3sGZAQUCFGgK2lKfJ3XhUzfQwgN4IKB1MxQFwhUoFexN66KJ0kTxAB6Q6oHwDs4MKBCgQFPQlvo8qQufuoEWHsADAa2boSgQrkCpYG9aF02UJooH8IBUD4R3cGZAgQAFmoK21OdJXfjUDbTwAB4IaN0MRYFwBUoFe9O6aKI0UTyAB6R6ILyDMwMKBCjQFLSlPk/qwqduoIUH8EBA62YoCoQrUCrYm9ZFE6WJ4gE8INUD4R2cGVAgQIGmoC31eVIXPnUDLTyABwJaN0NRIFyBUsHetC6aKE0UD+ABqR4I7+DMgAIBCjQFbanPk7rwqRto4QE8ENC6GYoC4QqUCvamddFEaaJ4AA9I9UB4B2cGFAhQoCloS32e1IVP3UALD+CBgNbNUBQIV6BUsDetiyZKE8UDeECqB8I7ODOgQIACTUFb6vOkLnzqBlp4AA8EtG6GokC4AqWCvWldNFGaKB7AA1I9EN7BmQEFAhRoCtpSnyd14VM30MIDeCCgdTMUBcIVKBXsTeuiidJE8QAekOqB8A7ODCgQoEBT0Jb6PKkLn7qBFh7AAwGtm6EoEK5AqWBvWhdNlCaKB/CAVA+Ed3BmQIEABZqCto3nPTKvMg8cUZlNb6nMhjdX5rY3V+bm4cqsH67MjcOVWTdUmT4/aIAH8EBHPRDQuhmKAuEKtAH2QXOOz6vM5iMqs+HwF0EP3Ak4eAAPaPZAeAdnBhQIUGAQrGNtH+9V5sFD0L+hoylecwPj2AE4HvD3QEDrZigKhCsQC/TT57Hg33REZW4C+ty+xQN4AA84PRDewZkBBQIUmA7u0P+3t/nve8uLr+FzZeB/ZYB2aIcHuu+BgNbNUBQIVyAU+FPH32+v+Ie7v2hpzJxjPIAHYnggvIMzAwoEKDAV4L6/b5lXmdsPpyHEaAjMgY/wgB4PBLRuhqJAuAK+0K/H2at++5E9mhYa4AE8gAfm5oHwDs4MKBCgQA3yuT7aN/nZj/Ox4NEAD+ABPODngYDWzVAUCFdgruC3z9/aq8wtXPUTfnhnNx7AA0EeCO/gzIACAQrMNQB8o8eX+HC143e1g27ohgde6oGA1s1QFAhXYC4BYMsRL35NL4v4pYsYPdADD+ABHw+Ed3BmQIEABZoGAHvlb7+j38fkjEE3PIAH8MDLPRDQuhmKAuEKNAkA9jV/+0d6WMBogAfwAB6I54HwDs4MKBCgwGwBwL7bnzf8xVvwNE+0xAN4oPZAQOtmKAqEKzBbAOCjfjSrulnxiBfwQFwPhHdwZkCBAAVmCgBfPyKu2Wke6IkH8AAe+LkHAlo3Q1EgXIFBAcB+vS9/vvfnC5WmhRZ4AA/E9kB4B2cGFAhQYFAAuP3NLPbYi5358BQewANTPRDQuhmKAuEKuAKA/X7/qSbld/TAA3gAD8T3QHgHZwYUCFBgegAYn8fn/Wl08RsdmqIpHni5BwJaN0NRIFyB6QHg3re83KQsXDTBA3gAD8T3QHgHZwYUCFBgagCwn/lfzx/34OUPPIAH8EASDwS0boaiQLgCUwPAJl77T7LouZKKfyWFpmgq0QPhHZwZUCBAgToA2Kv/mwSm/nX9mw0/aIAH8ECJHghozQxFgfYVqAPAg0Kv/ktc9NQEjPAAHrAeaL+DswcUCFCgDgB3HS7zFiKNlkaLB/BAqR4IaM0MRYH2FbABwN7+l/qtf6UufOoCSngAD7TfwdkDCgQoYAPAZqG3/+2bfmiyNFk8gAdK9UBAa2YoCrSvgA0Akv/iX6kLn7qAEh7AA+13cPaAAgEK2ABw87DM1/+5A0CDBbJ4oGQPBLRmhqJA+wo8Mk8u/AkANP+Smz+14c/2Ozh7QIEABR4Q/Pq/DQD79z/LDxrgATxQpAcCWjNDUaB9BTYJ/+5/AgABCA/ggVI90H4HZw8oEKDAhjfLfgmg1IVPXUAJD+CBgNbMUBRoX4HbCABF3joEHsADD8j3QPsdnD2gQIACNwn+BADvAZDfIIEc57DLHghozQxFgfYVWE8A4A4AbyDDA3igFQ+038HZAwoEKHADAaCVhd/lqxqOjat2PNDMAwGtmaEo0L4C6wT+CWB767/+oRE1a0TohE54IL0H2u/g7AEFAhToD1XP1zCV+EhTS9/U0BzN8UAzDwS0ZoaiQPsK9Ier70kEf10zjahZI0IndMID6T3QfgdnDygQoEB/qNpfw1TiI00tfVNDczTHA808ENCaGYoC7SswNlTtkgj+umYaUbNGhE7ohAfSe6D9Ds4eUCBAgbGh6u4aphIfaWrpmxqaozkeaOaBgNbMUBRoX4H+YdUqieCva6YRNWtE6IROeCC9B9rv4OwBBQIUWDdUfayGqcRHmlr6pobmaI4HmnkgoDUzFAXaV2DdcHWiRPDXNdOImjUidEInPJDeA+13cPaAAgEKjA1X/6I/VB2ogSrtkaaWvqmhOZrjgWYeCGjNDEWBNAr0h6qd0sBf10sjataI0Amd8EB6D6Tp4OwFBQIUWDdUXVwDVdojTS19U0NzNMcDzTwQ0JYZigJpFBgbrn5XGvjremlEzRoROqETHkjvgTQdnL2gQIACY2+oXtUfqn5QQ1XSI00tfVNDczTHA808ENCWGYoC6RToD1drJYG/rpVG1KwRoRM64YH0HkjXwdkTCgQo0B+ujquhKumRppa+qaE5muOBZh4IaMkMRYF0Cvy3qnpFf6jaKwn+tlYaUbNGhE7ohAfSeyBdB2dPKBCowNhh1X+UFgCotzJogAZ4QKYHAls2w1EgngJ3DFev7A9Vf0czkdlMOG+cNzwgywPxujczoUAEBfpD1X+iichqIpwvzhcekOmBCC2bKVAgngK3vr569bqh6mkaisyGwnnjvOEBOR6I17mZCQUiKdAfqk6iichpIpwrzhUekOmBSC2baVAgrgL9oepmmorMpsJ547zhARkeiNu1mQ0FIikwdlj1a/2h6vs0EhmNhPPEecID8jwQqV0zDQrEV6B/WHWK5D8VTEOU1xA5Z5wzTR6I37WZEQUiKtAfqpZrWpAcKwDCA3gglQcitmqmQoH4Chz6boAHUy0I9kPzxQN4QIsH4ndsZkSByAqMHVb907Hh6lEti5LjBEB4AA+k8EDkVs10KNCOAmOHV7/aH6r2p1gU7IPmiwfwgAYPtNOtmRUFWlBg7E3VW/pD1TMaFibHCIDwAB5o2wMttGmmRIH2FLjh16tf6Q9VO9peGMxP88UDeKDrHmivUzMzCrSkwNgbqtf2hyreGDhEg+56g+b48HibHmipRTMtCrSrwKbjqn/SH66+yPcE0CDbbJDMjb+67IF2uzSzo0DLCvSHqyX9oeq5Li9Sjg0I4QE80IYHWm7PTI8C7Stww5uqX+dvB9Ag22iQzImvuuyB9rsze0CBRAoc/Orgw6p9XV6wHBtAwgN4IJYHErVmdoMCaRQYe0P1qv5h1cf7Q9XfxlokzEPDxQN4oIseSNOV2QsKJFbg0FcI/8m6oeqpLi5cjgkg4QE8EOqBxG2Z3aFAegXGhqq3HfqjQv8QumAYT9PFA3igKx5I343ZIwpkUuCKN1a/OHZY9e7+YdWy/mHV9v5Q9bOuLGSOAyjhATwwVw9kasXsFgXyK3Dt4dU/H3tTtXjdcPXhdUPVyv5wtfHQHx3a2x+uvtcfqp6f64Li+TRhPIAHpHggfxemAhRAARRAARRAARRAARRAARRAARRAARRAARRAARRAARRAARRAARRAARRAARRAARRAARRAARRAARRAARRAARRAARRAARRAARRAARRAARRAARRAARRAARRAARRAARRAARRAARRAARRAARRAARRAARRAARRAARRAARRAARRAARRAARRAARRAARRAARRAARRAARRAARRAARRAARRAARRAARRAARRAARRAARRAARRAARRAARRAARRAARRAARRAARRAARRAARRAARRAARRAARRAARRAARRAARRAARRAARRAARRAARRAARRAARRAARRAARRAARRAARRAARRAARRAARRAARRAARRAARRAARRAARRAARRAARRAARRAARRAARRAARRAARTwU+D/AX8Op2d1YPz8AAAAAElFTkSuQmCC;" vertex="1" parent="1">
          <mxGeometry x="332" y="484.5" width="84.5" height="84.5" as="geometry" />
        </mxCell>
        <mxCell id="oAQIu1QjL0qZHSa8XBpy-36" value="" style="shape=image;verticalLabelPosition=bottom;labelBackgroundColor=#ffffff;verticalAlign=top;aspect=fixed;imageAspect=0;image=data:image/png,iVBORw0KGgoAAAANSUhEUgAAAgAAAAIACAYAAAD0eNT6AAAgAElEQVR4Ae2dC/QkV13nbxISQoDIUwjo+lwMEAUfPFxBwYgPkIdKJMiyBhNiyHT1zCRhMiDqCAeIQBJikIAuICBPE0FJwnAU2F2BXV8gBBTW9Rz36Ar4f/TtyUQFh9Se+v9Tk/73v7vr8b23bt26nzlnTv27q+69v/u539+jqrqrjeEfBCAAAQhAAAIQgAAEIAABCEAAAhCAAAQgAAEIQAACEIAABCAAAQhAAAIQgAAEIAABCEAAAhCAAAQgAAEIQAACEIAABCAAAQhAAAIQgAAEIAABCEAAAhCAAAQgAAEIQAACEIAABCAAAQhAAAIQgAAEIAABCEAAAhCAAAQgAAEIQAACEIAABCAAAQhAAAIQgAAEIAABCEAAAhCAAAQgAAEIQAACEIAABCAAAQhAAALpEDiwdk8zst9nRtOfM9nkZSaz7zGZ/YTJ7GfMyP6dyeymyexXTGZz/sMADaCBgWrgqMmmnzXj6WvNePOsdBIAM02LQJHws+lTTDa90ozsp0xmvzZQh6ZgoWhDA2igjQaOmWzyOnMoPyWt5MBsh0kg2zjdZJNfMJn9qMnsv5PwOYtDA2gADVRq4MMUAcNMiQnMKj/BjKY/ZjL7TpPZf8HZK529zZkCbTjDRAOD1sDk2gSSBVMcDIFz8pPMeHquyeynSfokfTSABtCApIFjZs/GwweTH5jIQAkUiX80eZ7J7BdweMnhOaMb9Bkd2iA+NNTAeHrVQLMG0xoEgWz6WJPZT+LYDR2bREexgwbQQLUGbhlEnmASAyPwAntvk02uMZk9RvIn+aMBNIAGvGjgyMAyB9OJnkC2+VST2TUc3ovDc1ZUfVYEIxilo4HoEwYTGAaBQ/ldzHhyiO/vk/gp/tAAGuhIA8PIHswiagIXb3yjySYfw+k7cnrO8NI5w2OtWetVGog6cWB8/ATG9ntNZr9M8if5owE0gAY61kD8GYQZREtgNHmCyewUp+/Y6VedEbCPM0Y0kI4Gok0eGB43gdHkGSaz/0ryJ/mjATSABgJpIO4sgvVREsjsM/mKXyCH5+wunbM71pq1rtJAlAkEo+MlMJ480WT236j4KQDQABpAA4E1EG8mwfLoCOyx39P1Pf/TLpvkZ75iM3/ctRv509+ykZ/33vX8ovet5/tuXMsPfHBNP0OIbhEwGAIQGAyBqjP8qv2DAcFE+k1gz+Sbuvq0/xkvmeRnX7eRn3/9Wn7w8Fp+8EPL/8tnIP2mjnUQgMCQCVQl+Kr9Q2bD3HpC4ML8ZJPZ/ykn2xVivut+mz/m6s38+Tesr0z488WAbFNPEGMGBCCQIIEVMbFWbEsQGVPumkBmX1NLjC3EfOolNn/86za3LunPJ/c6r2W7umbJeBCAAARKAi1i5o6YV/bDFgJeCIynTzaZvX2H6FTRFu3HNj/ris18/IFmZ/zzRYFslxdodAoBCECgBgE1ltYYgkMg0I7AniP39fHDPvc+OMmf++6NRpf65xN/+ZoCoN3S0goCEOgBAQqAHiwCJiwmkNnflhPsnMAf8vJJ68v9ZdKf3cr2LZ4570IAAhDwT2AuPjaOZ/4tZIQkCWTTx7r8Zb8TMpuf/QY3Z/0UAEkqkklDYHgEKACGt6bRz+ic/CST2U82rkaXiPmksc2f9mb3yb8oBGQbo18sJgABCERLYEnMrB3Xop04hveXwGjyvNoCrBBwkfzPebuf5E8B0F8JYRkEIFCDQEX8rIzDNYbgEAjUJ7B99v+FSuHVEe7Y5j/5Ju1T/rOX+xf9LdtZnwxHQgACEHBLoE4cXXWMW2voLXkC4+m5clK9Q7A+7vnPFwGyrckvOAAgAIFgBFYl9zr7ghnOwAMkkJ9gMvtpOalmNj/zlZtOvuY3n/DnX8u2DnAVmRIEIBAJgTpJftUxkUwTM2MgMJr+mJxQM5sX3/Pff9Py5/fPJ3HltWxvDOuCjRCAwDAJrErudfYNkwqzCkIgs++UE+rYOnvIT53CQLY3CGgGhQAEIGAM8QsV9INAtnG6yextqiAf8epuLv2XxYFqbz/gYwUEIJAkgTpn+auOSRIak3ZPIJv8gppMix/22Ss+279M7HW3qs3uQdIjBCAAgZoEViX3OvtqDsNhEFhNILMfVZPp46/t9uy/KBJUm1dDYS8EIAABjwTqJPlVx3g0ja5TIXBg7Z4ms19Vkuld91unz/jnCkAq4mOeEEiYwKrkXmdfwuiYuisC2fQpSvIv2j7m6u7P/rkC4EoA9AMBCAQhUCfJrzomiNEMOiwC2fRKtQA4//puvvY3f2VAtXtYC8lsIACBqAisSu519kU1WYztJ4GR/ZSSSM94yaSTh/7MJ3+uAPRTTlgFAQjUJFAnya86puYwHAaBxQS27/9/TSkAzr7O34/9LEr6s+8pdm+1XUyFdyEAAQj4J7AqudfZ599CRhg0gZH9PjWJXhDo8j9XAAatTCYHgeETqJPkVx0zfELM0CuBbPocpQA47bJJfvBwmPv/FABelUHnEICAbwKrknudfb7to/+BExhPXqoUAGe+Isyn/8vbAIrtW20HvrxMDwIQ6DGBOkl+1TE9nhqmxUBgbN+rJNHHXRvu/j9XAGIQGDZCAAJLCaxK7nX2Le2YHRCoQyCbfFwpAJ72ZgqAOpg5BgIQgMAuAnWS/KpjdnXIGxBoQiCzn1EKgPPeux7sK4BcAWiy0BwLAQj0jsCq5F5nX+8mhEFxEcjs3ysFwAveH+4DgBQAcUkNayEAgTkCdZL8qmPmuuMlBJoRyOyGUgDsu5ECoBlwjoYABCBwB4FVyb3OPkBCQCKQ2a8oBcALA34FkCsA0srTGAIQCE2gTpJfdUxo+xk/cgKrxFVjX5GEQ/5Xipettn1bvtHmd5psco3Jpp81mT0qz6/GGjKG1X9WGs59ZXh0y5fG09ea8eZZfXN32fd6NyEMiouAGLhCJv9BXQHI8ruazL7eZFZ6LLMcUEQ9MD7FRI81cMxkk9eZQ/kpvQnSqr/1ZiIYEicBUYAUAA6WfTv5f6THgbOvZ3fYJfpvopr7cG+KAHX9HIQfukiZgChACgAH4hnb6xINxCRw0f/QTdsrLpNrHXiu3oW6/roF9JA0AVGAFACierbu+XPZn0TWNpHRrqV2jpk9Gw8XvVdvLsZf3QB6SJuAKEAKAFE+Wx/4I4i3DOJcQRD9N2nu4+lVovfqzdX10y2gh6QJiAKkABDVk00+l3QQFvUHO4pHQQO3iN6rN1f1r1tAD0kTEAVIASCqJ7O3CgGMM2BRv7BPuoA4Inqv3lzVr24BPSRNQBQgBYCoHpE/CSzpBEYBqPqP6L5y89jtlwHQQVgCogApAMTlE/lTAFAAoAFBA6L7ys1V/5cNoIO0CYgCpAAQ5SPyJ/gLwR/2XEEQ3VdurmpQNoAO0iYgCpACQJSPyJ8CgAIADQgaEN1Xbq76v2wAHaRNQBQgBYAoH5E/wV8I/rDnCoDovnJzVYOyAXSQNgFRgBQAonxE/hQAFABoQNCA6L5yc9X/ZQPoIG0CogApAET5iPwJ/kLwhz1XAET3lZurGpQNoIO0CYgCpAAQ5SPypwCgAEADggZE95Wbq/4vG0AHaRMQBUgBIMoncv6h15/x1/KUGcjFj+i+cnPR/+Xx6SBxAqIAQwef1ANAaP6Mn3YCDr3+qft/4tmL6csEKABkhFIHkfMPnQAYP+0ChAJAij40Tp5A5Ako9QBAAkw7Aaa+/qn7f/L5CwAiAQoAEaDYPHL+qScg5h+2AKMAEOMPzRMnEHkCSj0AkIDCJiD4h+Wfuv8nnr2YvkyAAkBGKHUQOX8SYNgEmDp/CgAp+tA4eQKRJ6DUA0DqCYD5p12ApO7/yecvAIgEKABEgGLzyPmTgNNOwKHXnwJAjD80T5xA5Ako9QAQOgAzPgVASA2k7v+JZy+mLxOgAJARSh1Ezj9k8Gdsig8KACn60Dh5ApEnoNQDAEmQJJiyBlL3/+TzFwBEAhQAIkCxeeT8U04+zD188UUBIMYfmidOIPIElHoAIAmFT0KsQbg1SN3/E89eTF8mQAEgI5Q6iJw/yS9c8oP9Wk4BIEUfGidPIPIElHoAIAmQgFPWQOr+n3z+AoBIgAJABCg2j5x/ysmHuYcvvigAxPhD88QJRJ6AUg8AJKHwSYg1CLcGqft/4tmL6csEKABkhFIHkfMn+YVLfrDnMwBS7KExBNQKOnQQUu0PrgAKgDy0hhg/3iImdf8PHr8wIHICkSeg1AMAySve5MXa6WuXuv9Hnn0wPzgBCoCwSxA5f5KYnsRg2J4hBUDY8MXosROIPAGlHgBIHu2TB+ziZ5e6/8eefrA/NAEKgLArEDl/kmj8STTmNaQACBu+GD12ApEnoNQDQMzBG9spHlQNpO7/sacf7A9NgAIg7ApEzl8N4LSnCFA0QAEQNnwxeuwEIk9AqQcAJXjSluQbuwZS9//Y0w/2hyZAARB2BSLnH3sCwf64iyAKgLDhi9FjJxB5Ako9AJDA4k5grJ+2fqn7f+zpB/tDE6AACLsCkfMngWkJDH4aPwqAsOGL0WMnEHkCSj0AkEC0BAK/uPml7v+xpx/sD02AAiDsCkTOnwQadwKNff0oAMKGL0aPnUDkCSj1ABB7AMd+CghFA6n7f+zpB/tDE6AACLsCkfNXgjdtSf6qBigAwoYvRo+dQOQJKPUAoAZQ2pOEY9ZA6v4fe/rB/tAEKADCrkDk/GNOHtgef/FDARA2fDF67AQiT0CpBwCSWPxJjDVsv4ap+3/s6Qf7QxOgAAi7ApHzJ3m1T16w09lRAIQNX4weO4HIE1DqAYAkoicRGMbLMHX/jz39YH9oAhQAYVcgcv4kz3iT5xDWjgIgbPhi9NgJRJ6AUg8AQwjizIEioq0GUvf/2NMP9ocmQAEQdgUi5982cNOOpO9CAxQAYcMXo8dOIPIElHoAcBFE6YNkHKsGUvf/2NMP9ocmQAEQdgUi5x9r4sDuYRQ9FABhwxejx04g8gSUegAgkQ0jkbGO7dYxdf+PPf1gf2gCFABhVyBy/iSudokLbm64UQCEDV+MHjuByBNQ6gGAROImkcAxTo6p+3/s6Qf7QxOgAAi7ApHzJ3HGmTiHsm4UAGHDF6PHTiDyBJR8ABDXT+bH+DkMbbwMQsdv1X9C28/4kRMQBRj6TEIOvqGXT+Qvz5/x401erJ2+drH7f2j7GT9yAmIQoQAQ11/kTwEQ8dkna68ncJWh6L5y89jtlwHQQVgCogApAMTlE/lTAFAAoAFBA6L7ys1V/5cNoIO0CYgCpAAQ5SPyJ/gLwR/24c/AQ6+B6L5yc3X+sgF0kDYBUYAUAKJ8RP4UABQAaEDQgOi+cnPV/2UD6CBtAqIAKQBE+Yj8Cf5C8Ic9VwBE95WbqxqUDaCDtAmIAqQAEOUj8qcAoABAA4IGRPeVm6v+LxtAB2kTEAVIASDKJ7NHCOBCABf1C/uk2U9F79Wbq/rVLaCHpAmIAqQAENWTTT5HEko6CXEZXoxBgv/cInqv3lydu24BPSRNQBQgBYConvH0tUIAI3mI+oV9ysXX9ErRe/Xmqn51C+ghaQKiACkARPWMN88ymT1GIko5ETH3APo/ZrJbHyZ6r95cjL+6AfSQNgFRgBQADuSTTV4XIABy9UDUPmsWc+EyucaB5+pdqBrULaCHpAmIAqQAcKCeQ/kpJrN/TEKJOaFge0T6/SNzYX6yA8/VuxDjr24APaRNQBQgBYAj+WwVAZNruR1AIo0okcZ2FemYySbX9Cb5F6FDjL+Oog/dJEtAFCAFgGPl7Nl4uBlPrzKZvcVk9lY5QIjry/gUJJFroPChW0w2vbIX9/znw4Xqn/P98RoCjQiIAqQAaESbgyEAAQjcSUCMv3d2xF8QaENAFCAFQBvotIEABCDALQA0EJoABUDoFWB8CEAgVQJi/E0VG/N2RUAUIFcAXC0E/UAAAskREONvcryYsGMCogApAByvB91BAALpEBDjbzqgmKkfAqIAKQD8LAu9QgACCRAQ428ChJiiVwKiACkAvK4OnUMAAkMmIMbfIaNhbl0QEAVIAdDFIjEGBCAwSAJi/B0kEybVIQFRgBQAHa4VQ0EAAsMiIMbfYcFgNt0TEAVIAdD9kjEiBCAwEAJi/B0IBaYRjIAoQAqAYCvHwBCAQOwExPgb+/SxPzQBUYAUAKEXkPEhAIFoCYjxN9p5Y3hPCIgCpADoyTpiBgQgEB8BMf7GN2Es7hcBUYAUAP1aTqyBAAQiIiDG34hmiqm9JCAKkAKgl6uKURCAQAwExPgbwxSxsc8ERAFSAPR5cbENAhDoNQEx/vZ6bhgXAQFRgBQAEawxJkIAAv0kIMbffk4Kq+IhIAqQAiCepcZSCECgZwTE+Nuz2WBOdAREAVIARLfiGAwBCPSFgBh/+zIN7IiVgChACoBYFx67IQCB4ATE+BvcfgyInIAoQAqAyNcf8yEAgXAExPgbznBGHgYBUYAUAMOQAbOAAAQCEBDjbwCLGXJQBEQBUgAMSg1MBgIQ6JKAGH+7NJWxhkhAFCAFwBBFwZwgAIFOCIjxtxMbGWTABEQBUgAMWBtMDQIQ8EtAjL9+jaP34RMQBUgBMHyJMEMIQMATATH+erKKbpMhIAqQAiAZpTBRCEDANQEx/ro2h/5SIyAKkAIgNcEwXwhAwBkBMf46s4OOEiUgCpACIFHdMG0IQEAnIMZf3QB6SJuAKEAKgLTlw+whAAGBgBh/hZFpCgFjjChACgBUBAEIQKAlATH+thyVZhC4g4AoQAoAlAQBCECgJQEx/rYclWYQuIOAKEAKAJQEAQhAoCUBMf6azH7VZHbTZPZvTWY/ZLLJNSabPttcfPSBLS2iWVIERAFSACSlFiYLAQi4JCDG34pbuH9mxtPM7DlyX5cm09eQCIgCpAAYkhiYCwQg0CkBMf5WFAD5HfuPmmx6tdm//uBO58ZgERAQBUgBEMEaYyIEINBPAmL8rVkAlIXAbWY8OWSy/K79hIFV3RMQBUgB0P2SMSIEIDAQAmL8bVgAbBcCI/sps+fIQwZCkGlIBEQBUgBI9GkMAQikTECMv60KgO0xj5jx5KdSRs/cCwKiACkAkBEEIACBlgTE+CvG72NmZC9qaTnNBkFAFCAFwCBUwCQgAIEQBMT4KxYA27cEim8K8C9RAqIAKQAS1Q3ThgAEdAJi/HVSAGT2mBlNnqFPhh7iIyAKkAIgviXHYghAoCcExPjrqAAorgTcakZHzuwJFczojIAoQAqAzlaKgSAAgaEREOOvwwKgKAI+aS7MTx4aYuazioAoQAqAVXDZBwEIQGAFATH+Oi4AcjO2l62wll2DIyAKkAJgcIpgQhCAQFcExPjrvAAobgXsu+2MrqbPOKEJiAKkAAi9gIwPAQhES0CMvx4KgNxk0yuj5YnhDQmIAqQAaMibwyEAAQiUBMT466cAsEf5AaFygYa+FQVIATB0gTA/CEDAGwEx/noqAHIznu7xNmc67hEBUYAUAD1aS0yBQB8JFL9NP5r+3PZv1Re/Wb/12/XFb9gXv2W//TAatq04XHrzWn7B9Wv52W/YyO/3okmrPpaswZ/2UUrY5JqA6HgUAK4XhP4gMAACxW/QZ9OxyeyfL0kwLpNVsn3Nxt/LD6/lT3rjRn7S2ElRdbu56NavH4ASmcJKAhQAK/GwEwIQaEAg2/gGM56+1mT2NhK/k0S8sriZLQDKv899x7qbImBkn9Vg5Tk0SgIUAFEuG0ZDoFcEigfIjOxBk9mjJH7/ib9kXCb9+W1xJaA8pv12enWvNIYxHghQAHiASpcQSIjA3iPfYTL7V+0TTXcJc2g2zif+8nVxO+B+L5a5fjAhFSc6VQqARBeeaUPAAYGR/Zmt58iLcWRoibmr+ZQJf9G2+GCgaMffOlAIXfSagOi4i4TX5XuiwPNerw3GQaDPBIrfki9+SU6MIbRvf6a+KtYW3w4Q2a73WX7Y5oKA6LyrBNjFPlHgFAAuNEQf6RHI7C/KvifGHsa3+aoYe8lNcgHwb+kJO7UZi064SoBd7JODQGrrzXwhoBLYvuzPmb8YO+XYla0uAIr4K4+haoX2PScgiriLJL9qDATec31h3rAIXDz9dpPZqex3Ytxh/O3bBqtiIwXAsFzPz2xER6wSoO/9ciDwQ5VeITA8AofyU/i0f/v79XKsWhCrq+KrPObwVMyMdhBYIKomoqkSoO/9TWxdeOwOGLyAAASWEtj+nr9+WVmMOQv9ONE+q+KrzGqpGNgxDAKi41QJ0Pd+BD4MGTKLnhPYv/5gHvLTr7P/IvZVxVfiY8/9Krh5FADBlwADINB7AtuP9+XsX4yXckKeG58CoPee03MD5wTVVKBVAvS9v6m9u47v+fJgHgSCE9j6YR+e7b8rdoix00V/VfFVHiO4+DDALwFRxFUC9L0fgfuVB71D4I5f9ePsX4yVcqxaMH5VfJXHRP4DJ7BAVE1EUyVA3/ub2Lrw2IEvL9ODgEzA4U/63v+XJvmPXLex9Rv2xW/Z+44Pfe9/YUxqEJOr5qf2L2uHDnpOoIHYFompSoC+9y+yqdF7PV8ezINAUAL7bjvDZPb2Rj61IKactHeS/9hvbeSXf4ikPxsTVa6zfS36W+0/qPYYvAMCC5y1iWgWia7L95rYuvDYDhAzBASiJZBNn73QbxrEjSL5P/ud68mf7S+KiyrbRX3Ovqf2H61uMbwmgQaOvEhMs2IL8fcimxq9VxMTh0EgSQLZ5JpG/rQgnhRn/iFiQwxjqmyr5qj2n6Tmk5r0AodtIpoqAfre38TWhccmtdhMFgINCWT2Qwv9pmbcKO75c9l/+W0PhW3Rtiq+qv03VAuHR0egpiMvE1KVAH3vX2ZX7fejWzAMhkCHBEb272r70oJYUnzgz3cMiLl/hW3Rtmruav8dKo2hghBY4LRNRFMlQN/7m9i68Ngg0BkUApEQyOzGQr+pGTcuuIF7/6tioMK2aLuq72Kf2n8kKsXM1gRqOvIyIVUJ0Pf+ZXbVfr81OBpCIAECmf1KbV9aEEuK36T3HQNi7l9hW7StmrvafwIKT3yKC5y2iWiqBOh7fxNbFx6b+PIzfQisJBB5fPAdf1b1v/cDa/k5b9/In/D6jfyRr9nMv/mlk/w+Byf5PV5o81MvsfkJY/23BVaNX+xbGPOarOlKcbAzfgJNxLDg2CoB+t6PwOOXIDPoMYEFPt/E53z7f5/6v+zm9fyZb1vPH/Hqza1E34RT22Or5t+23+PteixNTHNBIHIHPy7UtvNwwZA+IDBUAm396o52VQkq9v3FNxye9bvr+Zmv2MxP2a+f0TeNZ1X8mva36/ih6pp53UEgcgffJdim80EIEIDAcgJN/Wnu+KoEFev+S25ey5943UZ+74MT/TL7HLMmMe2n37qeHzy8/HMWTfpaeOxyZbBnEAQE8RWCCe3AC0XbZE6DWEQmAQFPBJr40oJjQ8cH1+MXv19QfLXx7peFTfyzce+MX55s3XpYNNfZ41r97UlWdNsXAguctolQFomuy/ea2Lrw2L6sA3ZAoI8EIo8PLmPR0968kd+jR4l/Pp79h0OT/Hm/t/Nrl/PHNH7dR01ik0MCkTt4Y0HPz9chSrqCwOAIzPtLw9cuE3Covi5633r+rS/dDHqpv26cO3Fs88e+djM/8MHt2wJ12y09bnCCZkI7CTR06HmhhHLKctx5exq/3kmDVxCAwCyByONDGSfabp/6po0gH+5rHMfm1qm4LfD8G9b1omVWC/w9QAJzwmkqvLaO5apdU3t3HT/AJWVKEHBGIPL40DbOXHbz2tbX+XbFC5FHl/3dZZ+DbyU4ExId9ZOAKOi2DuaqnexQ/VwVrIJAPwhEHh/axJniAT4P/pU4LvnL8a9qffuhQqzwRqBKABX72ziYyzayA3gDS8cQGACBCv+v8j+Xvt5FX8X9/vu8qD+f8K/i633/ACTMFFYRiNzBZQdYxYZ9EEidQOTxoUnRcMH1a/lpl5L8d8TU1PU/+PlH7uA7xNpmLoNfYCYIAYFAG5+aadMkAYc8tjjzL57RL8eTmbkPoi9BOjSNgYAo2JBOW4wtO1kMa4SNEAhFIPL4UCc+7fmDtfzrDnDmvzCWhtId43ZEIHIHXyjaJnPqCDPDQCBKAk18acGxdRJwyGOKH/ApvjInx5EFcx9En1GKFqPrExCFG9J5i7FlJ6tPiiMhkB6ByONDVXwqfrlPjiEio16Pn57iE5uxKN4qB/O9X3aexJab6UKgEYHI48Oq+PMTv73RSfI/7bJJ/pCXT/Ifvm4j/7l3rufF5w323ejoSX3i+lTGz0Zi4eD4CIgCWuVgXeyrFHDV/OJbMSyGQHcEqvynYn8XMaDNGC94/1p+V48/31v0/T1Xbu56Nv+8rXL8quAv99+d0hgpCAFRQPOC7vo1Ag+iGgZNhUDk8WFhPDq8ln/zr/m57198k+DHf3sjv+Sm5T/RO2uTHL/E9akcPxWdJztPUUCzYg7xd6WAq+aX7MIzcQjUIFDlPxX7Q8SEqjGL5/vLcWNu3sWP8Dz66s38kpvrJf7SRtd2OO+vhkQ4JGYCc0JuKqBSyKG2Te3ddXzMa4ftEPBNIPL4MB+Ximf8n37A7ff97/uiSX7+3M/wzo+77PWueCTydt6fb33Rf2ACouCWCbur92XBB8bP8BDoNYHI48N8HPqh33R79v8tL50c/0Df/Fh1XsvxS1yfyvF7LU6M0wmIAqojcp/HVAq4an46QXqAwHAJVPlPxX6fvt+07+K+/KmXuDv7Lz7kd/nhZpf8521W49fDrvD8NcbhKpuZbRGocOAqgc4LuuvXVfZV7kcGEIDAcgKRx4fZePSkN7pLlmddsZkfFJN/YVtlfKrgX9jwqKvczWuXPftufehycbAnfgIVAtsliLnjZx0sxN9V9lXuj38FmQEE/BGY8/dKf5o7PkRMWDTm5R9ay+91uZtP/hffIHihg+Rf2NmU5/zx5Vw9FoCaVqsAACAASURBVAFfNHWLgOzWh5mRPWAy+z6T2b802fT/mcx+1WT2iyaznzbZ5EaTTX/F7J0+yp9g6bkZgTmHnRdY1etSgKG2VfZV7m9Gi6MhkBaByONDGZfOebube//3PjjJ99f8il859qptZXyq4D/bd5Ai4FB+ohlPzzWZ/fOGc/m8yewvmkP5KWk5VN9mWyGwqkWdFWCIv6vsq9zft/XAHgj0iUDk8aGMScUl+8pYUDXXsc2f/Y71vOzTxVa1ad6GTouAbPLdLRL//Dp8wYzt2X2SfFq2VIm+Yv+8ALt+rTpQWovNbCHQkECF/1f5X9fxYNF4xVf/Ttmnf/jvu1616TT5F7ZW8avav2i+j7raQbGzeN3vvB0wnu4xmf23Kvtq7v+ayezLTXE1gX8dE1i80LWFuUiAXb5XU2DL59MxboaDQFQEIo8PRSz66beuL/f/mvO726VW+rrfspioxq9l/XosAr5kMvsG1e6F7cf2HebC/OSo/CN6Y2s6wMIFy6zziniZoJe9v8yu2u9Hv4BMAAIeCUQeH4q4UXxdr3Y8WDLfH3yd+7P/wjbVrmVxsXj/sdfo81bta9H+BooAj/68q+slgq+7cKsE2MW+unYuPW4XEN6AAASOE4g8PhQx6P4v1i7/32Wf9rCfVXFwaVyqyX1V38U+j1cC5OJl6dzH9nqKgOMe6PmPmkJbtlhVAvS9f5ldtd/3jJfuIRA1gcjjw94PrOdmrBUAxcN2fMWx2nFqyTrUsYsrAVF7oGfjlwirrjDrCNDnMXXtXHqcZ7x0D4GoCQSOD0v9VrSrq36rYp9qR1X/5X6KgKi90KPxoiOVAgu1VR3II1m6hkD8BALHB9m/RfvV8aviou/+Z8enCIjfHd3PQHSQWYGF+Ft1IPdA6RECAyIQOD7I/i3ar45fFRN99z8/PkXAgHzTyVREB5kXWNevVQdywpBOIDBUAoHjg+zfov3q+FXx0Hf/i8b/fr4dMFRvbTEv0UEWCazL91QHakGMJhBIh0Dg+CD7t2i/On5VLPTd/7LxKQLSceHVMxUdZJnAunpfdaDVcNgLgcQJBI4Psn+L9qvjV8VB3/2vGp8iIHHf3pq+6CCrBNbFPtWBkAAEILCCQOD4IPu3aL86flUM9N1/1fgUASu0n8Qu0UGqBOZ7v+pASawxk4RAWwKB44Ps36L96vhV8c93/1XjF/spAto6xxDaiQ5SR2A+j1EdaAhLyBwg4I1A4Pgg+7dovzp+Vezz3X/V+MV+j98M+LIZT55osuln1Xkuac9jg2XHFx2kjsB8HrNEGPUfUykDpAMIDJhA4Pgg+7dovzp+Vezz3X/V+F6T/56Nh295xkW3fj1FQF9jhOggVQLzvV91oL4uC3ZBoBcEAscH2b9F+9Xxq+Kf7/5Xjd9J8i9FTBFQkujZVnSQVQLrYp/qQD1bDcyBQL8IBI4Psn+L9qvjV8VA3/0vG7/T5F8qmiKgJNGjreggywTW1fuqA/VoJTAFAv0jEDg+yP4t2q+OXxUHffe/aPwgyb9UNkVASaInW9FBFgmsy/dUB+rJKmAGBPpJIHB8kP1btF8dvyoW+u5/fvygyb9U+FYRYG9R576kPR8MLDnX2ooOMi+wrl8vEQEfAqy1+BwEgQoCgeOD7N+i/er4VfHQd/+z4/ci+ZdyowgoSQTeig4yK7AQf6sOFJg+w0Og3wQCxwfZv0X71fGrYqLv/svxe5X8S8VTBJQkAm5FBykFFmqrOlBA8gwNgf4TiDw+7P3Aem7Gtv4VwQXz/c5fn+S+4psav+rY1cvkXyqfIqAkEWi7QPBNRFlHgD6PaWLrwmMDYWdYCERBIPL4UMSe+75oIhUAd9ln870fWPNSBCyMSQ2YV8XWXif/0gEoAkoSAbYNxLZIrFUC9L1/kU2N3guAnCEhEA2ByONDEX8e+epNqQAo4skTXr8RXQHw6Kv1eS+JpV80+259qFMN7z36ADOyf71kPG39xvZ6c2F+slN7B9NZ5A4uC2YwC8lEIOCBQOTxoSgAfuZt61oCyWx+6iV+rgKo8WvZCVYUZ/7zcuVKwDyRDl5H7uCqA3VAmCEgEC+ByONDkSAvu3ktP2W/9jmAIs486upN51cB1Pi1qACI6sx/3jO4EjBPxPPryB1cdSDPdOkeAnETiDw+lAnyzFfol8NPHNv8ue9ed1oEqPGrnF+5jTr5l55CEVCS6GAbuYOrDtQBYYaAQLwEIo8PZWJ81u/qtwGKWHOvyyf5/pvcfSBQjV/l/IptlJf9l3kGtwOWkXH8fuQOrjqQY5p0B4FhEYg8PhxPkIfX8nsf1L4NUMaab3vZZn7gsJsioOyz7bac36CSf+lBFAElCY/byB28reMcb+cRLV1DIHoCkceHMkEW2x++bkP+MGAZN4pvFsz23fbvsr+222LcQVz2X+Yoxe2AbPK5tnxWtuPbAcasBFTD+dsK31U71f5luuN9CEAg/vgwG2cuvXktP+1SN1cBirhTJN7Z/tv8rcavQSf/0gEpAkoSHrY1kvwqkbYRvcs2q2yrtc8DUrqEwGAIRB4f5mPND/2mu6sARXxRi4BaMUpcgxZjuP+ev+oQFAEqwSXtRXHNO1jXr1uIe+dlwCVYeBsCEBjWFYAiNhVfCfy6A/pXAmfjzqOuan8lYLafnvz9ZbNn4+G91D6fCfCwLBQAHqDSJQQGQiDy+LDohOTpb3F7FaBI3G2LgJ4k/fKkqL/Jv3QnioCShKNt5A4uO5AjjHQDgUESiDw+LCoADh5ey7/p19x9FqCMQW1uB5Rte7Dt32X/ZQ7F7YBlZFq8H7mDy47TAhlNIJAMgcjjw8IC4ENr+Z4/WNt6vK8cP+b4NL0S4Hr8lv31/8x/3uG4EjBPpOXrOQE3FdAyB+vq/ab27jq+JTaaQSAJApHHh1Vx6ClvcvNwoPmY0uRKwHzbAK/jOfOfdziuBMwTafE6cgeXHaYFMppAIBkCkceHVQVAsc/FLwUuikF1rwQsatvhe/Gd+c87HlcC5ok0fB25g8vO0hAXh0MgKQKRx4eqAuDAB9fyb/xV958HKOJSnSJAjl/t1yf+5F86IkVASaLFtr2Atj45WuVgvvfLDtQCGU0gkAyByONDnfiT/eG6s8cEz8ejqtsB88d39Drey/7LHI/bAcvIVLwfuYPLDlOBh90QSJpA5PGhTgFQHHPx+9fy0x0/H6CMTauuBJTHdLgdzpn/vGNyJWCeSI3XkTu47Dg1EHEIBJIlEHl8qFsAFMddcMN6fvfL/NwOWHYlQI5fzdZneGf+847JlYB5IhWvmwmofGDE8W0TB/NxrOxAFXjYDYGkCUQeH5rGnAt/fz2/h6ciYNGVADl+1V+f9mf++9cfbEb2HDOeZiabvMxkk2tMZl9sssl5Zs/kB82F+cm98hGuBDRYjvoCOp70Z0Xb1MFcHz9rS6u/G6DiUAgkRyDy+NAm3nRZBLSKWc3XpHny32+/1WT25Sazf1XDxqkpfllvPD23N8UARUDNUNVcTDsKgTYO5rJNDXHusHfX8TUxcRgEkiQQeXxoG2u6KgJ2xSOR94L+miX/0dqDzGj6Oyazxxb0tTqWbtv+9yabPtuY/ITg/kIRUGMJRMG1dTBX7VqK9E4h10DEIRBIlkDk8UGJM10UAXL8Wr0+zZJ/kbgzO3Fi08jeZIr78aH/UQRUrMBqAd2ZKJccpziYi7ayWCvwsBsCSRNY4vd1/c6Fj4fsw/cHA+tybHFcgw/85SeYzF7RYoyq/PB/zXjzrOD+wwcDVyxB5A4ui3YFGnZBIHkCkccHF8WDzysBcvxavD4Nz/y9JP+yOFgzoyNnBvcjrgQsWYLFAioXr3LrwsGUPmQHWoKFtyEAAWNU/1J8u09tIyoCmiX/kb1IXeMa7f/WZBunB/cnioAFS0ABsAAKb0EAAlsEIo8PLouICIqAZsl/360PNZn9So0EXnkiWN3H5G298CiKgLlliNzBq4VnV4t3DgcvIQCBGQKRxweXBUDRV4+LgGbJv/iUfmY/IsfP+vq43WSTH5pRVrg/KQJm2NdfwIWJ1LWDNe1PFvAMCv6EAATmCEQeH5rGkzrH97AIaJj8i1s706fIsbO5Nj46p65wLykC7mDffBF3FAJ1HMbnMbKIw0mQkSHQfwKRxwdfsadHRUDz5F+oLpvcKMfONtrYu/ldvRH9dhHwGU8cbujNQ5FWAm+ziDNtfDlY3X7lxVsJh50QSJyAeI/4kpvX8rq+HNtxPSgC2iX/4tG+7R/0s+MEsHH8HdtX9sqjslvvbzKbcBEwk8wbL2Zmgzt3G5t3tOmVGjEGAj0jkNmNHf7SMF4U36OPLbE3sdfncwIquDf4nv+cprLpcyr61pL8ao38xZw14V9uXQmYftYLk+IRyX37rYQdxFcvVqUQmjiLj2PlRdsBgxcQgMAOApn9P4qP/ch1G4MuAIqYFqAIaJ/8i8UdTX5DWVOx7TFzKD9lh8b68CLZIoACoA/ywwYI9JNAZg8rAf/+L7b55YeHexugPKnpsAjQkn+hssz+sbKmcts+PBhokbclWQRQACySAu9BAAIFge2ffq28ErgqKfzoG4d/FaCjKwF68t9aU/uXq9bL+749R76/t86VXBFAAdBbLWIYBIIT2P6BGKkAOGls83PfMezPApRXAh75mk2J1Yrk6yb5F4LK7BdWjOPL/pl+Nx8fXNerDPBZBGT23eZQfuKq4bvdRwHQLW9Gg0BMBC4++kCT2dvVhFEUAU9648agbwf8+G9tzCS5igeQNYu77pJ/ob3M/qm6nlL7vt4CmPVLv0XAa2aHCvt3MyHuEnhZ+YbaSkIs5s4/CEBgNYHM/pnsZ3fEmfu92OZnX7eRn3/9Wn7JTcP5bMAF16/ld9k32RUfHXBzm/yLlR7Z33dgV9u5fq0XvwuwWvHbe/0VAbebbPOpdUzwfwwFgH/GjACBmAmMp1nAhNE20QyhXbvv+VdpbWx/PeB6/k2Veb3a7+85Af9gLvvS3cPPlQIg/BpgAQT6TGDPkfuazB4NmDSGkMybzsH9mX+pscz+SLC1HNm/Nhf/8z1KU6LY+roSMLIHw8+fAiD8GmABBPpOIJteHSxpiDEqQrv9Jf9CZ+flp5rM3haOy/RPKAK2PiPyxfAPCRKdK9S9/3JcWcR9D7zYB4E+ENh+fCxXAcR4WSNe+U3+pZbG9roatjS9atHg+MnHzYG1e5bmRLHduhJgb3HLbfqUsHMXBV0m4lBbeTHC0md0CMRDILOXy/4mxpuBj+/nnv8ihe2332oy++9heUZYBLj/TMDrFy1Pd++JDhkq8ZfjygLujjQjQSBuAsUzzTP7SdnnxJgz0PG7OfOfVWBm3xCe5fRPEr8S8OnZJen+b9EZy0QcaisLuHvijAiBeAlcPP12k9mp7Hdi3BnY+N2d+c8qr/gUemb/d3iWSV8JmMwuSfd/i44YKvGX48ri7Z44I0IgbgLjyU8F+zlZMV7J8cL9+N2f+c+qr3gsb2b/JTyXhK8EFB/KDPZPFHSZiENtZeEGA8/AEIiYwNheKPueGHsGMf5o8oTgKthjn2Qy+6/heUZ4JWBkv8Vk9qsau41vCKcB0QlDJf5yXA08TwIMJzxGjp5ANjkv/AfJnD5yt8Gn2J2N+3kzWntQcC1sFwFrcjwV84nJIroScOE/nWYy+xGZWdFPsH/igpWJONRWhh8MPANDYAAERpNnmMwekf1QjENRj7/1cJyjDwyuhu2veuoJTV7Lycd6/8HA7c9P/DcHujsSdt3FxQqV+Mtx5QUIS5/RIRA/gfH0P/LtAPGKQF+KgEKN208K/As5tkq5pce3A9wl/9wU6x70n7RINi8TcaitLNKg8BkcAgMhcCi/ixlN9nI1QCoE+nE7YEuS+QlmvPk4k9nXmMz+zZJbPcdMNvncHfs93D7p4ZUAV5f9y7w7tm8OGwFKQ1puQyX+clwKgLDyYXQI7CCw77YzzHh6Fb8d0LIQ6NOVgNmFLZ4BsefIQ8zIfp8Z2+812eQRZv8/3G3rkOKJftnkY3IsXpiDelQEuDzzL+c6tj87i7n7v0tDWm7LRBxqK4uue+KMCIHhE9j6AaHpyIzs/zKZvV3205bxKcpx+1oErFLtdnL8qB/ePbgd4CP5Z9aaoB8ALBZUdKxQib8cV7V/labZBwEIOCBQPEN9ZJ9ltn9Q6IMms583md0wmf2K7L9i/Ort+BQBc7cUJh832cbpDtTYvAs/yT83Y/vK5sa4biE6UJmIQ21lB3bNk/4gAIHECOQnmJH973Is2h2Le/SZgJpL6vtKQNdFgOt7/neu8aa59Mj9alL1eNidBs1VXPXuYYVK/OW4stN5REvXEIBAIgT2TR7p5emIXAmYy0sdXgnwdeZf5NyRPb8fnkEB0I91wAoIQCBuAr5+LZEioPsiwGfyH9t39EfoFAD9WQssgQAE4iYwmv6OfFVyUUyOsQjw/e2A8lsIrhXjM/kXt4qCPvt/HtYisTV4r7wUH2orO9s8D15DAAIQaEvgnPwkk9l3ynFpcQzmMwEll5F9ozH5CW2XaWk7f/f8i6sYnwj2QcalEy6BttyGSvzluLKjLQXDDghAAAItCFAE7ITm+oOBJP+dfKVXLRN/mXjLRBxqW9rReivBozEEIACBBQQoAnZCcVUEkPx3cpVfUQDICOkAAhCAwC4CFAE7kahFgN/k/+HWJ5Grc2gPL/vPLstq4+c+fbn7q4GhzvzLceVFm2XB3xCAAARcEqAI2EmzbRFA8t/J0dkrCgBnKOkIAhCAwC4CFAE7kTQtAkj+O/k5fUUB4BQnnUEAAhDYRYAiYCeSukUAyX8nN+evKACcI6VDCEAAArsIUATsRFJVBJD8d/Ly8ooCwAtWOoUABCCwi0BRBIzsu+TPLi2O28N5TgDJf5d0/LyxWEiVH/4rBVx+GC/UtrSj9dYPVXqFAAQgsJgARcBOLvNXAkj+O/l4fUUB4BUvnUMAAhDYRYAiYCeSsggg+e/k4v0VBYB3xAwAAQhAYBeBC/OTW1+5rIrbxW8H7D36gF1j9vmNrWf7e3i8b1lcVDFrt7/n3/OvWvB2kz5+iyDUpf9yXNmBqviwHwIQgIAvAmL8rYh/8X0mwDXn7Wf7J/qQnzowRQGWiTjUtsIBjhcqS4+rw4hjIAABCPggIMbfpXHtzn7TLQJI/jUUe6dQqpPlgmNDJf5y3BoOsHpeNRBxCAQgAAEvBBbEVDmm7e4zvSKA5F9TrrvFsjphzh1fJuJQW9lZamLiMAhAAALOCczFUzmeLe8vnSKA5N9ApssFU6sQCJX4y3Flh2mAikMhAAEIOCUgxt+G8e/zZt9tZzi1v2+dkfwbrogowDIRh9o2dIDdRU1DXBwOAQhAwBkBMf62iH/DLQJI/i1kKQowVOIvx23hADuLgBbIaAIBCEDACQEx/raMf8MrAkj+LeUoCrBMxKG2LR3gziKgJTaaQQACEJAJiPFXiH/DKQJI/oIMRQGGSvzluIIDbBcBAjqaQgACEJAIiPFXjH/xFwEkf0l+RhRQXibiUFvVfpEezSEAAQi0JxC2AChOguItAkj+7XV3vKUowFCJvxyXAuD4SvIHBCAQGwEx/srxb3v8+IoAkr8jpYsCLBNxqK3sAI4w0g0EIACBxgTE+CvHvzvHj6cIIPk3ltnyBncK4M4PxjV4L1TiL8eVHWA5GfZAAAIQ8EugQayVY131WP0vAkj+jvVYLYqVhUGZiENtZadwjJPuIAABCNQmIMZfOf7tHr+/RQDJv7as6h+4WwArE/684EIl/nLceXsav65PiiMhAAEIuCUgxt/G8a7eeP0rAkj+bnV3vLd6glhaFJSJONRWdoDjIPgDAhCAQMcExPhrMnuDHAMX2jD5nNl79AEd01g83GVfurvJ7Ef9zNN+wmQbpy8eOIV3Fy6+XZrw5xchVOIvx523p/HrFNaYOUIAAv0kIMZfc05+khnZdzWOe/XGDX8lgDN/z7qtJ4SlBUGZiENtZeF7xkv3EIAABJYSEOPvVr9DLQJI/ktl426HKMBQib8clwLAnRToCQIQ6JiAGH+PWzu0IoDkf3xp/f4hCrBMxKG2FAB+5UHvEICARwJi/N1h2VCKAJL/jmX1+0IUYKjEX45LAeBXHvQOAQh4JCDG312WxV4EkPx3LanfN0QBlok41JYCwK886B0CEPBIQIy/Cy2LtQgg+S9cTr9vigIMlfjLcSkA/MqD3iEAAY8ExPi71LLYigCS/9Kl9LtDFGCZiENtKQD8yoPeIQABjwTE+LvSsliKAJL/ymX0u1MUYKjEX45LAeBXHvQOAQh4JCDG30rL+l4EkPwrl9DvAaIAy0QcaksB4Fce9A4BCHgkIMbfWpb1tQgg+ddaPr8HiQIMlfjLcSkA/MqD3iEAAY8ExPhb27K+FQEk/9pL5/dAUYBlIg61pQDwKw96hwAEPBIQ428jy/pSBJD8Gy2b34NFAYZK/OW4FAB+5UHvEICARwJi/G1sWegigOTfeMn8NhAFWCbiUFsKAL/yoHcIQMAjATH+trIsVBFA8m+1XH4biQIMlfjLcSkA/MqD3iEAAY8ExPjb2rKuiwCSf+ul8ttQFGCZiENtKQD8yoPeIQABjwTE+CtZ1lURQPKXlslvY1GAoRJ/OS4FgF950DsEIOCRgBh/Zct8FwGZ/TaT2Q/LcXoxp0+YbON0mUHSHSwGm9ddsDIRh9rWtXPpcUkvPpOHAASCEhDjrxPbL8xPNpm9YWmM1Gz8qqd+Sf5OFl9b3DxU4i/HlcXlBCKdQAACEGhBQIy/LUZc3MTvlYDaJ5Q14znJf/EqtnhXFGCZiENtawpmuQBbIKMJBCAAAScExPjrxIaykziKAJJ/uV5OtqIAQyX+clwKACcqoBMIQCAEATH+Oje530UAyd/5gosCLBNxqC0FgHNF0CEEINAVATH+ejGzn0UAyd/LYosCDJX4y3EpALyogk4hAIEuCIjx15uJ/SoCSP7eFloUYJmIQ20pALwpg44hAAHfBMT469W8fhQBJH+viywKMFTiL8elAPCqDjqHAAR8EhDjr0/TtvoOWwT8hXmBvbf3OSY9gCjAMhGH2lIAJK1eJg+BuAmI8beTyYcpAkj+nSyuKMBQib8clwKgE5UwCAQg4IOAGH99mLSwz26LAJL/wkXw8aYowDIRh9pSAPgQBX1CAAKdEBDjbyc2loN0UwSQ/EvenWxFAYZK/OW4FACdqIRBIAABHwTE+OvDpJV9bj82+D1y3F047+n/4Nn+K+l72LlwIezyJ+fNHV8m4lBbWYgekNIlBCAAgVoE5uJp43hWaxDHBx3KTzTj6VUms7c3tnfZfEf2Xea8/FTHltJdJYFlC1Lz/VCJvxxXFmAlIA6AAAQg4IlAzTi7NM55MqtWt+PJ083I/uNS2+rNbdNk9vm1xuMgDwTqLdLSKwJlIg61FcWXeyBKlxCAAATqERDjb71BPB518T/fw4ztL5nMfrlhLJ6azL7KXHrkfh6to+tKAqIAQyX+ctyGottdyFQC4gAIQAACngiI8deTVc27PZSfYrLNp5qRfaPJ7GdMZosEPxtvj5rMft5k07ea8fRcc+E/ndZ8EFq4J7BzkWYXrNbfZSIOtZ0TWS2bd7RxT5QeIQABCNQjIMbfeoMEOmr/P9zN7Jl8kymuEvCvpwREAYZK/OW4O5J5m7n0dFkwCwIQSIBAm5g12yYBREzRJ4FZMbX4u0zEobYUAD7FQd8QgIBXAi1i7o6Y59U4Oh8+AVGAoRJ/Oe4OZ2gzl+GvMDOEAAT6SqBNzJpt09d5YVckBGbF1OLvMhGH2lIARKIzzIQABHYTaBFzd8S83T3yDgQaEBAFGCrxl+PucIY2c2mAikMhAAEIOCXQJmbNtnFqDJ2lR2BWTC3+LhNxqC0FQHqSZcYQGAyBFjF3R8wbDAgmEoaAKMBQib8cd4cztJlLGOqMCgEIQMAQvxBBWAJtkuZMmzIRh9riQGHlw+gQgIBAYCaWtoplwtA0hYBcgYZK/OW4rZxm1unQAAQgAIFQBGZjUZu/Q9nNuAMh0EZ0M23KRBxqSwEwEB0yDQikSGAmlraKZSkyY84OCYgCDJX4y3FbOc3snB2ipCsIQAACjQjMxqI2fzcajIMhME+gjehm2pSJONSWAmB+QXkNAQhEQ2AmlraKZdFMFEP7SUAUYKjEX47bymlm59zPVcEqCEAgBQKzsajN3ykwYo4eCbQR3UybMhGH2lIAeNQGXUMAAn4JzMTSVrHMr3X0PngCogB9Jf5Lb17Ln/vu9fwn37Se/8C1G/nDrtjMH/wrk/w+Byf56QdsfuolNj9xvOP3ppv/FLA491YOy5isExpAA640MPgExQT9EhCF6KoA2H/jWv7Tb13PH331Zv6gX5nkJ+4luVNgoAE0gAZWasBvdqD3wRMIWAAUZ/nPfNt6ftYVm/nJ+3D0lY4urhN9oy80MEANDD5BMUG/BMTE0uYKwH9593r+0Fdu5iftnXApUORPUB9gUEcTxIW6GvCbHeh98ATqCm3JcXULgAOH1/Knv2Ujf9Avk/RJ2iRtNIAGnGhg8AmKCfolsCSx1xVnnQLg3Hes5/d/MQ5flynHoRU0gAZqacBvdqD3wRPwWAD8/HvX8/9wiDP+Wo4srgNjkDDQQIIaGHyCYoJ+CYiJZ9EVgEtuWsu/+zWbueFretzLFPVFUkswqaGZ+nHDb3ag98ETEJ1tvgB47rs38nsf5KyfxEXiQgNowLsGBp+gmKBfAo4KgOJDfo+5ejM/QezPu8NgX/2zC1jBCg30WwN+swO9D56A6ODFFYD9N63l3/ayzX47ijhPChPO5tAAGuidBgafoJigXwJiYvzF31/P7/siLvn3LjCI68p8SHZoIAIN+M0O9D54AmKiKJ7JT6CAARpAA2gggAYGn6CYoF8CYgGA0wdwetaMohMNoIFCA/yDgESAQEIgQQNoPxvW+wAAC6hJREFUAA3EqQEp+NMYAjh+nI7PurFuaAANkMEgIBHoeRA57bJJfuYrNvPHXbux9VsC5713Pb/ofev5vhvX8gMfXJMDwPxzDHi9lsMABmigGw3It1Cl4E9jCPSwADjjJZP87Os28vOvX8sPHl7tiKoDEehW84UPfNCAPw2o8YsEBgGNQE8KgLvut1sPEnr+DeuNzkBVByK4+QtusIUtGlitATV+acGf1hAIXAAUXyN8/Os2ty7ptwkWqgO1GZM2q4MafOCDBuppQI1fJDAIaARCFQBjm591xWY+/kCzM/75wKI60Hx/vK4XuOAEJzSga0CNX1rwpzUEAhQAxY8FFT8a5CKAqA7kwgb60AMhDGGYogbU+EUCg4BGoOMC4CEvn7S+3L8oQKgOtKhP3iMZoQE00IUG1PilBX9aQ6CjAqD4lcCz3+DmrH/WMVUHmu2Lvwn6aAANdKkBNX6RwCCgEeigADhpbPOnvdl98i8cVXagDuaPjTwuGQ2gAS8a0KI/rZMn4DkBFsn/nLf7Sf4UAARVL0HVs09gM7p1poHkExgANAI+g93Y5j/5Ju1T/lWX45w5kk8O9M2VGjSABnxoQIv+tE6egA9R3tGnj3v+8wUBBQBnU2gADSSrgeQTGAA0Ap4KgDNfuenka37zCX/+dbKO72nd4EkyRQMRaUCL/rROnoCHRHKvyyf5/hu7+TQxwSqiYOVBa6w/65+0BpJPYADQCLgOymPr7CE/82f7i14n7fyu147+uE+NBuLSgBb9aZ08AccO/4hXd3PpvywGKAA4A0QDaCBZDSSfwACgEXBYABQ/7LNXfLZ/mdjrbpN1fIfrBkMSKBqIUgNHtOBPawg4TCSPv7bbs/+iSCBwRRm4WDeHfocPJOsDt5DAIKARcBSI7rrfOn3GP1cAkg1qFAeOfJLCYOg+NL1SC/60hoCjYPOYq7s/++cKwNADHPMjiaOBJRo4ZrJbH0YCg4BGwFEB8Pwb/D7xb9kVgSXOwVmko3WFLwkIDfRRA5NrtMBPawgUBBwkijNeMunkoT+LigAX9tNHHwMcNqFLNLBEA39kLsxPJoFBQCfgoAA4+zp/P/azKOnPvrfEQbgC4GBdYUsCQgO90sAxk02uIfnraY8eSgIOEsX513fz1L/ZxF/+TYDqVYCi8HLgT2gaTc9o4FaT2VtMNr2Se/5l0mLrjoAYsE67bJIfPBxxAeCOJD1BAAIQ2ElAjK87O+MVBFwTEAV65ivCfPrf2RUA1zzpDwIQgEBJQIyvZTdsIeCHgCjQx10b7v5/UQTMXCpr97cfqvQKAQhAQP+QNQwh4JWAWAA8/S0UAF7Xh84hAIF4CYjxNd6JY3kcBESBnvfeMN//5xZAHPLCSggkTUCMr0mzY/IdEBAF+oL3h/sAILcAOtAHQ0AAAu0JiPG1/cC0hEAdAqJA991IAVAHM8dAAAIJEhDja4LEmHKnBESBvjDgVwC5AtCpUhgMAhBoSkCMr02H43gINCOQ2a8on6SnAGiGm6MhAIGECFAAJLTYMU41sxtKAcAtgBgXHZshAIFOCFAAdIKZQdoSyOzfKwUAHwJsC552EIDA4AlQAAx+ieOeYGY/oxQAfA0w7uXHeghAwCMBCgCPcOlaJ5BNPq4UAE97Mw8C0heBHiAAgUESoAAY5LIOZ1KZfY9SAPAo4OFIgZlAAAKOCVAAOAZKd24JjCcvVQqA7+DHgNyuB71BAALDIUABMJy1HORMsulzlAKAnwMepCqYFAQg4IIABYALivThjcDYfq9SABRtz/+9cL8HoNpOe9vuVxTVwEZ7uKOBOho4arLpZ814+loz3jzLWx6g40QJHFi7p8ns15REePZ14T4IqNhNW5I/GkADEWngmMkmrzOH8lMSzVZM2wuBzH5ScYIH/vIkL3+dr+utYjdtCf5oAA1EqIEPUwR4yYSJdprZ16hOcMENYW4DqHbTngSABtBAfBqYXJtotmLazgmMp09WHeAxV28GuQqg2k17gj8aQAMRauCY2bPxcOe5gA4TJLD9OYCvKk5wyj6bh/hdAMVm2hL40QAaiFYD4+lVCWYrpuyFQGY/ojrC467t/iqAajPtSQBoAA1EqoFbvOQCOk2QwGjyPNUJTr3E5uMPdPtZANVm2hP80QAaiFQDRxLMVEzZC4Fs43ST2dtUR/iuV3V7FUC1l/YEfzSABqLVgJdkQKdpEhjbd8iOMLb5f35Xd88FkO3lYSR1HkbCMegEDfRRA2lmKmbthUBmf9RFQr3X5ZN8/41rnXwrwIW99MEZIBpAA1FqwEsioNNECeQnmMz+pQtHOLOjHwlyYSt9EPzRABqIUgOJZiqm7YvA2P6sK0f44Q4eEezKVvohAaABNBCdBnzlAfpNlMCh/EST2c87cYSxzZ/yX/1+HsCJnX28t4dN3HNGA2igSgOJpimm7ZPAePLzrhLriXttfs7b/RUBruykH87+0AAaiE4DPvMAfSdKYPsqwJ+6coYTxzZ/sqcrAa5spB+CPxpAA9FpINEUxbR9E8imj1Z/JniHM41t/kQPnwnYMUbV5bIF+7v+9ULG6+bbIXCGcwwaUOOX7zRA/ykTyOwbZIHOJd2HvHzi9DcDVPtiCBLYSDJDA8PUgBq/Uk5PzN03gf3T+5jMflkW6VwRUDwn4DnvcvPIYNU2AuswAyvryrrGoAE1fvlOAfSfOoHR9CdMZm+XhTpXBJixzc+6YjMf/6FWCKh2xRAksJFkhgaGqQE1fqWenph/FwTG9tdloc4XAHe8Ln5A6Ad+Y6P1bQHVLgLrMAMr68q6xqABNX51Ef4ZI3UCh/K7mGzyMVmsS4qAot9T9tv80Vdv5hdc3yxwqTbFECSwsZkm4AWvWDSgxq/UUxPz74rAxRvfaDL7RVmwK4qAsu8HvGSy9Y2BX/i99fzyD60OZmWbtttYAgV2rtYBfOATowbaxq3j7bqK/4wDAbNv8kiT2elx8dVI5uqxd7t0kn/Hyyf5f/qNjfxpb97Iz3vPen7R+9a3bhm88PCa/KSwGIMGNpPs0MAwNKDGR7ISBLolMJo8wWT2X2XhdlA8YCMPdkEDaGDQGug2+jMaBIwxmX2myeyxQTsWBYp8dQV9kHzRgGcNkJAgEITAaPIMrgR4dm6KEIoQNIAGVmkgSPBnUAgUBLZvB1iqfAoBNIAG0EAADZCJIBCUwHjzLDOy/4jzB3D+VWcG7OPMEQ0MXwNBgz+DQ6AgkG18g8mmf0IRQBGABtAAGuhQA2QgCPSCQPGwoPHkkNNfEOQMZvhnMKwxa4wG2mugF8EfIyBQEhhPn+zjB4Q4q+jwrIKA3D4gww52XWqgjLtsIdAbAvsm9zLZ5Bq+KkjSpnBDA2jAmwamvYn5GAKBXQT2Th9lMvvnBABvAYCzrS7PthgLvfVLA7fsirm8AYFeETiUn2jG0+eakf1rCgEKATSABtCAIw2Mp1f1KtZjDASWEigKgZE9x4zspwgAjgJAv85GODtkPdBAdxo4ZrJbH7Y03rIDAv0kkJ9g9tgnmWzyuyazt1EMUAygATSABppqYHJNP+M7VkGgLoEDa/c048nPm8z+scnsVwkCTYMAx6MZNJCgBv7IXJifXDfMchwE+k/gsi/d3YynP24y+6o7PjjIjw11dzmRS7ewRgP918CxrW9Xkfz7n8+wUCRQFATZ5LvNeHquGU1/1Yzsu7aeNlh8hmBk/85kdt1k9isJVv8E6v4HataINXKlgVtNZm8x2fRK7vmLOYXmEIAABCAAAQhAAAIQgAAEIAABCEAAAhCAAAQgAAEIQAACEIAABCAAAQhAAAIQgAAEIAABCEAAAhCAAAQgAAEIQAACEIAABCAAAQhAAAIQgAAEIAABCEAAAhCAAAQgAAEIQAACEIAABCAAAQhAAAIQgAAEIAABCEAAAhCAAAQgAAEIQAACEIAABCAAAQhAAAIQgAAEIAABCEAAAhCAAAQgAAEIQAACEIAABCAAAQgkQeD/A4ypZpQpIzz6AAAAAElFTkSuQmCC;" vertex="1" parent="1">
          <mxGeometry x="470" y="485.5" width="80" height="80" as="geometry" />
        </mxCell>
        <mxCell id="oAQIu1QjL0qZHSa8XBpy-37" value="" style="shape=flexArrow;endArrow=classic;html=1;exitX=0;exitY=1;exitDx=0;exitDy=0;fillColor=#d5e8d4;strokeColor=#82b366;" edge="1" parent="1" source="oAQIu1QjL0qZHSa8XBpy-28">
          <mxGeometry width="50" height="50" relative="1" as="geometry">
            <mxPoint x="340" y="400" as="sourcePoint" />
            <mxPoint x="230" y="470" as="targetPoint" />
          </mxGeometry>
        </mxCell>
        <mxCell id="oAQIu1QjL0qZHSa8XBpy-38" value="" style="shape=flexArrow;endArrow=classic;html=1;exitX=1;exitY=1;exitDx=0;exitDy=0;fillColor=#d5e8d4;strokeColor=#82b366;" edge="1" parent="1" source="oAQIu1QjL0qZHSa8XBpy-28">
          <mxGeometry width="50" height="50" relative="1" as="geometry">
            <mxPoint x="450.0025" y="387" as="sourcePoint" />
            <mxPoint x="490" y="470" as="targetPoint" />
          </mxGeometry>
        </mxCell>
        <mxCell id="oAQIu1QjL0qZHSa8XBpy-39" value="" style="shape=flexArrow;endArrow=classic;html=1;exitX=0.25;exitY=1;exitDx=0;exitDy=0;fillColor=#d5e8d4;strokeColor=#82b366;" edge="1" parent="1">
          <mxGeometry width="50" height="50" relative="1" as="geometry">
            <mxPoint x="370.0025" y="400" as="sourcePoint" />
            <mxPoint x="370.25" y="473" as="targetPoint" />
          </mxGeometry>
        </mxCell>
      </root>
    </mxGraphModel>
  </diagram>
</mxfile>
